<svg width="24" height="24" viewBox="0 0 24 24" fill="none" xmlns="http://www.w3.org/2000/svg">
<path d="M7.90709 11.5748C7.81995 11.4877 7.69901 11.4375 7.57568 11.4375C7.4524 11.4375 7.33146 11.4877 7.24432 11.5748C7.15714 11.662 7.10693 11.783 7.10693 11.9062C7.10693 12.0295 7.15709 12.1505 7.24432 12.2377C7.33146 12.3248 7.4524 12.375 7.57568 12.375C7.69901 12.375 7.81995 12.3248 7.90709 12.2377C7.99428 12.1505 8.04443 12.0295 8.04443 11.9062C8.04443 11.783 7.99432 11.662 7.90709 11.5748Z" fill="#333333"/>
<path d="M7.90709 14.9498C7.81995 14.8627 7.69901 14.8125 7.57568 14.8125C7.4524 14.8125 7.33146 14.8627 7.24432 14.9498C7.15714 15.037 7.10693 15.1575 7.10693 15.2812C7.10693 15.4045 7.15709 15.5255 7.24432 15.6127C7.33146 15.6998 7.4524 15.75 7.57568 15.75C7.69901 15.75 7.81995 15.6998 7.90709 15.6127C7.99428 15.5255 8.04443 15.4045 8.04443 15.2812C8.04443 15.158 7.99432 15.037 7.90709 14.9498Z" fill="#333333"/>
<path d="M7.90709 18.3248C7.81995 18.2377 7.69901 18.1875 7.57568 18.1875C7.4524 18.1875 7.33146 18.2377 7.24432 18.3248C7.15714 18.412 7.10693 18.533 7.10693 18.6562C7.10693 18.7795 7.15709 18.9005 7.24432 18.9877C7.33146 19.0748 7.4524 19.125 7.57568 19.125C7.69901 19.125 7.81995 19.0748 7.90709 18.9877C7.99428 18.9005 8.04443 18.7795 8.04443 18.6562C8.04443 18.533 7.99432 18.412 7.90709 18.3248Z" fill="#333333"/>
<path d="M16.8931 11.4375H9.61328C9.35444 11.4375 9.14453 11.6474 9.14453 11.9062C9.14453 12.1651 9.35444 12.375 9.61328 12.375H16.8931C17.152 12.375 17.3619 12.1651 17.3619 11.9062C17.3619 11.6474 17.152 11.4375 16.8931 11.4375Z" fill="#333333"/>
<path d="M16.8931 14.8125H9.61328C9.35444 14.8125 9.14453 15.0224 9.14453 15.2812C9.14453 15.5401 9.35444 15.75 9.61328 15.75H16.8931C17.152 15.75 17.3619 15.5401 17.3619 15.2812C17.3619 15.0224 17.152 14.8125 16.8931 14.8125Z" fill="#333333"/>
<path d="M16.8931 18.1875H9.61328C9.35444 18.1875 9.14453 18.3974 9.14453 18.6562C9.14453 18.9151 9.35444 19.125 9.61328 19.125H16.8931C17.152 19.125 17.3619 18.9151 17.3619 18.6562C17.3619 18.3974 17.152 18.1875 16.8931 18.1875Z" fill="#333333"/>
<path d="M20.9954 9.44597C20.9953 9.44419 20.995 9.44241 20.9949 9.44062C20.9943 9.43322 20.9935 9.42656 20.9924 9.42052C20.9815 9.31566 20.9365 9.21506 20.8588 9.1373L15.9838 4.2623C15.8989 4.17745 15.787 4.13053 15.6718 4.12575C15.6658 4.12528 15.6595 4.125 15.6523 4.125H12.4727V3.28125C12.4727 1.47197 11.0007 0 9.19141 0C7.38208 0 5.91016 1.47197 5.91016 3.28125V4.125H4.87891C3.84503 4.125 3.00391 4.96613 3.00391 6V22.125C3.00391 23.1589 3.84503 24 4.87891 24H19.1211C20.155 24 20.9961 23.1589 20.9961 22.125V9.46875C20.9961 9.46055 20.9958 9.453 20.9954 9.44597ZM16.1211 5.72541L19.3956 9H17.1757C16.5942 9 16.121 8.52689 16.121 7.94531V5.72541H16.1211ZM9.19136 0.9375C10.4837 0.9375 11.5351 1.98891 11.5351 3.28125V7.57294C11.5351 8.35983 10.8949 9 10.108 9C9.32116 9 8.68098 8.35983 8.68098 7.57294V3.24652C8.68098 2.9708 8.90528 2.7465 9.18095 2.7465C9.45667 2.7465 9.68097 2.9708 9.68097 3.24652V7.51561C9.68097 7.7745 9.89088 7.98436 10.1497 7.98436C10.4086 7.98436 10.6185 7.7745 10.6185 7.51561V3.24652C10.6185 2.45386 9.97361 1.809 9.18095 1.809C8.38834 1.809 7.74348 2.45386 7.74348 3.24652V4.125H6.84766V3.28125H6.84761C6.84761 1.98891 7.89902 0.9375 9.19136 0.9375ZM20.0585 22.125C20.0586 22.6419 19.638 23.0625 19.1211 23.0625H4.87886C4.36192 23.0625 3.94136 22.6419 3.94136 22.125V6C3.94136 5.48306 4.36192 5.0625 4.87886 5.0625H7.74344V7.57294C7.74344 8.87677 8.80417 9.9375 10.108 9.9375C11.4118 9.9375 12.4726 8.87677 12.4726 7.57294V5.0625H15.1835V7.94531C15.1835 9.04383 16.0772 9.9375 17.1757 9.9375H20.0585V22.125V22.125Z" fill="#333333"/>
</svg>
