<svg width="86" height="76" viewBox="0 0 86 76" fill="none" xmlns="http://www.w3.org/2000/svg">
<path d="M83.6249 73.6064H1.28659C0.89073 73.6064 0.494873 73.9057 0.494873 74.4043C0.494873 74.903 0.791766 75.2023 1.28659 75.2023H83.6249C84.0208 75.2023 84.4166 74.903 84.4166 74.4043C84.4166 73.9057 84.0208 73.6064 83.6249 73.6064Z" fill="#D41028"/>
<path d="M83.9218 69.6169C83.9218 69.6169 83.8228 69.5171 83.7238 69.5171C83.7238 69.3176 83.7238 69.0184 83.7238 68.7192C83.7238 63.9318 83.7238 59.0447 83.7238 54.2573C83.7238 53.1602 83.6249 53.0604 82.5362 53.0604C78.3797 53.0604 74.2233 53.0604 70.0667 53.0604C69.7699 53.0604 69.374 53.0604 69.0771 53.0604C69.0771 52.7612 69.0771 52.462 69.0771 52.1628C69.275 52.1628 69.473 52.1628 69.5719 52.1628C73.5305 52.1628 77.4891 52.1628 81.4476 52.1628C82.2394 52.1628 83.0311 52.1628 83.8228 52.1628C84.1197 52.1628 84.3176 51.7638 84.6145 51.5644C84.3176 51.3649 84.1197 50.9659 83.8228 50.8662C83.5259 50.7665 83.13 50.8662 82.7342 50.8662C82.7342 47.9738 82.8331 36.7035 82.7342 34.0106C82.7342 33.2127 82.4373 32.315 82.0414 31.6169C81.7445 31.1182 81.1507 30.819 81.2497 30.1208C81.2497 30.0211 80.7549 29.7218 80.458 29.6221C79.8642 29.5224 79.2704 29.6221 78.5777 29.6221C78.5777 29.2232 78.5777 28.9239 78.5777 28.6247C78.5777 27.8268 78.5777 26.9292 78.5777 26.1313C78.4787 24.735 77.786 23.9371 76.4005 23.7376C76.2025 23.7376 76.1036 23.6379 75.9056 23.6379C75.9056 23.1392 76.0046 22.7402 75.9056 22.2415C75.8067 21.9423 75.5098 21.7428 75.3119 21.4436C75.1139 21.7428 74.7181 21.9423 74.6191 22.2415C74.5201 22.6405 74.6191 23.1392 74.6191 23.6379C72.3429 24.2363 71.9471 24.735 71.9471 27.0289C71.9471 27.9266 71.9471 28.7245 71.9471 29.6221C71.4522 29.6221 71.1553 29.6221 70.7595 29.6221C70.2647 29.6221 69.8688 29.7218 69.9678 30.3203C70.0667 30.6195 70.4626 30.9187 70.8585 31.0184C71.3533 31.1182 71.9471 31.0184 72.4419 31.0184C73.1346 31.0184 73.4315 30.7192 73.3326 30.0211C73.3326 29.4226 73.3326 28.7245 73.3326 28.0263C74.7181 28.0263 76.0046 28.0263 77.3901 28.0263C77.3901 28.4253 77.3901 28.8242 77.3901 29.1234C77.3901 30.9187 77.3901 30.9187 79.1715 30.9187C79.4684 30.9187 79.8642 30.9187 80.0621 30.9187C80.2601 31.4174 80.359 31.8163 80.557 32.1155C80.7549 32.315 81.1507 32.4148 81.5466 32.6142C81.5466 32.714 81.4476 32.714 81.4476 32.8137C79.6663 32.8137 77.9839 32.8137 76.1036 32.8137C76.1036 32.315 76.2025 31.8163 76.1036 31.4174C76.0046 31.1182 75.7077 30.819 75.5098 30.6195C75.3119 30.9187 74.916 31.1182 74.817 31.4174C74.7181 31.8163 74.817 32.315 74.817 32.8137C72.8377 32.8137 71.0564 32.8137 69.275 32.8137C69.275 32.4148 69.275 32.1155 69.275 31.7166C69.275 27.2284 69.275 22.84 69.275 18.3518C69.275 16.6562 69.275 14.9607 70.3636 13.5644C70.7595 12.9659 70.4626 12.4673 69.6709 12.3675C69.275 12.3675 68.8792 12.3675 68.4833 12.3675C68.4833 11.1707 68.4833 10.0736 68.4833 8.8767C69.5719 8.57749 69.7699 8.27828 69.374 7.2809C69.1761 6.78221 68.9781 6.28352 68.5823 5.98431C67.9885 5.48562 67.1968 5.08667 66.4051 4.58799C66.3061 4.18904 66.702 3.39114 65.7123 3.39114C64.7227 3.39114 65.1185 4.28877 64.9206 4.78746C63.733 5.08667 62.6444 5.6851 62.1496 6.98169C61.3579 8.17854 61.5558 8.57749 62.7434 8.97644C62.7434 10.0736 62.7434 11.1707 62.7434 12.3675C62.5455 12.3675 62.3475 12.3675 62.1496 12.3675C60.5662 12.3675 60.4672 12.6667 61.16 14.0631C61.4568 14.7612 61.9517 15.4594 61.9517 16.2573C62.0506 22.9397 61.9517 29.6221 61.9517 36.3045C61.9517 36.6037 61.9517 36.8032 61.9517 37.2022C59.9724 36.903 58.191 36.7035 56.3107 36.4043C56.3107 36.2048 56.3107 36.105 56.2117 35.9056C56.1128 35.4069 56.5086 34.5092 55.618 34.5092C54.7273 34.4095 54.9252 35.3071 54.8262 35.9056C54.8262 36.0053 54.6283 36.2048 54.5293 36.3045C54.4304 36.2048 54.2325 36.105 54.2325 35.9056C54.1335 35.7061 54.2325 35.4069 54.2325 35.1077C54.2325 31.7166 54.3314 28.2258 54.1335 24.8347C53.8366 19.2494 51.1646 15.2599 45.9194 13.0657C45.7215 12.9659 45.5236 12.7665 45.4246 12.567C45.4246 11.5696 45.4246 10.4725 45.4246 9.47513C46.6122 9.27565 46.9091 8.8767 46.5132 7.87932C46.2163 7.18116 45.6226 6.483 45.0288 5.88457C44.5339 5.38589 43.7422 5.18641 43.0495 4.8872C42.8516 4.38851 43.3464 3.2914 42.3567 3.39114C41.3671 3.39114 41.8619 4.38851 41.664 5.08667C41.4661 5.18641 41.1692 5.18641 40.9712 5.28615C39.7837 5.6851 38.794 6.483 38.2992 7.67985C37.8044 8.8767 38.1013 9.27565 39.2888 9.57486C39.2888 10.4725 39.2888 11.3701 39.2888 12.3675C39.2888 12.8662 39.0909 13.0657 38.695 13.2652C33.9448 15.0604 30.481 19.9476 30.481 25.9318C30.481 29.2232 30.481 32.4148 30.481 35.7061C30.481 35.9056 30.2831 36.2048 30.1841 36.4043C30.0852 36.2048 29.9862 36.0053 29.8872 35.8058C29.7883 35.6064 29.9862 35.4069 29.8872 35.3072C29.6893 35.0079 29.3924 34.8085 29.1945 34.609C28.9965 34.9082 28.6997 35.1077 28.6007 35.4069C28.5017 35.8058 28.6007 36.2048 28.6007 36.6037C26.7204 36.903 24.84 37.1024 22.9597 37.4016C22.9597 37.0027 22.9597 36.7035 22.9597 36.4043C22.9597 30.7192 22.9597 24.9344 22.9597 19.2494C22.9597 17.3544 22.7618 15.4594 24.0483 13.7638C24.4442 13.1654 24.0483 12.6667 23.3556 12.6667C22.9597 12.6667 22.5639 12.6667 22.168 12.6667C22.168 11.4699 22.168 10.3728 22.168 9.17591C23.2566 8.8767 23.4545 8.57749 23.0587 7.58011C22.8608 7.08142 22.6628 6.58274 22.267 6.28352C21.6732 5.78484 20.8815 5.38589 20.0898 4.8872C19.9908 4.48825 20.3867 3.69035 19.397 3.69035C18.4074 3.69035 18.8032 4.58799 18.6053 5.18641C17.4177 5.48562 16.3291 6.08405 15.8343 7.38064C15.3395 8.57749 15.5374 8.8767 16.626 9.27565C16.626 10.3728 16.626 11.4699 16.626 12.6667C16.3291 12.6667 16.1312 12.6667 15.9333 12.6667C14.5478 12.6667 14.3498 12.9659 15.0426 14.2625C15.4384 15.0604 15.9333 15.8583 15.9333 16.8557C15.9333 21.9423 15.9333 27.1287 15.9333 32.2153C15.9333 32.5145 15.9333 32.8137 15.9333 33.1129C14.0529 33.1129 12.1726 33.1129 10.3913 33.1129C10.3913 32.6142 10.4902 32.1155 10.3913 31.7166C10.2923 31.4174 9.89643 31.2179 9.6985 30.9187C9.50058 31.2179 9.20368 31.4174 9.10472 31.7166C9.00575 32.1155 9.10472 32.6142 9.10472 33.2127C8.11508 33.2127 7.2244 33.2127 6.33372 33.2127C5.44304 33.2127 4.65132 33.2127 3.76064 33.2127C3.76064 33.1129 3.76064 33.0132 3.76064 32.9134C4.05754 32.8137 4.55236 32.714 4.75029 32.4148C4.84925 31.8163 4.94822 31.4174 5.14614 30.9187C5.34407 30.9187 5.64097 30.9187 5.93786 30.9187C7.71922 30.9187 7.71922 30.9187 7.71922 29.1234C7.71922 28.7245 7.71922 28.3255 7.71922 27.9266C9.10472 27.9266 10.3913 27.9266 11.7768 27.9266C11.7768 28.6247 11.6778 29.3229 11.7768 30.0211C11.8757 30.3203 12.1726 30.819 12.4695 30.9187C13.1623 31.0184 13.855 31.0184 14.5478 30.9187C14.7457 30.9187 14.9436 30.5197 15.2405 30.3203C15.0426 30.1208 14.8446 29.7218 14.5478 29.6221C14.1519 29.5224 13.6571 29.6221 13.2612 29.6221C13.2612 28.8242 13.2612 28.2258 13.2612 27.5276C13.4591 24.9344 12.8654 24.0368 10.5892 23.5381C10.5892 23.1392 10.6881 22.6405 10.5892 22.1418C10.4902 21.8426 10.0944 21.6431 9.89643 21.3439C9.6985 21.6431 9.40161 21.8426 9.30265 22.1418C9.20368 22.5407 9.30265 23.0394 9.30265 23.5381C7.02647 24.0368 6.72957 24.5355 6.63061 26.8295C6.63061 27.7271 6.63061 28.6247 6.63061 29.6221C5.93786 29.6221 5.44304 29.6221 4.84925 29.6221C4.1565 29.6221 3.85961 29.8216 3.85961 30.5197C3.85961 30.7192 3.76064 31.0184 3.56272 31.1182C2.57307 31.7166 2.37514 32.714 2.37514 33.7113C2.37514 36.2048 2.37514 47.3754 2.37514 49.8688C2.37514 50.168 2.37514 50.3675 2.37514 50.7665C1.97929 50.7665 1.68239 50.7665 1.3855 50.7665C0.890679 50.7665 0.494822 50.9659 0.593786 51.4646C0.69275 51.7638 1.08861 52.0631 1.3855 52.0631C4.84925 52.0631 8.21404 52.0631 11.6778 52.0631C13.1623 52.0631 14.6467 52.0631 16.2302 52.0631C16.2302 52.462 16.2302 52.6615 16.2302 52.9607C15.8343 52.9607 15.5374 52.9607 15.2405 52.9607C11.084 52.9607 6.9275 52.9607 2.771 52.9607C1.68239 52.9607 1.58343 53.0604 1.58343 54.1575C1.58343 58.9449 1.58343 63.8321 1.58343 68.6195C1.58343 68.9187 1.58343 69.2179 1.58343 69.5171C1.18757 69.5171 0.890679 69.5171 0.791715 69.6169C0.197929 69.8163 0 70.1155 0 70.4148C0 70.6142 0.296893 70.8137 0.494822 71.0132C0.69275 71.1129 0.890679 71.0132 1.18757 71.0132C6.03682 71.0132 10.7871 71.0132 15.6364 71.0132C38.3982 71.0132 61.16 71.0132 83.9218 71.0132C84.4166 71.0132 85.1093 71.1129 85.1093 70.315C85.0104 69.6169 84.4166 69.6169 83.9218 69.6169ZM77.1922 26.5302C75.9056 26.5302 74.5201 26.5302 73.2336 26.5302C73.1346 25.4331 73.4315 25.0342 74.5201 25.0342C75.015 25.0342 75.5098 25.0342 75.9056 25.0342C76.8953 25.0342 77.2911 25.3334 77.1922 26.5302ZM9.10472 25.0342C9.50058 25.0342 9.9954 25.0342 10.3913 25.0342C11.4799 25.0342 11.7768 25.3334 11.6778 26.5302C10.3913 26.5302 9.00575 26.5302 7.71922 26.5302C7.62025 25.3334 8.01611 25.0342 9.10472 25.0342ZM10.2923 50.6667C9.79747 50.6667 9.30265 50.6667 8.80783 50.6667C8.80783 50.0683 8.80783 49.5696 8.80783 48.8715C9.30265 48.8715 9.6985 48.8715 10.2923 48.8715C10.2923 49.4699 10.2923 50.0683 10.2923 50.6667ZM15.9333 50.6667C14.5478 50.6667 13.2612 50.6667 11.7768 50.6667C11.7768 49.9686 11.7768 49.2704 11.7768 48.5722C11.7768 47.8741 11.4799 47.4751 10.7871 47.4751C9.9954 47.4751 9.20368 47.4751 8.41197 47.4751C7.71922 47.4751 7.42232 47.7743 7.42232 48.4725C7.42232 49.1707 7.42232 49.8688 7.42232 50.6667C6.13579 50.6667 4.84925 50.6667 3.56272 50.6667C3.56272 49.4699 3.56272 39.5959 3.56272 38.2993C7.71922 38.2993 11.7768 38.2993 15.9333 38.2993C15.9333 39.5959 15.9333 49.3701 15.9333 50.6667ZM15.9333 36.8032C11.7768 36.8032 7.71922 36.8032 3.46375 36.8032C3.46375 36.1051 3.46375 35.3071 3.46375 34.609C3.46375 34.4095 3.76064 34.21 3.85961 34.21C7.81818 34.21 11.7768 34.21 15.8343 34.21C15.9333 35.2074 15.9333 36.0053 15.9333 36.8032ZM76.1036 50.6667C75.6087 50.6667 75.1139 50.6667 74.6191 50.6667C74.6191 50.0683 74.6191 49.5696 74.6191 48.8715C75.1139 48.8715 75.6087 48.8715 76.1036 48.8715C76.1036 49.4699 76.1036 50.0683 76.1036 50.6667ZM68.9781 34.3098C69.1761 34.3098 69.473 34.21 69.6709 34.21C73.3326 34.21 76.8953 34.21 80.557 34.21C81.2497 34.21 81.5466 34.4095 81.4476 35.1077C81.3487 35.7061 81.4476 36.2048 81.4476 36.903C77.1922 36.903 73.1346 36.903 68.9781 36.903C68.9781 36.0053 68.9781 35.2074 68.9781 34.3098ZM68.9781 38.2993C73.0357 38.2993 77.1922 38.2993 81.3487 38.2993C81.3487 39.5959 81.3487 49.3701 81.3487 50.6667C80.0621 50.6667 78.7756 50.6667 77.3901 50.6667C77.3901 49.9686 77.3901 49.2704 77.3901 48.5722C77.3901 47.7743 77.0932 47.3754 76.3015 47.4751C75.5098 47.4751 74.817 47.4751 74.0253 47.4751C73.3326 47.4751 73.0357 47.7743 73.0357 48.4725C73.0357 49.1707 73.0357 49.8688 73.0357 50.6667C71.5512 50.6667 70.2647 50.6667 68.8792 50.6667C68.9781 49.4699 68.9781 39.5959 68.9781 38.2993ZM65.6133 6.18379C66.4051 6.18379 67.1968 6.483 67.5926 7.38064C66.0092 7.38064 64.6237 7.38064 63.0403 7.38064C63.832 6.28352 64.7227 6.18379 65.6133 6.18379ZM66.702 8.8767C66.702 9.97381 66.702 11.1707 66.702 12.3675C65.8113 12.3675 65.0196 12.3675 64.1289 12.3675C64.1289 11.2704 64.1289 10.0736 64.1289 8.8767C65.0196 8.8767 65.8113 8.8767 66.702 8.8767ZM68.2854 13.7638C68.1864 14.462 67.8895 14.861 67.1968 14.7612C66.1082 14.6615 64.9206 14.6615 63.832 14.7612C63.0403 14.7612 62.7434 14.462 62.7434 13.7638C64.5247 13.7638 66.3061 13.7638 68.2854 13.7638ZM64.1289 20.0473C65.2175 19.8478 66.4051 19.8478 67.5926 19.7481C67.5926 20.6457 67.5926 21.3439 67.5926 22.0421C66.1082 22.1418 64.7227 22.2415 63.2382 22.3413C63.2382 21.9423 63.1392 21.4436 63.2382 20.9449C63.4361 20.546 63.832 20.0473 64.1289 20.0473ZM63.3372 18.651C63.3372 17.9528 63.3372 17.0552 63.3372 16.1575C64.7227 16.1575 66.1082 16.1575 67.5926 16.1575C67.5926 16.9554 67.5926 17.6536 67.5926 18.3518C66.1082 18.4515 64.7227 18.5512 63.3372 18.651ZM65.3165 30.6195C66.0092 30.6195 66.8009 30.6195 67.5926 30.6195C67.5926 31.5171 67.5926 32.2153 67.5926 32.9134C66.2071 33.0132 64.8216 33.1129 63.4361 33.2127C62.8423 31.4174 63.4361 30.7192 65.3165 30.6195ZM63.2382 47.9738C63.1392 47.2757 63.5351 38.1995 64.1289 38.0998C65.2175 37.9003 66.4051 37.9003 67.4937 37.8006C67.4937 38.6982 67.4937 48.0736 67.4937 48.672C66.0092 48.7717 64.6237 48.8715 63.1392 48.9712C63.2382 48.7717 63.2382 48.3728 63.2382 47.9738ZM67.5926 36.4043C66.2071 36.504 64.7227 36.6037 63.3372 36.7035C63.1392 34.7087 63.6341 34.21 65.7123 34.1103C66.3061 34.1103 66.9988 34.21 67.6916 34.21C67.5926 35.1077 67.5926 35.8058 67.5926 36.4043ZM63.2382 54.756C63.3372 54.4568 63.733 53.9581 64.1289 53.9581C65.2175 53.7586 66.4051 53.7586 67.4937 53.6589C67.4937 54.8557 67.4937 55.8531 67.4937 56.8505C66.1082 56.8505 64.7227 56.8505 63.1392 56.8505C63.2382 56.1523 63.1392 55.4541 63.2382 54.756ZM63.2382 52.5617C63.0403 50.4673 63.5351 50.0683 65.6133 49.9686C66.2071 49.9686 66.8999 50.0683 67.5926 50.0683C67.5926 50.8662 67.5926 51.5644 67.5926 52.1628C66.1082 52.3623 64.7227 52.462 63.2382 52.5617ZM63.2382 29.5224C63.1392 27.5276 63.5351 27.0289 65.5144 26.9292C66.1082 26.9292 66.8009 27.0289 67.4937 27.0289C67.4937 27.8268 67.4937 28.525 67.4937 29.1234C66.1082 29.3229 64.7227 29.4226 63.2382 29.5224ZM63.2382 25.9318C63.0403 24.1365 62.9413 23.5381 65.6133 23.4384C66.2071 23.4384 66.8999 23.5381 67.4937 23.5381C67.4937 24.336 67.4937 25.0342 67.4937 25.6326C66.1082 25.7323 64.7227 25.8321 63.2382 25.9318ZM54.8262 37.6011C54.8262 38.4988 54.8262 48.0736 54.8262 49.0709C52.3521 48.1733 49.878 38.5985 47.4039 37.7009V37.6011C49.878 37.6011 52.3521 37.6011 54.8262 37.6011ZM46.1174 36.2048C45.7215 36.2048 45.4246 36.2048 45.0288 36.2048C45.0288 34.3098 45.0288 32.5145 45.0288 30.7192C45.0288 29.3229 44.0391 28.126 42.7526 28.0263C41.2681 27.8268 39.8826 29.0237 39.8826 30.6195C39.8826 32.2153 39.8826 33.8111 39.8826 35.3072C39.8826 35.6064 39.8826 35.9056 39.8826 36.2048C39.4868 36.2048 39.1899 36.2048 38.794 36.2048C38.794 35.7061 38.893 35.2074 38.794 34.8085C38.6951 34.5093 38.3982 34.3098 38.1013 34.0106C37.9033 34.21 37.5075 34.5092 37.5075 34.7087C37.4085 35.1077 37.5075 35.6064 37.5075 36.2048C36.8147 36.2048 36.122 36.2048 35.5282 36.2048C35.5282 35.9056 35.5282 35.7061 35.5282 35.5066C35.4292 34.9082 35.8251 34.1103 34.8354 34.1103C33.8458 34.1103 34.2417 35.0079 34.1427 35.6064C34.1427 35.8058 34.1427 36.0053 34.1427 36.3045C33.4499 36.3045 32.8562 36.3045 32.1634 36.3045C32.1634 33.0132 32.1634 29.7218 32.1634 26.4305C39.0909 26.4305 46.0184 26.4305 53.0449 26.4305C53.0449 29.7218 53.0449 33.0132 53.0449 36.3045C52.3521 36.3045 51.7583 36.3045 50.9666 36.3045C50.9666 35.8058 51.0656 35.3071 50.9666 34.9082C50.8677 34.609 50.5708 34.4095 50.2739 34.1103C50.076 34.3098 49.7791 34.609 49.6801 34.9082C49.5811 35.3071 49.6801 35.8058 49.6801 36.4043C48.9873 36.4043 48.2946 36.4043 47.6018 36.4043C47.6018 35.9056 47.6018 35.5066 47.6018 35.0079C47.6018 34.5092 47.4039 34.1103 46.9091 34.21C46.6122 34.3098 46.4143 34.7087 46.3153 35.0079C46.0184 35.2074 46.1174 35.7061 46.1174 36.2048ZM41.2681 30.5197C41.2681 29.7218 41.7629 29.3229 42.5547 29.3229C43.3464 29.3229 43.7422 29.7218 43.7422 30.5197C43.7422 32.4148 43.7422 34.3098 43.7422 36.1051C42.8516 36.1051 42.1588 36.1051 41.2681 36.1051C41.2681 35.6064 41.2681 35.0079 41.2681 34.3098C41.2681 33.0132 41.1692 31.7166 41.2681 30.5197ZM42.0598 6.28352C43.6433 6.18379 44.8308 6.68247 45.2267 7.87932C43.4453 7.87932 41.565 7.87932 39.7837 7.87932C39.9816 7.08142 40.8723 6.38326 42.0598 6.28352ZM43.1484 11.1707C43.0495 10.8715 42.7526 10.672 42.5547 10.3728C42.3567 10.672 41.9609 10.8715 41.8619 11.1707C41.7629 11.5696 41.8619 11.9686 41.8619 12.3675C41.4661 12.3675 41.1692 12.4673 40.8723 12.4673C40.8723 11.4699 40.8723 10.4725 40.8723 9.37539C41.9609 9.37539 43.0495 9.37539 44.2371 9.37539C44.2371 10.3728 44.2371 11.3701 44.2371 12.4673C43.9402 12.4673 43.6433 12.4673 43.2474 12.3675C43.1484 11.9686 43.2474 11.4699 43.1484 11.1707ZM36.5178 15.7586C39.7837 13.2652 43.3464 12.9659 47.0081 14.7612C50.9666 16.756 52.649 20.3465 53.0449 24.735C52.3521 24.735 51.6594 24.735 51.0656 24.735C50.7687 23.2389 50.4718 21.6431 50.0759 20.2468C49.7791 19.3491 49.2842 18.4515 48.8884 17.5539C48.6905 17.1549 48.2946 16.6562 47.7998 17.0552C47.3049 17.4541 47.5029 17.8531 47.7998 18.252C48.8884 20.0473 49.6801 22.9397 49.5811 24.735C44.9298 24.735 40.3774 24.735 35.6272 24.735C35.7261 22.5407 36.2209 20.3465 37.3096 18.4515C37.4085 18.3518 37.4085 18.252 37.5075 18.0526C37.8044 17.6536 37.9033 17.2547 37.4085 16.9554C36.9137 16.6562 36.6168 16.9554 36.4189 17.3544C36.122 17.8531 35.7261 18.3518 35.6272 18.9502C35.0334 20.8452 34.6375 22.7402 34.0437 24.735C33.5489 24.735 32.9551 24.735 32.2624 24.735C32.2624 21.1444 33.5489 18.0526 36.5178 15.7586ZM30.0852 37.6011C32.5593 37.6011 35.0334 37.6011 37.5075 37.6011V37.7009C35.0334 38.5985 32.6582 48.1733 30.0852 49.0709C30.0852 48.0736 30.0852 38.5985 30.0852 37.6011ZM32.0644 49.0709C32.9551 48.3728 36.122 40.693 37.5075 39.2967C39.1899 37.6011 39.8826 37.2022 42.4557 37.2022C45.0288 37.2022 46.7112 38.0998 47.3049 38.798C50.6697 43.0867 50.9666 48.7717 54.3314 50.0683C54.3314 50.0683 37.1116 50.0683 30.0852 50.0683C30.0852 50.0683 31.1738 49.8688 32.0644 49.0709ZM30.0852 51.4646C38.2992 51.4646 46.5132 51.4646 54.8262 51.4646C54.8262 51.7638 54.8262 52.0631 54.8262 52.3623C46.6122 52.3623 38.2992 52.3623 30.0852 52.3623C30.0852 52.0631 30.0852 51.7638 30.0852 51.4646ZM53.9356 53.7586C53.9356 58.147 53.9356 62.5355 53.9356 66.924C53.0449 66.924 52.1542 66.924 51.1646 66.924C51.1646 62.5355 51.1646 58.147 51.1646 53.7586C52.1542 53.7586 53.0449 53.7586 53.9356 53.7586ZM49.7791 53.7586C49.7791 58.147 49.7791 62.4358 49.7791 66.924C48.6904 66.924 47.7008 66.924 46.5132 66.924C46.5132 62.5355 46.5132 58.2468 46.5132 53.7586C47.6018 53.7586 48.6904 53.7586 49.7791 53.7586ZM45.1277 53.7586C45.1277 58.147 45.1277 62.4358 45.1277 66.924C43.3464 66.924 41.664 66.924 39.8826 66.924C39.8826 62.5355 39.8826 58.147 39.8826 53.7586C41.565 53.7586 43.2474 53.7586 45.1277 53.7586ZM38.3982 53.7586C38.3982 58.147 38.3982 62.5355 38.3982 66.924C37.3096 66.924 36.3199 66.924 35.1323 66.924C35.1323 62.5355 35.1323 58.147 35.1323 53.7586C36.2209 53.7586 37.3096 53.7586 38.3982 53.7586ZM33.7468 53.7586C33.7468 58.147 33.7468 62.5355 33.7468 66.924C32.8562 66.924 31.9655 66.924 30.9758 66.924C30.9758 62.5355 30.9758 58.147 30.9758 53.7586C31.8665 53.7586 32.7572 53.7586 33.7468 53.7586ZM21.7722 7.38064C20.2877 7.38064 18.8032 7.38064 17.3188 7.38064C18.2094 5.78484 20.6835 5.78484 21.7722 7.38064ZM20.7825 8.8767C20.7825 9.97381 20.7825 11.1707 20.7825 12.3675C19.8918 12.3675 19.1001 12.3675 18.2094 12.3675C18.2094 11.2704 18.2094 10.0736 18.2094 8.8767C19.1001 8.8767 19.8918 8.8767 20.7825 8.8767ZM22.3659 13.7638C22.267 14.5617 21.8711 14.7612 21.1784 14.7612C20.0898 14.6615 19.0012 14.6615 17.9125 14.7612C17.2198 14.7612 16.8239 14.5617 16.725 13.7638C18.6053 13.7638 20.3867 13.7638 22.3659 13.7638ZM21.6732 56.8505C20.1887 56.8505 18.8032 56.8505 17.4177 56.8505C17.4177 55.8531 17.4177 54.8557 17.4177 53.7586C18.5063 53.7586 19.496 53.6589 20.5846 53.7586C21.3763 53.8583 21.8711 54.357 21.7722 55.2547C21.6732 55.7533 21.6732 56.252 21.6732 56.8505ZM21.6732 29.5224C20.1887 29.4226 18.8032 29.3229 17.3188 29.2232C17.3188 28.6247 17.3188 27.9266 17.3188 27.1287C18.3084 27.1287 19.1991 27.0289 20.1887 27.1287C21.3763 27.2284 21.5742 27.6274 21.5742 28.8242C21.6732 29.0237 21.6732 29.3229 21.6732 29.5224ZM20.3867 30.7192C21.4753 30.819 21.6732 31.2179 21.6732 32.315C21.6732 32.6142 21.6732 32.9134 21.6732 33.2127C20.1887 33.1129 18.8032 33.0132 17.3188 32.9134C17.3188 32.315 17.3188 31.6169 17.3188 30.7192C18.4074 30.7192 19.397 30.6195 20.3867 30.7192ZM21.6732 25.9318C20.1887 25.8321 18.8032 25.7323 17.4177 25.6326C17.4177 25.0342 17.4177 24.336 17.4177 23.4384C18.4074 23.4384 19.397 23.3386 20.3867 23.4384C21.5742 23.6379 21.7722 23.9371 21.7722 25.1339C21.6732 25.4331 21.6732 25.7323 21.6732 25.9318ZM17.3188 18.3518C17.3188 17.6536 17.3188 16.9554 17.3188 16.1575C18.7043 16.1575 20.0898 16.1575 21.5742 16.1575C21.5742 17.0552 21.5742 17.8531 21.5742 18.651C20.2877 18.5512 18.8032 18.4515 17.3188 18.3518ZM17.3188 34.3098C18.3084 34.3098 19.1991 34.21 20.0898 34.3098C21.3763 34.4095 21.6732 34.8085 21.6732 36.1051C21.6732 36.4043 21.6732 36.6037 21.6732 36.903C20.8815 36.8032 20.1887 36.6037 19.496 36.504C18.8032 36.4043 18.1105 36.504 17.4177 36.504C17.3188 35.8058 17.3188 35.1077 17.3188 34.3098ZM17.4177 37.9003C18.4074 37.9003 19.397 37.8006 20.3867 37.9003C21.6732 38.0998 21.8711 47.1759 21.6732 48.8715C20.2877 48.7717 18.9022 48.672 17.4177 48.5722C17.4177 48.0736 17.4177 38.798 17.4177 37.9003ZM17.4177 50.0683C18.3084 50.0683 19.298 49.9686 20.1887 50.0683C21.5742 50.2678 21.7722 50.567 21.7722 51.8636C21.7722 52.0631 21.7722 52.3623 21.7722 52.462C20.2877 52.3623 18.9022 52.2625 17.4177 52.1628C17.4177 51.6641 17.4177 50.9659 17.4177 50.0683ZM21.6732 21.3439C21.5742 21.6431 21.6732 22.0421 21.6732 22.2415C20.1887 22.1418 18.8032 22.0421 17.4177 21.9423C17.4177 21.3439 17.4177 20.6457 17.4177 19.8478C18.4074 19.8478 19.496 19.7481 20.4856 19.8478C21.2773 19.9476 21.8711 20.4463 21.6732 21.3439ZM11.4799 69.6169C10.1933 69.6169 9.00575 69.6169 7.71922 69.6169C7.71922 69.1182 7.71922 68.7192 7.71922 68.3203C7.71922 65.9266 7.71922 63.4331 7.71922 61.0394C7.71922 60.1418 8.21404 59.4436 9.00575 59.1444C9.79747 58.8452 10.6881 59.1444 11.183 59.8426C11.3809 60.1418 11.4799 60.441 11.4799 60.7402C11.4799 63.6326 11.4799 66.525 11.4799 69.6169ZM13.2612 67.5224C12.9643 68.0211 13.1623 68.819 13.0633 69.5171C12.9643 69.5171 12.9643 69.5171 12.8654 69.5171C12.8654 69.2179 12.7664 69.0184 12.7664 68.7192C12.7664 66.0263 12.7664 63.3334 12.7664 60.7402C12.7664 59.3439 12.0736 58.3465 10.7871 57.8478C9.59954 57.3491 8.41197 57.5486 7.42232 58.3465C6.53165 59.0447 6.33372 60.0421 6.33372 61.1392C6.33372 63.6326 6.33372 66.126 6.33372 68.5197C6.33372 68.819 6.33372 69.1182 6.33372 69.5171C5.8389 69.5171 5.542 69.5171 5.04718 69.5171C5.04718 68.9187 5.04718 68.3203 5.04718 67.7218C5.04718 65.4279 5.04718 63.1339 5.04718 60.84C5.04718 60.3413 4.94822 59.8426 4.35443 59.8426C3.76064 59.8426 3.66168 60.3413 3.66168 60.84C3.66168 63.4331 3.66168 65.9266 3.66168 68.5197C3.66168 68.819 3.66168 69.1182 3.66168 69.4174C3.26582 69.4174 2.86997 69.4174 2.57307 69.4174C2.57307 64.4305 2.57307 59.3439 2.57307 54.2573C6.9275 54.2573 11.3809 54.2573 15.9333 54.2573C15.9333 55.1549 15.9333 56.1523 15.9333 57.0499C15.9333 57.7481 16.2302 58.0473 16.9229 58.0473C18.6053 58.0473 20.2877 58.0473 22.069 58.0473C22.7618 58.0473 23.0587 57.7481 23.0587 57.0499C23.0587 56.0526 23.0587 54.9554 23.0587 53.8583C24.2463 53.6589 25.3349 53.5591 26.4235 53.3596C26.6214 53.3596 26.9183 53.3596 27.0173 53.1602C27.2152 52.9607 27.4131 52.5617 27.3142 52.3623C27.2152 52.1628 26.8193 51.9633 26.5224 51.9633C25.3349 52.0631 24.2463 52.2625 22.9597 52.3623C22.9597 50.4673 22.9597 40.0946 22.9597 38.1995C24.84 37.9003 26.6214 37.7009 28.6007 37.4016C28.6007 38.4988 28.6997 48.0736 28.6007 49.0709C28.6007 49.3701 27.9079 49.4699 27.611 49.7691C27.4131 49.9686 27.0173 50.3675 27.1162 50.4673C27.2152 50.7665 27.611 50.8662 27.9079 51.0657C28.0069 51.1654 28.2048 51.0657 28.3038 51.0657C28.4028 51.0657 28.5017 51.0657 28.6997 51.1654C28.6997 51.5644 28.6007 52.0631 28.6997 52.462C28.7986 52.861 29.0955 53.1602 29.2934 53.4594C29.3924 53.5591 29.5903 53.7586 29.5903 53.8583C29.5903 58.147 29.5903 62.336 29.5903 66.6247C27.71 66.6247 25.8297 66.6247 23.9494 66.6247C23.9494 65.2284 23.9494 63.7323 23.9494 62.336C23.9494 61.1392 23.8504 61.0394 22.6628 61.0394C20.4856 61.0394 18.4074 61.0394 16.2302 61.0394C15.4384 61.0394 15.1415 61.3386 15.1415 62.0368C15.1415 63.5329 15.1415 65.0289 15.1415 66.3255C14.4488 67.0237 13.5581 67.0237 13.2612 67.5224ZM24.4442 69.5171C21.1784 69.5171 17.9125 69.5171 14.6467 69.5171C14.6467 69.1182 14.6467 68.819 14.6467 68.42C14.7457 68.42 14.8446 68.3203 14.9436 68.3203C16.527 68.2205 16.527 68.2205 16.527 66.6247C16.527 65.3282 16.527 64.0316 16.527 62.6352C18.5063 62.6352 20.4856 62.6352 22.5639 62.6352C22.5639 63.9318 22.5639 65.3282 22.5639 66.8242C21.6732 66.8242 20.8815 66.8242 19.9908 66.8242C19.496 66.8242 19.0012 66.8242 18.9022 67.5224C18.9022 68.2205 19.397 68.2205 19.8918 68.2205C21.3763 68.2205 22.8608 68.2205 24.4442 68.2205C24.4442 68.819 24.4442 69.1182 24.4442 69.5171ZM59.0817 69.6169C47.9977 69.6169 37.0127 69.6169 25.9287 69.6169C25.9287 69.2179 25.9287 68.819 25.9287 68.42C37.0127 68.42 47.9977 68.42 59.0817 68.42C59.0817 68.819 59.0817 69.1182 59.0817 69.6169ZM70.3636 69.5171C67.0978 69.5171 63.832 69.5171 60.5662 69.5171C60.5662 69.1182 60.5662 68.819 60.5662 68.3203C61.2589 68.3203 61.9517 68.3203 62.6444 68.3203C63.2382 68.3203 63.832 68.42 64.4258 68.3203C65.0196 68.2205 66.2071 68.7192 66.1082 67.6221C66.1082 66.525 65.0196 67.0237 64.3268 67.0237C63.733 66.924 63.1392 67.0237 62.5455 67.0237C62.5455 65.6274 62.5455 64.231 62.5455 62.8347C64.5247 62.8347 66.504 62.8347 68.5823 62.8347C68.5823 64.231 68.5823 65.6274 68.5823 67.0237C68.5823 68.3203 68.6812 68.42 69.9678 68.42C70.1657 68.42 70.2647 68.42 70.5616 68.5197C70.3636 68.7192 70.3636 69.1182 70.3636 69.5171ZM77.1922 69.6169C75.9056 69.6169 74.7181 69.6169 73.4315 69.6169C73.4315 69.4174 73.3326 69.1182 73.3326 68.9187C73.3326 66.3255 73.3326 63.7323 73.3326 61.0394C73.3326 59.7429 74.0253 58.9449 75.2129 58.9449C76.4005 58.9449 77.0932 59.7428 77.1922 60.9397C77.1922 63.8321 77.1922 66.6247 77.1922 69.6169ZM82.3383 69.5171C81.9425 69.5171 81.6456 69.5171 81.1507 69.5171C81.1507 68.7192 81.1507 68.0211 81.1507 67.2232C81.1507 65.1287 81.1507 63.0342 81.1507 60.9397C81.1507 60.441 81.0518 59.9423 80.458 59.9423C79.8642 59.9423 79.7652 60.441 79.7652 60.9397C79.7652 63.5329 79.7652 66.0263 79.7652 68.6195C79.7652 68.9187 79.7652 69.2179 79.7652 69.5171C79.3694 69.5171 78.9735 69.5171 78.4787 69.5171C78.4787 69.2179 78.4787 68.9187 78.4787 68.6195C78.4787 66.126 78.4787 63.6326 78.4787 61.2389C78.4787 60.1418 78.1818 59.1444 77.3901 58.4463C76.4005 57.6484 75.2129 57.3491 74.0253 57.8478C72.7388 58.3465 72.046 59.3439 72.046 60.7402C72.046 63.4331 72.046 66.0263 72.046 68.7192C72.046 69.0184 72.046 69.3176 72.046 69.6169C71.9471 69.6169 71.8481 69.6169 71.7491 69.6169C71.7491 69.2179 71.7491 68.819 71.7491 68.42C71.7491 67.2232 71.6502 67.1234 70.4626 67.0237C70.2647 67.0237 70.1657 67.0237 69.8688 67.0237C69.8688 65.8268 69.8688 64.63 69.8688 63.4331C69.8688 61.3386 70.0667 61.4384 67.8895 61.4384C66.0092 61.4384 64.1289 61.4384 62.1496 61.4384C61.3579 61.4384 61.061 61.7376 61.061 62.5355C61.061 64.0316 61.061 65.5276 61.061 67.0237C59.1807 67.0237 57.3003 67.0237 55.42 67.0237C55.42 62.6352 55.42 58.3465 55.42 53.9581C56.8055 53.6589 56.0138 52.462 56.3107 51.5644C56.5086 51.5644 56.9045 51.5644 57.1024 51.4646C57.3993 51.3649 57.6962 51.1654 57.6962 50.9659C57.6962 50.7665 57.4983 50.2678 57.3003 50.2678C55.9148 50.0683 56.1128 49.0709 56.1128 48.0736C56.1128 47.5749 56.1128 38.399 56.1128 37.8006C57.9931 38.0998 59.8734 38.2993 61.7537 38.5985C61.7537 40.4935 61.7537 50.8662 61.7537 52.7612C60.6651 52.5617 59.5765 52.462 58.4879 52.3623C57.9931 52.2625 57.4983 52.2625 57.3993 52.9607C57.3993 53.5591 57.7952 53.6589 58.29 53.7586C59.3786 53.8583 60.5662 54.0578 61.7537 54.2573C61.7537 55.3544 61.7537 56.3518 61.7537 57.3491C61.7537 58.0473 62.0506 58.4463 62.7434 58.4463C64.4258 58.4463 66.1082 58.4463 67.8895 58.4463C68.5823 58.4463 68.8792 58.147 68.8792 57.4489C68.8792 56.5512 68.8792 55.5539 68.8792 54.6562C73.3326 54.6562 77.786 54.6562 82.2394 54.6562C82.3383 59.4436 82.3383 64.5302 82.3383 69.5171Z" fill="#D41028"/>
<path d="M42.4557 2.49341C42.7526 2.49341 43.0495 1.99472 43.4453 1.49604C42.9505 1.09709 42.7526 0.598399 42.4557 0.598399C41.7629 0.498661 41.7629 1.09709 41.7629 1.59577C41.7629 2.09446 41.8619 2.59315 42.4557 2.49341Z" fill="#D41028"/>
<path d="M65.4154 2.89259C66.0092 2.99232 66.1081 2.49364 66.1081 1.99495C66.1081 1.49626 66.0092 0.997572 65.4154 1.09731C65.1185 1.09731 64.8216 1.596 64.3268 1.99495C64.8216 2.3939 65.1185 2.89259 65.4154 2.89259Z" fill="#D41028"/>
<path d="M19.496 2.89259C19.7929 2.79285 20.0898 2.3939 20.4856 1.99495C19.9908 1.596 19.7929 1.19705 19.397 1.09731C18.9022 0.997572 18.8032 1.49626 18.8032 1.99495C18.8032 2.49364 18.9022 2.99232 19.496 2.89259Z" fill="#D41028"/>
<path d="M15.9332 60.4411C18.3083 60.5409 20.6835 60.5409 23.0586 60.4411C23.3555 60.4411 23.7514 60.0422 23.8503 59.8427C23.9493 59.344 23.5535 59.1445 23.0586 59.1445C21.8711 59.1445 20.6835 59.1445 19.4959 59.1445C18.3083 59.1445 17.1208 59.1445 15.9332 59.1445C15.4384 59.1445 15.0425 59.2443 15.1415 59.8427C15.2405 60.0422 15.6363 60.4411 15.9332 60.4411Z" fill="#D41028"/>
<path d="M27.809 59.3436C28.0069 59.1442 28.3038 58.8449 28.4028 58.5457C28.5017 58.1468 28.4028 57.7478 28.4028 57.3489C28.4028 56.9499 28.5017 56.4512 28.4028 56.0523C28.3038 55.7531 28.0069 55.5536 27.809 55.2544C27.611 55.4539 27.1162 55.6533 27.1162 55.9526C27.0173 56.8502 27.0173 57.6481 27.1162 58.5457C27.1162 58.9447 27.5121 59.1442 27.809 59.3436Z" fill="#D41028"/>
<path d="M25.038 59.344C25.2359 59.1445 25.6318 58.945 25.7308 58.6458C25.8297 58.2469 25.7308 57.7482 25.7308 57.3492C25.7308 56.9503 25.8297 56.5513 25.7308 56.1524C25.6318 55.8532 25.3349 55.6537 25.038 55.3545C24.8401 55.6537 24.4442 55.8532 24.4442 56.1524C24.3453 56.9503 24.3453 57.8479 24.4442 58.6458C24.5432 58.945 24.8401 59.1445 25.038 59.344Z" fill="#D41028"/>
<path d="M5.14612 57.0501C5.14612 56.5514 4.9482 56.1525 4.45337 56.2522C4.15648 56.3519 3.95855 56.7509 3.76062 57.0501C3.66166 57.3493 3.66166 57.6485 3.76062 57.9477C3.85959 58.247 4.15648 58.6459 4.35441 58.7456C4.84923 58.8454 5.04716 58.4464 5.04716 57.9477C5.04716 57.7483 5.04716 57.6485 5.04716 57.4491C5.14612 57.3493 5.14612 57.2496 5.14612 57.0501Z" fill="#D41028"/>
<path d="M65.5144 59.1442C64.3269 59.1442 63.1393 59.1442 61.9517 59.1442C61.4569 59.1442 61.061 59.2439 61.061 59.7426C61.061 60.341 61.4569 60.4408 61.9517 60.4408C64.2279 60.4408 66.603 60.4408 68.8792 60.4408C69.1761 60.4408 69.6709 60.0418 69.6709 59.7426C69.7699 59.2439 69.2751 59.0444 68.8792 59.0444C67.7906 59.1442 66.603 59.1442 65.5144 59.1442Z" fill="#D41028"/>
<path d="M57.8941 57.3492C57.8941 56.9503 57.993 56.4516 57.8941 56.0527C57.7951 55.7534 57.3993 55.6537 57.2013 55.3545C57.0034 55.554 56.6075 55.7534 56.6075 56.0527C56.5086 56.8506 56.5086 57.7482 56.6075 58.5461C56.6075 58.8453 57.0034 59.0448 57.2013 59.2443C57.3993 59.0448 57.7951 58.8453 57.8941 58.5461C57.993 58.2469 57.8941 57.7482 57.8941 57.3492Z" fill="#D41028"/>
<path d="M60.4672 57.4487C60.4672 56.95 60.5662 56.4513 60.4672 56.0524C60.4672 55.8529 60.0714 55.5537 59.8735 55.5537C59.6755 55.5537 59.2797 55.8529 59.2797 56.0524C59.1807 56.95 59.1807 57.9474 59.2797 58.8451C59.2797 59.0445 59.6755 59.3437 59.9724 59.3437C60.1703 59.3437 60.4672 59.0445 60.5662 58.7453C60.4672 58.3464 60.4672 57.8477 60.4672 57.4487Z" fill="#D41028"/>
<path d="M79.8643 57.9476C79.8643 58.4463 79.9632 58.8453 80.557 58.8453C81.0518 58.8453 81.2498 58.4463 81.2498 57.9476C81.2498 57.6484 81.3487 57.2495 81.2498 56.9502C81.1508 56.651 80.7549 56.4516 80.557 56.1523C80.3591 56.3518 80.0622 56.651 79.9632 56.8505C79.8643 56.9502 79.9632 57.2495 79.9632 57.4489C79.8643 57.6484 79.8643 57.8479 79.8643 57.9476Z" fill="#D41028"/>
<path d="M42.4557 23.3386C43.8412 23.3386 45.2267 22.042 45.2267 20.5459C45.2267 19.1496 43.9402 17.853 42.5547 17.853C41.1692 17.853 39.7837 19.1496 39.7837 20.6457C39.7837 22.042 41.0702 23.3386 42.4557 23.3386ZM42.4557 19.2494C43.2474 19.2494 43.8412 19.748 43.8412 20.6457C43.8412 21.5433 43.3464 22.042 42.4557 22.042C41.5651 22.042 41.0702 21.5433 41.0702 20.6457C41.1692 19.748 41.664 19.2494 42.4557 19.2494Z" fill="#D41028"/>
</svg>
