<svg width="1353" height="334" viewBox="0 0 1353 334" fill="none" xmlns="http://www.w3.org/2000/svg">
<path d="M1037.1 29.3999C1036.5 29.3999 1036.1 29.8999 1036.1 30.3999V32.7999C1036.1 33.3999 1036.6 33.7999 1037.1 33.7999C1037.7 33.7999 1038.1 33.2999 1038.1 32.7999V30.3999C1038.1 29.8999 1037.7 29.3999 1037.1 29.3999Z" fill="#3F539B"/>
<path d="M1034.4 27H1032C1031.4 27 1031 27.5 1031 28C1031 28.6 1031.5 29 1032 29H1034.4C1035 29 1035.4 28.5 1035.4 28C1035.4 27.5 1035 27 1034.4 27Z" fill="#3F539B"/>
<path d="M1037.1 22C1036.5 22 1036.1 22.5 1036.1 23V25.4C1036.1 26 1036.6 26.4 1037.1 26.4C1037.7 26.4 1038.1 25.9 1038.1 25.4V23C1038.1 22.5 1037.7 22 1037.1 22Z" fill="#3F539B"/>
<path d="M1042.2 26.7998H1039.8C1039.2 26.7998 1038.8 27.2998 1038.8 27.7998C1038.8 28.3998 1039.3 28.7998 1039.8 28.7998H1042.2C1042.8 28.7998 1043.2 28.2998 1043.2 27.7998C1043.3 27.2998 1042.8 26.7998 1042.2 26.7998Z" fill="#3F539B"/>
<path d="M1165.63 142.931C1162.17 142.931 1159.29 140.12 1159.29 136.589V136.013H1171.9V136.589C1171.98 140.12 1169.16 142.931 1165.63 142.931Z" fill="#303C63"/>
<path d="M1171.97 137.599H1159.28C1157.84 137.599 1156.76 136.446 1156.76 135.076V123.186H1174.57V135.076C1174.57 136.446 1173.42 137.599 1171.97 137.599Z" fill="#3F539B"/>
<path d="M1175.58 130.03H1155.75C1155.25 130.03 1154.82 129.598 1154.82 129.094C1154.82 128.589 1155.25 128.157 1155.75 128.157H1175.58C1176.09 128.157 1176.52 128.589 1176.52 129.094C1176.52 129.598 1176.09 130.03 1175.58 130.03Z" fill="#303C63"/>
<path d="M1175.58 133.849H1155.75C1155.25 133.849 1154.82 133.417 1154.82 132.912C1154.82 132.408 1155.25 131.976 1155.75 131.976H1175.58C1176.09 131.976 1176.52 132.408 1176.52 132.912C1176.52 133.417 1176.09 133.849 1175.58 133.849Z" fill="#303C63"/>
<path d="M1192.67 85.0638C1192.67 70.1468 1180.63 58.1123 1165.7 58.1123C1150.78 58.1123 1138.73 70.1468 1138.73 85.0638C1138.73 95.585 1144.72 104.665 1153.52 109.133V120.519C1153.52 123.69 1156.11 126.356 1159.36 126.356H1172.12C1175.29 126.356 1177.96 123.762 1177.96 120.519V109.133C1186.61 104.665 1192.67 95.585 1192.67 85.0638Z" fill="#FFDEE2"/>
<path d="M1158.93 126.789V107.332V96.4503C1158.93 95.2973 1160.3 94.7928 1161.09 95.5855L1163.25 97.7474L1164.77 96.3782C1165.27 95.9458 1165.99 95.9458 1166.5 96.3782L1168.01 97.7474L1170.17 95.5855C1170.97 94.7928 1172.34 95.3693 1172.34 96.4503V107.404V126.861" stroke="#000E40" stroke-width="2.0972" stroke-miterlimit="10" stroke-linecap="round" stroke-linejoin="round"/>
<path d="M1165.62 52.9244V43.4121" stroke="#000E40" stroke-width="2.0972" stroke-miterlimit="10" stroke-linecap="round" stroke-linejoin="round"/>
<path d="M1159.35 53.4289L1152.65 46.7271" stroke="#000E40" stroke-width="2.0972" stroke-miterlimit="10" stroke-linecap="round" stroke-linejoin="round"/>
<path d="M1171.97 53.4289L1178.67 46.7271" stroke="#000E40" stroke-width="2.0972" stroke-miterlimit="10" stroke-linecap="round" stroke-linejoin="round"/>
<path d="M1131.52 86.8657H1122" stroke="#000E40" stroke-width="2.0972" stroke-miterlimit="10" stroke-linecap="round" stroke-linejoin="round"/>
<path d="M1131.95 93.1333L1125.24 99.8351" stroke="#000E40" stroke-width="2.0972" stroke-miterlimit="10" stroke-linecap="round" stroke-linejoin="round"/>
<path d="M1131.95 80.5222L1125.24 73.8203" stroke="#000E40" stroke-width="2.0972" stroke-miterlimit="10" stroke-linecap="round" stroke-linejoin="round"/>
<path d="M1199.8 86.8623H1209.31" stroke="#000E40" stroke-width="2.0972" stroke-miterlimit="10" stroke-linecap="round" stroke-linejoin="round"/>
<path d="M1199.37 80.5236L1206.07 73.8218" stroke="#000E40" stroke-width="2.0972" stroke-miterlimit="10" stroke-linecap="round" stroke-linejoin="round"/>
<path d="M1199.37 93.1338L1206.07 99.8356" stroke="#000E40" stroke-width="2.0972" stroke-miterlimit="10" stroke-linecap="round" stroke-linejoin="round"/>
<path d="M1260.87 96.2354C1260.8 96.956 1260.73 97.6766 1260.59 98.3972C1260.08 101.928 1259.29 105.387 1258.28 108.63C1253.74 122.466 1243.42 132.843 1221.79 134.212C1217.25 134.501 1212.71 134.285 1208.24 133.78C1203.77 133.276 1199.37 132.483 1194.97 131.474" stroke="#96001C" stroke-width="2.0972" stroke-miterlimit="10" stroke-linecap="round" stroke-linejoin="round" stroke-dasharray="9.36 9.36"/>
<path d="M1299.16 86.7229C1274.72 90.6864 1255.11 90.6143 1240.83 86.7229C1226.55 82.7594 1217.61 74.9767 1214.66 63.4466C1211.7 51.9165 1222.44 44.2058 1234.27 43.0528C1260.37 41.4674 1261.53 76.0576 1261.6 82.9756" stroke="#96001C" stroke-width="2.0972" stroke-miterlimit="10" stroke-linecap="round" stroke-linejoin="round" stroke-dasharray="9.36 9.36"/>
<path d="M1347.98 56.0944L1346.68 51.4824L1342 57.896V60.5623L1328.3 77.6412L1328.08 77.4971C1327.65 77.2089 1327.07 77.1368 1326.57 77.1368C1324.83 77.1368 1323.39 78.5781 1323.39 80.3076C1323.39 82.0371 1324.83 83.4783 1326.57 83.4783C1328.3 83.4783 1329.74 82.0371 1329.74 80.3076C1329.74 79.7311 1329.59 79.1546 1329.23 78.6501L1329.09 78.4339L1344.3 62.508L1346.83 62.2198L1352.59 56.743L1347.98 56.0944Z" fill="#96001C"/>
<path d="M1338.9 69.2102C1341.49 72.0206 1343.01 75.7679 1343.01 79.8755C1343.01 88.6672 1335.87 95.8734 1327 95.8734C1318.2 95.8734 1310.99 88.7392 1310.99 79.8755C1310.99 71.0838 1318.13 63.8775 1327 63.8775C1330.46 63.8775 1333.63 64.9585 1336.23 66.8321L1339.26 63.0128C1335.8 60.4906 1331.61 59.0493 1327 59.0493C1315.53 59.0493 1306.16 68.4175 1306.16 79.8755C1306.16 91.3335 1315.53 100.702 1327 100.702C1338.46 100.702 1347.84 91.3335 1347.84 79.8755C1347.84 74.3987 1345.67 69.4264 1342.21 65.6791L1338.9 69.2102Z" fill="#3F539B"/>
<path d="M1333.2 75.1918C1334.21 76.4889 1334.86 78.1463 1334.86 79.9479C1334.86 84.1996 1331.4 87.7307 1327.07 87.7307C1322.82 87.7307 1319.28 84.2717 1319.28 79.9479C1319.28 75.6962 1322.74 72.1651 1327.07 72.1651C1328.59 72.1651 1329.96 72.5975 1331.11 73.3181L1334.14 69.4988C1332.12 68.1296 1329.67 67.3369 1327 67.3369C1320 67.3369 1314.38 73.0299 1314.38 79.9479C1314.38 86.866 1320.08 92.5589 1327 92.5589C1333.99 92.5589 1339.62 86.866 1339.62 79.9479C1339.62 76.7772 1338.46 73.8946 1336.52 71.6607L1333.2 75.1918Z" fill="#3F539B"/>
<path d="M127.497 47.5H103.697C103.097 47.5 102.697 48 102.697 48.5C102.697 49 103.197 49.5 103.697 49.5H127.497C128.097 49.5 128.497 49 128.497 48.5C128.497 48 128.097 47.5 127.497 47.5Z" fill="#3F539B"/>
<path d="M96.1977 47.5H91.5977C90.9977 47.5 90.5977 48 90.5977 48.5C90.5977 49.1 91.0977 49.5 91.5977 49.5H96.1977C96.7977 49.5 97.1977 49 97.1977 48.5C97.1977 47.9 96.7977 47.5 96.1977 47.5Z" fill="#3F539B"/>
<path d="M116.398 55.7002C116.398 56.3002 115.898 56.7002 115.398 56.7002H112.398C111.798 56.7002 111.398 56.2002 111.398 55.7002C111.398 55.1002 111.898 54.7002 112.398 54.7002H115.398C115.898 54.7002 116.398 55.2002 116.398 55.7002ZM108.198 55.7002C108.198 56.3002 107.698 56.7002 107.198 56.7002H101.998C101.398 56.7002 100.998 56.2002 100.998 55.7002C100.998 55.1002 101.498 54.7002 101.998 54.7002H107.198C107.698 54.7002 108.198 55.2002 108.198 55.7002ZM97.7977 55.7002C97.7977 56.3002 97.2977 56.7002 96.7977 56.7002H91.5977C90.9977 56.7002 90.5977 56.2002 90.5977 55.7002C90.5977 55.1002 91.0977 54.7002 91.5977 54.7002H96.7977C97.2977 54.7002 97.7977 55.2002 97.7977 55.7002Z" fill="#3F539B"/>
<path d="M141.5 136.001C141.5 138.001 143.1 139.701 145.2 139.701C147.2 139.701 148.9 138.101 148.9 136.001C148.9 134.001 147.3 132.301 145.2 132.301C143.2 132.301 141.5 133.901 141.5 136.001Z" fill="#3F539B"/>
<path d="M243.701 27C243.701 27 244.501 32.8 237.801 32.7C237.801 32.7 243.601 32.8 243.501 38.2C243.501 38.2 244.001 33.9 249.301 33C249.301 32.9 244.801 33.9 243.701 27Z" fill="#3F539B"/>
<path d="M212.398 76.3008H189.298C186.298 76.3008 183.898 73.9008 183.898 70.9008C183.898 68.0008 186.198 65.6008 189.098 65.5008C189.198 61.0008 192.898 57.3008 197.398 57.3008C200.198 57.3008 202.798 58.7008 204.298 61.1008C207.398 60.7008 210.198 62.6008 210.998 65.5008H212.398C215.398 65.5008 217.798 67.9008 217.798 70.9008C217.798 73.9008 215.398 76.3008 212.398 76.3008ZM189.298 67.1008C187.198 67.1008 185.498 68.8008 185.498 70.9008C185.498 73.0008 187.198 74.7008 189.298 74.7008H212.398C214.498 74.7008 216.198 73.0008 216.198 70.9008C216.198 68.8008 214.498 67.1008 212.398 67.1008H209.698L209.598 66.4008C209.198 63.9008 206.798 62.1008 204.098 62.8008L203.498 62.9008L203.198 62.4008C201.998 60.3008 199.798 59.0008 197.298 59.0008C193.598 59.0008 190.598 62.0008 190.598 65.7008C190.598 65.9008 190.598 66.1008 190.598 66.3008L190.698 67.2008H189.298V67.1008Z" fill="#3F539B"/>
<path d="M47.9 79.5992H45.6V77.2992C45.6 76.6992 45.1 76.1992 44.5 76.1992C43.9 76.1992 43.4 76.6992 43.4 77.2992V79.5992H41.1C40.5 79.5992 40 80.0992 40 80.6992C40 81.2992 40.5 81.7992 41.1 81.7992H43.4V84.0992C43.4 84.6992 43.9 85.1992 44.5 85.1992C45.1 85.1992 45.6 84.6992 45.6 84.0992V81.7992H47.9C48.5 81.7992 49 81.2992 49 80.6992C49 80.0992 48.5 79.5992 47.9 79.5992Z" fill="#3F539B"/>
<path d="M269.8 276.013C269.8 276.613 269.3 277.013 268.8 277.013H263.6C263 277.013 262.6 276.513 262.6 276.013C262.6 275.413 263.1 275.013 263.6 275.013H268.8C269.3 274.913 269.8 275.413 269.8 276.013ZM259.4 276.013C259.4 276.613 258.9 277.013 258.4 277.013H253.2C252.6 277.013 252.2 276.513 252.2 276.013C252.2 275.413 252.7 275.013 253.2 275.013H258.4C258.9 274.913 259.4 275.413 259.4 276.013ZM249 276.013C249 276.613 248.5 277.013 248 277.013H245C244.4 277.013 244 276.513 244 276.013C244 275.413 244.5 275.013 245 275.013H248C248.5 274.913 249 275.413 249 276.013Z" fill="#3F539B"/>
<path d="M200.9 218H177.1C176.5 218 176.1 218.5 176.1 219C176.1 219.6 176.6 220 177.1 220H200.9C201.5 220 201.9 219.5 201.9 219C202 218.5 201.5 218 200.9 218Z" fill="#3F539B"/>
<path d="M169.6 218H165C164.4 218 164 218.5 164 219C164 219.6 164.5 220 165 220H169.6C170.2 220 170.6 219.5 170.6 219C170.6 218.4 170.1 218 169.6 218Z" fill="#3F539B"/>
<path d="M189.7 226.3C189.7 226.9 189.2 227.3 188.7 227.3H185.7C185.1 227.3 184.7 226.8 184.7 226.3C184.7 225.7 185.2 225.3 185.7 225.3H188.7C189.3 225.2 189.7 225.7 189.7 226.3ZM181.6 226.3C181.6 226.9 181.1 227.3 180.6 227.3H175.4C174.8 227.3 174.4 226.8 174.4 226.3C174.4 225.7 174.9 225.3 175.4 225.3H180.6C181.1 225.2 181.6 225.7 181.6 226.3ZM171.2 226.3C171.2 226.9 170.7 227.3 170.2 227.3H165C164.4 227.3 164 226.8 164 226.3C164 225.7 164.5 225.3 165 225.3H170.2C170.7 225.2 171.2 225.7 171.2 226.3Z" fill="#3F539B"/>
<path d="M937.9 69H914.1C913.5 69 913.1 69.5 913.1 70C913.1 70.6 913.6 71 914.1 71H937.9C938.5 71 938.9 70.5 938.9 70C939 69.5 938.5 69 937.9 69Z" fill="#3F539B"/>
<path d="M906.6 69H902C901.4 69 901 69.5 901 70C901 70.6 901.5 71 902 71H906.6C907.2 71 907.6 70.5 907.6 70C907.6 69.4 907.1 69 906.6 69Z" fill="#3F539B"/>
<path d="M926.7 77.2999C926.7 77.8999 926.2 78.2999 925.7 78.2999H922.7C922.1 78.2999 921.7 77.7999 921.7 77.2999C921.7 76.6999 922.2 76.2999 922.7 76.2999H925.7C926.3 76.1999 926.7 76.6999 926.7 77.2999ZM918.6 77.2999C918.6 77.8999 918.1 78.2999 917.6 78.2999H912.4C911.8 78.2999 911.4 77.7999 911.4 77.2999C911.4 76.6999 911.9 76.2999 912.4 76.2999H917.6C918.1 76.1999 918.6 76.6999 918.6 77.2999ZM908.2 77.2999C908.2 77.8999 907.7 78.2999 907.2 78.2999H902C901.4 78.2999 901 77.7999 901 77.2999C901 76.6999 901.5 76.2999 902 76.2999H907.2C907.7 76.1999 908.2 76.6999 908.2 77.2999Z" fill="#3F539B"/>
<path d="M191.199 329.4C190.599 329.4 190.199 329.9 190.199 330.4V332.8C190.199 333.4 190.699 333.8 191.199 333.8C191.799 333.8 192.199 333.3 192.199 332.8V330.4C192.199 329.8 191.699 329.4 191.199 329.4Z" fill="#3F539B"/>
<path d="M188.4 327H186C185.4 327 185 327.5 185 328C185 328.6 185.5 329 186 329H188.4C189 329 189.4 328.5 189.4 328C189.5 327.4 189 327 188.4 327Z" fill="#3F539B"/>
<path d="M191.199 322C190.599 322 190.199 322.5 190.199 323V325.4C190.199 326 190.699 326.4 191.199 326.4C191.799 326.4 192.199 325.9 192.199 325.4V323C192.199 322.4 191.699 322 191.199 322Z" fill="#3F539B"/>
<path d="M196.3 326.8H193.9C193.3 326.8 192.9 327.3 192.9 327.8C192.9 328.4 193.4 328.8 193.9 328.8H196.3C196.9 328.8 197.3 328.3 197.3 327.8C197.3 327.3 196.9 326.8 196.3 326.8Z" fill="#3F539B"/>
<path d="M57.6 184C57.6 184 58.1 187.5 54 187.5C54 187.5 57.5 187.5 57.4 190.9C57.4 190.9 57.7 188.3 61 187.7C61 187.6 58.3 188.2 57.6 184Z" fill="#3F539B"/>
<path d="M659.8 225C659.8 225.6 659.3 226 658.8 226H653.6C653 226 652.6 225.5 652.6 225C652.6 224.4 653.1 224 653.6 224H658.8C659.4 224 659.8 224.4 659.8 225ZM649.4 225C649.4 225.6 648.9 226 648.4 226H643.2C642.6 226 642.2 225.5 642.2 225C642.2 224.4 642.7 224 643.2 224H648.4C649 224 649.4 224.4 649.4 225ZM639 225C639 225.6 638.5 226 638 226H635C634.4 226 634 225.5 634 225C634 224.4 634.5 224 635 224H638C638.6 224 639 224.4 639 225Z" fill="#3F539B"/>
<path d="M1081.4 151.2C1081.4 153.5 1079.5 155.4 1077.2 155.4C1074.9 155.4 1073 153.5 1073 151.2C1073 148.9 1074.9 147 1077.2 147C1079.5 147 1081.4 148.9 1081.4 151.2ZM1079.3 151.2C1079.3 150 1078.4 149.1 1077.2 149.1C1076 149.1 1075.1 150.1 1075.1 151.2C1075.1 152.4 1076.1 153.3 1077.2 153.3C1078.4 153.3 1079.3 152.4 1079.3 151.2Z" fill="#3F539B"/>
<path d="M784.1 269.4C783.5 269.4 783.1 269.9 783.1 270.4V272.8C783.1 273.4 783.6 273.8 784.1 273.8C784.7 273.8 785.1 273.3 785.1 272.8V270.4C785.1 269.9 784.7 269.4 784.1 269.4Z" fill="#3F539B"/>
<path d="M781.4 267H779C778.4 267 778 267.5 778 268C778 268.6 778.5 269 779 269H781.4C782 269 782.4 268.5 782.4 268C782.4 267.5 782 267 781.4 267Z" fill="#3F539B"/>
<path d="M784.1 262C783.5 262 783.1 262.5 783.1 263V265.4C783.1 266 783.6 266.4 784.1 266.4C784.7 266.4 785.1 265.9 785.1 265.4V263C785.1 262.5 784.7 262 784.1 262Z" fill="#3F539B"/>
<path d="M789.201 266.8H786.801C786.201 266.8 785.801 267.3 785.801 267.8C785.801 268.4 786.301 268.8 786.801 268.8H789.201C789.801 268.8 790.201 268.3 790.201 267.8C790.301 267.3 789.801 266.8 789.201 266.8Z" fill="#3F539B"/>
<path d="M1258.1 234.099H1281.9C1282.5 234.099 1282.9 233.599 1282.9 233.099C1282.9 232.499 1282.4 232.099 1281.9 232.099H1258.1C1257.5 232.099 1257.1 232.599 1257.1 233.099C1257 233.699 1257.5 234.099 1258.1 234.099Z" fill="#3F539B"/>
<path d="M1289.4 234.099H1294C1294.6 234.099 1295 233.599 1295 233.099C1295 232.499 1294.5 232.099 1294 232.099H1289.4C1288.8 232.099 1288.4 232.599 1288.4 233.099C1288.4 233.699 1288.9 234.099 1289.4 234.099Z" fill="#3F539B"/>
<path d="M1269.2 225.799C1269.2 225.199 1269.7 224.799 1270.2 224.799H1273.2C1273.8 224.799 1274.2 225.299 1274.2 225.799C1274.2 226.399 1273.7 226.799 1273.2 226.799H1270.2C1269.7 226.899 1269.2 226.399 1269.2 225.799ZM1277.4 225.799C1277.4 225.199 1277.9 224.799 1278.4 224.799H1283.6C1284.2 224.799 1284.6 225.299 1284.6 225.799C1284.6 226.399 1284.1 226.799 1283.6 226.799H1278.4C1277.9 226.899 1277.4 226.399 1277.4 225.799ZM1287.8 225.799C1287.8 225.199 1288.3 224.799 1288.8 224.799H1294C1294.6 224.799 1295 225.299 1295 225.799C1295 226.399 1294.5 226.799 1294 226.799H1288.8C1288.3 226.899 1287.8 226.399 1287.8 225.799Z" fill="#3F539B"/>
<path d="M727.9 311C727.9 311 728.7 316.8 722 316.7C722 316.7 727.8 316.8 727.7 322.2C727.7 322.2 728.2 317.9 733.5 317C733.5 316.9 729 317.9 727.9 311Z" fill="#3F539B"/>
<path d="M1231.3 285.5H1208.3C1205.3 285.5 1202.9 283.1 1202.9 280.1C1202.9 277.2 1205.2 274.8 1208.1 274.7C1208.2 270.2 1211.9 266.5 1216.4 266.5C1219.2 266.5 1221.8 267.9 1223.3 270.3C1226.4 269.9 1229.2 271.8 1230 274.7H1231.4C1234.4 274.7 1236.8 277.1 1236.8 280.1C1236.8 283.1 1234.3 285.5 1231.3 285.5ZM1208.3 276.4C1206.2 276.4 1204.5 278.1 1204.5 280.2C1204.5 282.3 1206.2 284 1208.3 284H1231.3C1233.4 284 1235.1 282.3 1235.1 280.2C1235.1 278.1 1233.4 276.4 1231.3 276.4H1228.6L1228.5 275.7C1228.1 273.2 1225.7 271.4 1223 272.1L1222.4 272.2L1222.1 271.7C1220.9 269.6 1218.7 268.3 1216.2 268.3C1212.5 268.3 1209.5 271.3 1209.5 275C1209.5 275.2 1209.5 275.4 1209.5 275.6L1209.6 276.5H1208.3V276.4Z" fill="#3F539B"/>
<path d="M1314.3 176H1291.2C1288.2 176 1285.8 173.6 1285.8 170.6C1285.8 167.7 1288.1 165.3 1291 165.2C1291.1 160.7 1294.8 157 1299.3 157C1302.1 157 1304.7 158.4 1306.2 160.8C1309.3 160.4 1312.1 162.3 1312.9 165.2H1314.3C1317.3 165.2 1319.7 167.6 1319.7 170.6C1319.7 173.6 1317.2 176 1314.3 176ZM1291.2 166.9C1289.1 166.9 1287.4 168.6 1287.4 170.7C1287.4 172.8 1289.1 174.5 1291.2 174.5H1314.3C1316.4 174.5 1318.1 172.8 1318.1 170.7C1318.1 168.6 1316.4 166.9 1314.3 166.9H1311.6L1311.5 166.2C1311.1 163.7 1308.7 161.9 1306 162.6L1305.4 162.7L1305.1 162.2C1303.9 160.1 1301.7 158.8 1299.2 158.8C1295.5 158.8 1292.5 161.8 1292.5 165.5C1292.5 165.7 1292.5 165.9 1292.5 166.1L1292.6 167H1291.2V166.9Z" fill="#3F539B"/>
<path d="M1286.3 316.099H1284V313.799C1284 313.199 1283.5 312.699 1282.9 312.699C1282.3 312.699 1281.8 313.199 1281.8 313.799V316.099H1279.5C1278.9 316.099 1278.4 316.599 1278.4 317.199C1278.4 317.799 1278.9 318.299 1279.5 318.299H1281.8V320.599C1281.8 321.199 1282.3 321.699 1282.9 321.699C1283.5 321.699 1284 321.199 1284 320.599V318.299H1286.3C1286.9 318.299 1287.4 317.799 1287.4 317.199C1287.4 316.599 1286.9 316.099 1286.3 316.099Z" fill="#3F539B"/>
<path d="M1129.9 271.8H1127.6V269.5C1127.6 268.9 1127.1 268.4 1126.5 268.4C1125.9 268.4 1125.4 268.9 1125.4 269.5V271.8H1123.1C1122.5 271.8 1122 272.3 1122 272.9C1122 273.5 1122.5 274 1123.1 274H1125.4V276.3C1125.4 276.9 1125.9 277.4 1126.5 277.4C1127.1 277.4 1127.6 276.9 1127.6 276.3V274H1129.9C1130.5 274 1131 273.5 1131 272.9C1131 272.3 1130.5 271.8 1129.9 271.8Z" fill="#3F539B"/>
<path d="M1310.9 3.39999H1308.6V1.09999C1308.6 0.499991 1308.1 0 1307.5 0C1306.9 0 1306.4 0.499991 1306.4 1.09999V3.39999H1304.1C1303.5 3.39999 1303 3.9 1303 4.5C1303 5.1 1303.5 5.59999 1304.1 5.59999H1306.4V7.89999C1306.4 8.49999 1306.9 9 1307.5 9C1308.1 9 1308.6 8.49999 1308.6 7.89999V5.59999H1310.9C1311.5 5.59999 1312 5.1 1312 4.5C1312 3.9 1311.5 3.39999 1310.9 3.39999Z" fill="#3F539B"/>
<path d="M881 3.7C881 5.7 882.6 7.39999 884.7 7.39999C886.7 7.39999 888.4 5.8 888.4 3.7C888.4 1.7 886.8 0 884.7 0C882.7 0 881 1.6 881 3.7Z" fill="#3F539B"/>
<path d="M93.8535 290.57C93.8535 290.57 64.8443 305.535 42.3604 288.442C19.8765 271.348 26.4727 256.312 34.3456 250.85C42.2895 245.389 52.7867 255.815 44.4173 268.582C36.0479 281.278 -5.58633 293.903 -38 253.617" stroke="#96001C" stroke-width="2.0972" stroke-miterlimit="10" stroke-linecap="round" stroke-linejoin="round" stroke-dasharray="9.36 9.36"/>
<path d="M100.735 256.454C101.161 248.723 107.615 242.552 115.488 242.552C123.645 242.552 130.241 249.148 130.241 257.305V259.929L135.773 265.391L130.241 270.923V273.051C130.241 279.009 126.695 284.186 121.517 286.527V289.932H100.665V273.051V257.305L100.735 256.454Z" fill="#3F539B"/>
<path d="M106.836 267.728C102.1 262.992 102.1 255.313 106.836 250.576C111.573 245.84 119.252 245.84 123.988 250.576C128.725 255.313 128.725 262.992 123.988 267.728C119.252 272.465 111.573 272.465 106.836 267.728Z" fill="#FFDEE2"/>
<path d="M110.949 257.589H114.141V254.397C114.141 253.546 114.85 252.908 115.63 252.908C116.481 252.908 117.12 253.617 117.12 254.397V257.589H120.311C121.162 257.589 121.801 258.298 121.801 259.078C121.801 259.929 121.092 260.568 120.311 260.568H117.12V263.76C117.12 264.611 116.41 265.249 115.63 265.249C114.779 265.249 114.141 264.54 114.141 263.76V260.568H110.949C110.098 260.568 109.459 259.859 109.459 259.078C109.389 258.298 110.098 257.589 110.949 257.589Z" fill="#96001C"/>
</svg>
