<svg width="202" height="209" viewBox="0 0 202 209" fill="none" xmlns="http://www.w3.org/2000/svg">
<path d="M117.57 150H192.57C198.093 150 202.57 145.523 202.57 140V12C202.57 6.47715 198.093 2 192.57 2H31.5703C26.0475 2 21.5703 6.47715 21.5703 12V67.5" stroke="#D41028" stroke-width="4"/>
<line x1="22.5703" y1="31" x2="201.57" y2="31" stroke="#D41028" stroke-width="4"/>
<rect x="35.5703" y="16" width="4" height="4" fill="#D41028"/>
<rect x="48.5703" y="16" width="4" height="4" fill="#D41028"/>
<rect x="35.5703" y="42" width="4" height="4" fill="#D41028"/>
<rect x="48.5703" y="42" width="44" height="4" fill="#D41028"/>
<rect x="35.5703" y="55" width="57" height="4" fill="#D41028"/>
<rect x="35.5703" y="68" width="57" height="4" fill="#D41028"/>
<rect x="118.57" y="113" width="71" height="4" fill="#D41028"/>
<rect x="118.57" y="126" width="58" height="4" fill="#D41028"/>
<rect x="183.57" y="126" width="6" height="4" fill="#D41028"/>
<rect x="61.5703" y="16" width="4" height="4" fill="#D41028"/>
<rect x="102.57" y="44" width="84" height="58" stroke="#D41028" stroke-width="4"/>
<circle cx="122.07" cy="63.5" r="6.5" stroke="#D41028" stroke-width="4"/>
<path d="M103.07 89H121.57C127.57 88.8333 135.57 90 143.07 80.5C149.07 72.9 156.57 69 161.57 69C166.57 69 172.07 70 175.57 73.5C179.07 77 185.57 83.5 186.57 83" stroke="#D41028" stroke-width="4"/>
<path d="M128.148 176.052L128.263 176.453L128.53 176.775L140.314 191.015C140.328 191.059 140.343 191.11 140.359 191.167C140.435 191.45 140.519 191.871 140.529 192.38C140.548 193.366 140.299 194.743 139.052 196.198C138.094 197.316 136.801 197.613 135.522 197.564C134.888 197.54 134.315 197.429 133.897 197.321C133.759 197.285 133.64 197.251 133.546 197.222L119.313 185.933L118.986 185.674L118.583 185.567L96.8963 179.818L28.5965 111.518C21.6625 104.584 21.6625 93.3419 28.5965 86.4078C35.5306 79.4737 46.7729 79.4737 53.707 86.4078L122.022 154.723L128.148 176.052Z" stroke="#D41028" stroke-width="4"/>
<rect x="15.3987" y="118.059" width="13.0542" height="59.6869" rx="6.52711" transform="rotate(-45 15.3987 118.059)" stroke="#D41028" stroke-width="4"/>
<line x1="87.1561" y1="169.091" x2="111.661" y2="144.586" stroke="#D41028" stroke-width="4"/>
<path d="M5.5245 76.6812C5.52466 76.6826 5.52464 76.6825 5.52447 76.6809L5.5245 76.6812ZM5.49668 76.0392C5.49623 75.967 5.49649 75.8893 5.49774 75.8065C5.50684 75.1995 5.56835 74.3308 5.78048 73.323C6.20407 71.3108 7.21554 68.7912 9.5784 66.6412C12.0065 64.4318 14.2832 63.6948 15.885 63.4746C16.6969 63.3629 17.3539 63.3819 17.7891 63.4238C17.8281 63.4276 17.8653 63.4315 17.9006 63.4355L34.6461 80.1811L22.1423 92.6849L5.49668 76.0392Z" stroke="#D41028" stroke-width="4"/>
</svg>
