<svg width="18" height="18" viewBox="0 0 18 18" fill="none" xmlns="http://www.w3.org/2000/svg">
<g clip-path="url(#clip0)">
<path d="M16.0606 0H1.9395C0.86998 0 0 0.86998 0 1.9395V12.2838C0 13.3532 0.86998 14.2232 1.9395 14.2232H6.41478L7.89684 17.1874C8.15501 17.7038 8.55711 18 9 18C9.44289 18 9.84499 17.7038 10.1032 17.1874L11.5854 14.2232H16.0606C17.13 14.2232 18 13.3532 18 12.2838V1.9395C18 0.86998 17.13 0 16.0606 0V0ZM16.9453 12.2838C16.9453 12.7716 16.5484 13.1685 16.0606 13.1685H11.2595C11.0597 13.1685 10.8772 13.2814 10.7878 13.46L9.15985 16.7157C9.09421 16.847 9.03255 16.9115 9 16.9362C8.96745 16.9115 8.90579 16.847 8.84015 16.7157L7.21225 13.46C7.12299 13.2814 6.94034 13.1685 6.74066 13.1685H1.9395C1.45157 13.1685 1.05469 12.7716 1.05469 12.2838V1.9395C1.05469 1.45157 1.45157 1.05469 1.9395 1.05469H16.0606C16.5484 1.05469 16.9453 1.45157 16.9453 1.9395V12.2838Z" fill="#141414"/>
</g>
<defs>
<clipPath id="clip0">
<rect width="18" height="18" fill="white"/>
</clipPath>
</defs>
</svg>
