<svg width="104" height="52" viewBox="0 0 104 52" fill="none" xmlns="http://www.w3.org/2000/svg">
<path d="M67.7943 35.2979L46.0628 12.6022L45.6586 12.617L38.9839 12.801L39.1339 19.4212L39.1351 19.7612L60.8066 42.394L60.8249 41.9499L60.8447 36.9672C60.8428 36.0556 61.5876 35.3118 62.5048 35.3099L67.3075 35.3034L67.7943 35.2979Z" fill="#F0F0F0"/>
<path d="M69.2909 36.9544L62.5078 36.9633L62.4818 43.583L62.4756 43.9873C66.7951 47.6746 72.2518 49.6901 77.9884 49.6901C81.8861 49.6901 85.6409 48.7665 89 47.0236L88.556 46.9178L84.0693 46.0399C83.1683 45.8692 82.5744 45.0017 82.7461 44.1061L83.7571 38.8547L83.8179 38.4877C82.045 39.3085 80.0696 39.7671 77.9884 39.7671C74.9236 39.7671 71.9963 38.7773 69.5939 36.953L69.2909 36.9544Z" fill="#F0F0F0"/>
<path d="M89.866 5.44889C86.2921 3.4008 82.2247 2.30994 77.9886 2.30994C71.7822 2.30994 65.9052 4.66812 61.44 8.95002L61.3634 9.02353L61.0565 9.34644L61.3573 9.36364L66.2068 9.45121C67.1239 9.47006 67.8548 10.2269 67.8362 11.1383L67.718 16.4369L67.7146 16.7914L68.4434 16.0232C71.029 13.5782 74.4147 12.2329 77.9886 12.2329C79.9799 12.2329 81.8744 12.6527 83.5873 13.4079L83.9111 13.3918L90.6818 12.6028L89.9388 6.00763L89.866 5.44889Z" fill="#F0F0F0"/>
<path d="M85.7276 37.4128C89.4131 34.9363 91.8405 30.7446 91.8405 25.9999C91.8405 21.395 89.5541 17.3111 86.0502 14.8104L86.3511 14.7725L90.8763 14.2452C91.7873 14.1382 92.441 13.3143 92.3334 12.4088L91.7335 7.07998L91.6913 6.60864C92.8052 7.38949 93.8595 8.27106 94.8431 9.24864C99.3452 13.7231 101.825 19.6722 101.825 26C101.825 32.3279 99.3452 38.2771 94.8431 42.7514C93.7177 43.87 92.4994 44.8631 91.2056 45.7232L90.6917 45.6506L84.3806 44.4162L85.6689 37.7257L85.7276 37.4128Z" fill="#F0F0F0"/>
<path d="M44.5138 10.9844L42.6226 9.00923L42.5442 8.93423C38.0811 4.6625 32.2099 2.30994 26.0121 2.30994C19.6453 2.30994 13.6596 4.77421 9.15754 9.24862C8.48005 9.92198 7.84847 10.6286 7.26416 11.365L7.35843 11.7041L8.99938 18.1329L15.5745 16.5115L16.1088 16.3834C18.6255 13.824 22.1355 12.233 26.0121 12.233C29.5802 12.233 32.9618 13.5745 35.5459 16.0127L37.4254 17.9754L37.4243 17.3921L37.3218 12.8482C37.2956 11.9369 38.0203 11.174 38.9373 11.148L44.1287 11.0048L44.5138 10.9844Z" fill="#F0F0F0"/>
<path d="M13.7912 32.4779C16.1266 36.8122 20.7285 39.7672 26.0117 39.7673C29.5856 39.7673 32.9714 38.4218 35.557 35.9767L39.1307 32.1945L39.37 32.1873L46.2928 32.2271L46.2892 38.742L46.2865 39.2105L42.6371 42.9765L42.5603 43.0501C38.0951 47.332 32.2181 49.6902 26.0118 49.6902C19.645 49.6902 13.6593 47.2259 9.15724 42.7514C7.36645 40.9717 5.89572 38.9585 4.77368 36.7809L5.14392 36.8749L10.4669 38.2937C11.3532 38.5292 12.2671 38.0038 12.504 37.123L13.6516 32.9578L13.7912 32.4779Z" fill="#F0F0F0"/>
<path d="M12.7385 29.9424C12.3622 28.693 12.1599 27.3696 12.1599 26C12.1599 23.2463 12.9775 20.6788 14.3842 18.5249L13.87 18.635L9.40943 19.7348C8.52035 19.9596 7.61264 19.4238 7.38642 18.5403L6.14616 13.6809L5.99116 13.1292C3.50764 16.9285 2.17603 21.3625 2.17603 26C2.17603 29.0777 2.7625 32.0657 3.88295 34.8382L4.49689 34.9901L10.8975 36.6963L12.6303 30.4061L12.7385 29.9424Z" fill="#F0F0F0"/>
<path d="M59.3428 25.6154L66.0054 18.5929L66.0094 18.4078L66.1722 11.1045L59.7146 10.9881L59.4935 10.9909L52.354 18.504L44.6221 26.3826L40.6954 30.5385L41.0143 30.5436L46.2922 30.5742C47.2095 30.5741 47.9565 31.3157 47.9567 32.2275L47.9541 37.0499L47.9604 37.4833L51.6885 33.6364L59.3428 25.6154Z" fill="#F0F0F0"/>
<path d="M20.5278 29.5784V24.6019H22.0591C22.4966 24.6019 22.8874 24.701 23.2314 24.8992C23.5778 25.0952 23.8478 25.3755 24.0415 25.7401C24.2352 26.1024 24.332 26.5148 24.332 26.9774V27.2064C24.332 27.6689 24.2363 28.0802 24.0449 28.4402C23.8558 28.8003 23.5881 29.0794 23.2417 29.2776C22.8953 29.4759 22.5046 29.5762 22.0693 29.5784H20.5278ZM21.5532 25.4324V28.7547H22.0488C22.4499 28.7547 22.7563 28.6237 22.9683 28.3616C23.1802 28.0996 23.2884 27.7248 23.293 27.2371V26.9739C23.293 26.4681 23.1882 26.0853 22.9785 25.8255C22.7689 25.5635 22.4624 25.4324 22.0591 25.4324H21.5532Z" fill="#F0F0F0"/>
<path d="M26.7178 29.6468C26.1755 29.6468 25.7334 29.4804 25.3916 29.1478C25.0521 28.8151 24.8823 28.3719 24.8823 27.8182V27.7225C24.8823 27.3511 24.9541 27.0195 25.0977 26.7278C25.2412 26.4339 25.444 26.2083 25.7061 26.0511C25.9704 25.8916 26.2712 25.8118 26.6084 25.8118C27.1143 25.8118 27.5119 25.9713 27.8013 26.2903C28.0929 26.6094 28.2388 27.0617 28.2388 27.6473V28.0506H25.8838C25.9157 28.2921 26.0114 28.4858 26.1709 28.6317C26.3327 28.7775 26.5366 28.8504 26.7827 28.8504C27.1632 28.8504 27.4606 28.7125 27.6748 28.4368L28.1602 28.9803C28.012 29.1899 27.8115 29.354 27.5586 29.4725C27.3057 29.5887 27.0254 29.6468 26.7178 29.6468ZM26.605 26.6116C26.409 26.6116 26.2495 26.6777 26.1265 26.8099C26.0057 26.942 25.9282 27.1312 25.894 27.3773H27.2681V27.2986C27.2635 27.0799 27.2043 26.9113 27.0903 26.7928C26.9764 26.672 26.8146 26.6116 26.605 26.6116Z" fill="#F0F0F0"/>
<path d="M30.1392 28.3719L30.8262 25.8802H31.8584L30.6108 29.5784H29.6675L28.4199 25.8802H29.4521L30.1392 28.3719Z" fill="#F0F0F0"/>
<path d="M76.3423 27.2029C76.3423 27.6929 76.2557 28.1224 76.0825 28.4915C75.9093 28.8607 75.661 29.1455 75.3374 29.346C75.0161 29.5465 74.647 29.6468 74.23 29.6468C73.8175 29.6468 73.4495 29.5477 73.126 29.3494C72.8024 29.1512 72.5518 28.8686 72.374 28.5018C72.1963 28.1326 72.1063 27.7088 72.104 27.2303V26.9842C72.104 26.4943 72.1917 26.0636 72.3672 25.6922C72.5449 25.3185 72.7944 25.0325 73.1157 24.8343C73.4393 24.6338 73.8084 24.5335 74.2231 24.5335C74.6379 24.5335 75.0059 24.6338 75.3271 24.8343C75.6507 25.0325 75.9002 25.3185 76.0757 25.6922C76.2534 26.0636 76.3423 26.4931 76.3423 26.9808V27.2029ZM75.3032 26.9774C75.3032 26.4555 75.2098 26.0591 75.0229 25.7879C74.8361 25.5167 74.5695 25.3812 74.2231 25.3812C73.8791 25.3812 73.6136 25.5156 73.4268 25.7845C73.2399 26.0511 73.1453 26.443 73.1431 26.9603V27.2029C73.1431 27.7111 73.2365 28.1053 73.4233 28.3856C73.6102 28.6658 73.8791 28.806 74.23 28.806C74.5741 28.806 74.8384 28.6715 75.0229 28.4026C75.2075 28.1315 75.3009 27.7373 75.3032 27.22V26.9774Z" fill="#F0F0F0"/>
<path d="M80.3516 27.7635C80.3516 28.3332 80.2217 28.79 79.9619 29.1341C79.7044 29.4759 79.3558 29.6468 78.916 29.6468C78.5423 29.6468 78.2404 29.5169 78.0103 29.2571V31.0003H77.0225V25.8802H77.9385L77.9727 26.2425C78.2119 25.9554 78.5241 25.8118 78.9092 25.8118C79.3649 25.8118 79.7192 25.9804 79.9722 26.3177C80.2251 26.6549 80.3516 27.1198 80.3516 27.7122V27.7635ZM79.3638 27.6917C79.3638 27.3476 79.3022 27.0822 79.1792 26.8953C79.0584 26.7085 78.8818 26.6151 78.6494 26.6151C78.3395 26.6151 78.1265 26.7335 78.0103 26.9705V28.4847C78.131 28.7285 78.3464 28.8504 78.6562 28.8504C79.1279 28.8504 79.3638 28.4642 79.3638 27.6917Z" fill="#F0F0F0"/>
<path d="M82.9697 28.5565C82.9697 28.4357 82.9093 28.3411 82.7886 28.2728C82.6701 28.2021 82.4787 28.1395 82.2144 28.0848C81.3348 27.9002 80.895 27.5265 80.895 26.9637C80.895 26.6356 81.0306 26.3621 81.3018 26.1434C81.5752 25.9223 81.9318 25.8118 82.3716 25.8118C82.841 25.8118 83.2158 25.9223 83.4961 26.1434C83.7786 26.3644 83.9199 26.6515 83.9199 27.0047H82.9321C82.9321 26.8634 82.8866 26.7472 82.7954 26.6561C82.7043 26.5626 82.5618 26.5159 82.3682 26.5159C82.2018 26.5159 82.0731 26.5535 81.9819 26.6287C81.8908 26.7039 81.8452 26.7996 81.8452 26.9158C81.8452 27.0252 81.8965 27.1141 81.999 27.1824C82.1038 27.2485 82.2793 27.3066 82.5254 27.3568C82.7715 27.4046 82.9788 27.4593 83.1475 27.5208C83.6693 27.7122 83.9302 28.0438 83.9302 28.5154C83.9302 28.8527 83.7855 29.1261 83.4961 29.3358C83.2067 29.5431 82.833 29.6468 82.375 29.6468C82.0651 29.6468 81.7894 29.5921 81.5479 29.4827C81.3086 29.3711 81.1206 29.2195 80.9839 29.0281C80.8472 28.8345 80.7788 28.626 80.7788 28.4026H81.7153C81.7244 28.5781 81.7894 28.7125 81.9102 28.806C82.0309 28.8994 82.1927 28.9461 82.3955 28.9461C82.5846 28.9461 82.7271 28.9108 82.8228 28.8401C82.9207 28.7672 82.9697 28.6727 82.9697 28.5565Z" fill="#F0F0F0"/>
</svg>
