<svg width="24" height="24" viewBox="0 0 24 24" fill="none" xmlns="http://www.w3.org/2000/svg">
<path d="M23.3124 11.7232C22.9304 11.7232 22.6248 12.0288 22.6248 12.4108V18.6655C22.6248 20.3667 21.2394 21.747 19.5433 21.747H4.45671C2.75552 21.747 1.37521 20.3616 1.37521 18.6655V12.3089C1.37521 11.9269 1.06961 11.6213 0.687606 11.6213C0.305603 11.6213 0 11.9269 0 12.3089V18.6655C0 21.1256 2.0017 23.1222 4.45671 23.1222H19.5433C22.0034 23.1222 24 21.1205 24 18.6655V12.4108C24 12.0339 23.6944 11.7232 23.3124 11.7232Z" fill="white"/>
<path d="M11.5181 17.6616C11.6505 17.794 11.8288 17.8653 12.002 17.8653C12.1751 17.8653 12.3534 17.7991 12.4858 17.6616L16.856 13.2915C17.1259 13.0215 17.1259 12.5886 16.856 12.3186C16.586 12.0487 16.1531 12.0487 15.8831 12.3186L12.6896 15.5173V1.56651C12.6896 1.18451 12.384 0.878906 12.002 0.878906C11.62 0.878906 11.3144 1.18451 11.3144 1.56651V15.5173L8.11573 12.3186C7.84578 12.0487 7.41284 12.0487 7.14289 12.3186C6.87294 12.5886 6.87294 13.0215 7.14289 13.2915L11.5181 17.6616Z" fill="white"/>
</svg>
