<svg width="28" height="32" viewBox="0 0 28 32" fill="none" xmlns="http://www.w3.org/2000/svg">
<path d="M15.3498 24.3764C15.6022 24.0826 15.7714 23.7129 15.8365 23.3132C15.9016 22.9134 15.8597 22.5012 15.7159 22.1277C15.5721 21.7543 15.3329 21.4359 15.0278 21.2121C14.7227 20.9884 14.3652 20.8691 13.9997 20.8691C13.6342 20.8691 13.2767 20.9884 12.9716 21.2121C12.6665 21.4359 12.4273 21.7543 12.2835 22.1277C12.1397 22.5012 12.0978 22.9134 12.1629 23.3132C12.228 23.7129 12.3972 24.0826 12.6496 24.3764C12.2108 24.6449 11.8447 25.0393 11.5897 25.5185C11.3347 25.9977 11.2 26.5442 11.1997 27.1009V27.6196C11.1997 27.7571 11.2489 27.889 11.3364 27.9863C11.4239 28.0836 11.5426 28.1382 11.6664 28.1382H16.333C16.4568 28.1382 16.5755 28.0836 16.663 27.9863C16.7505 27.889 16.7997 27.7571 16.7997 27.6196V27.1009C16.7994 26.5442 16.6647 25.9977 16.4097 25.5185C16.1547 25.0393 15.7886 24.6449 15.3498 24.3764ZM13.0664 22.9517C13.0664 22.7465 13.1211 22.546 13.2237 22.3754C13.3262 22.2048 13.472 22.0719 13.6425 21.9934C13.8131 21.9149 14.0007 21.8943 14.1818 21.9343C14.3628 21.9744 14.5291 22.0732 14.6597 22.2182C14.7902 22.3633 14.8791 22.5481 14.9151 22.7493C14.9511 22.9506 14.9326 23.1591 14.862 23.3487C14.7913 23.5382 14.6717 23.7002 14.5182 23.8142C14.3647 23.9282 14.1843 23.989 13.9997 23.989C13.7522 23.989 13.5148 23.8797 13.3397 23.6852C13.1647 23.4907 13.0664 23.2268 13.0664 22.9517ZM12.133 27.1009C12.133 26.5507 12.3297 26.023 12.6798 25.6339C13.0298 25.2449 13.5046 25.0263 13.9997 25.0263C14.4948 25.0263 14.9696 25.2449 15.3196 25.6339C15.6697 26.023 15.8664 26.5507 15.8664 27.1009H12.133Z" fill="#999999"/>
<path d="M13.5329 8.42981H12.5996V9.4671H13.5329V8.42981Z" fill="#999999"/>
<path d="M15.4006 8.42981H14.4673V9.4671H15.4006V8.42981Z" fill="#999999"/>
<path d="M13.5329 10.5044H12.5996V11.5417H13.5329V10.5044Z" fill="#999999"/>
<path d="M15.4006 10.5044H14.4673V11.5417H15.4006V10.5044Z" fill="#999999"/>
<path d="M27.5333 12.0604H27.0667V10.5044C27.0667 10.3669 27.0175 10.2349 26.93 10.1377C26.8425 10.0404 26.7238 9.98576 26.6 9.98576V8.42981C26.6 8.29225 26.5508 8.16033 26.4633 8.06306C26.3758 7.9658 26.2571 7.91115 26.1333 7.91115H25.6667V6.3552H24.7333V7.91115H24.2667C24.1429 7.91115 24.0242 7.9658 23.9367 8.06306C23.8492 8.16033 23.8 8.29225 23.8 8.42981V9.98576C23.6762 9.98576 23.5575 10.0404 23.47 10.1377C23.3825 10.2349 23.3333 10.3669 23.3333 10.5044V10.5205C21.5231 7.83393 18.8471 6.03088 15.8667 5.48957V4.79924C15.8667 4.66169 15.8175 4.52977 15.73 4.4325C15.6425 4.33523 15.5238 4.28059 15.4 4.28059V2.72463C15.4 2.58708 15.3508 2.45516 15.2633 2.35789C15.1758 2.26062 15.0571 2.20598 14.9333 2.20598H14.4667V0.650024H13.5333V2.20598H13.0667C12.9429 2.20598 12.8242 2.26062 12.7367 2.35789C12.6492 2.45516 12.6 2.58708 12.6 2.72463V4.28059C12.4762 4.28059 12.3575 4.33523 12.27 4.4325C12.1825 4.52977 12.1333 4.66169 12.1333 4.79924V5.49112C9.1529 6.03243 6.47689 7.83549 4.66667 10.522V10.5044C4.66667 10.3669 4.6175 10.2349 4.52998 10.1377C4.44247 10.0404 4.32377 9.98576 4.2 9.98576V8.42981C4.2 8.29225 4.15083 8.16033 4.06332 8.06306C3.9758 7.9658 3.8571 7.91115 3.73333 7.91115H3.26667V6.3552H2.33333V7.91115H1.86667C1.7429 7.91115 1.6242 7.9658 1.53668 8.06306C1.44917 8.16033 1.4 8.29225 1.4 8.42981V9.98576C1.27623 9.98576 1.15753 10.0404 1.07002 10.1377C0.9825 10.2349 0.933333 10.3669 0.933333 10.5044V12.0604H0.466667C0.342899 12.0604 0.2242 12.115 0.136683 12.2123C0.0491665 12.3095 0 12.4415 0 12.579V22.9521C0 23.0896 0.0491665 23.2215 0.136683 23.3188C0.2242 23.4161 0.342899 23.4707 0.466667 23.4707H3.3194C4.22458 25.7826 5.7175 27.7504 7.61486 29.1325C9.51222 30.5146 11.7314 31.2509 14 31.2509C16.2686 31.2509 18.4878 30.5146 20.3851 29.1325C22.2825 27.7504 23.7754 25.7826 24.6806 23.4707H27.5333C27.6571 23.4707 27.7758 23.4161 27.8633 23.3188C27.9508 23.2215 28 23.0896 28 22.9521V12.579C28 12.4415 27.9508 12.3095 27.8633 12.2123C27.7758 12.115 27.6571 12.0604 27.5333 12.0604ZM24.2667 11.0231H26.1333V12.0604H24.2667V11.0231ZM24.7333 8.94846H25.6667V9.98576H24.7333V8.94846ZM14.4667 16.7282H13.5333V15.1723C13.5333 15.0347 13.5825 14.9028 13.67 14.8055C13.7575 14.7083 13.8762 14.6536 14 14.6536C14.1238 14.6536 14.2425 14.7083 14.33 14.8055C14.4175 14.9028 14.4667 15.0347 14.4667 15.1723V16.7282ZM14 13.6163C13.6287 13.6163 13.2726 13.7803 13.0101 14.0721C12.7475 14.3639 12.6 14.7596 12.6 15.1723V16.7282H12.1333V7.3925H15.8667V16.7282H15.4V15.1723C15.4 14.7596 15.2525 14.3639 14.9899 14.0721C14.7274 13.7803 14.3713 13.6163 14 13.6163ZM13.0667 5.31789H14.9333V6.3552H13.0667V5.31789ZM13.5333 3.24329H14.4667V4.28059H13.5333V3.24329ZM2.33333 8.94846H3.26667V9.98576H2.33333V8.94846ZM1.86667 11.0231H3.73333V12.0604H1.86667V11.0231ZM0.933333 13.0977H4.66667V22.4334H4.2V20.8775C4.19846 20.483 4.06219 20.1039 3.81875 19.8169C3.57531 19.5299 3.24286 19.3563 2.88867 19.3314C2.8588 19.3293 2.83033 19.3215 2.8 19.3215C2.4287 19.3215 2.0726 19.4854 1.81005 19.7772C1.5475 20.069 1.4 20.4648 1.4 20.8775V22.4334H0.933333V13.0977ZM2.33333 20.8775C2.33333 20.7399 2.3825 20.608 2.47002 20.5107C2.55753 20.4134 2.67623 20.3588 2.8 20.3588C2.92377 20.3588 3.04247 20.4134 3.12998 20.5107C3.2175 20.608 3.26667 20.7399 3.26667 20.8775V22.4334H2.33333V20.8775ZM14 30.2132C11.9809 30.2199 10.0015 29.5899 8.2916 28.3965C6.58171 27.203 5.21148 25.495 4.34 23.4707H5.13333C5.2571 23.4707 5.3758 23.4161 5.46332 23.3188C5.55083 23.2215 5.6 23.0896 5.6 22.9521V12.579C5.6 12.4415 5.55083 12.3095 5.46332 12.2123C5.3758 12.115 5.2571 12.0604 5.13333 12.0604H4.85333C6.28963 9.45826 8.56725 7.56547 11.2191 6.77012C11.2096 6.80387 11.2032 6.83863 11.2 6.87385V17.2469C11.2 17.3844 11.2492 17.5164 11.3367 17.6136C11.4242 17.7109 11.5429 17.7655 11.6667 17.7655H16.3333C16.4571 17.7655 16.5758 17.7109 16.6633 17.6136C16.7508 17.5164 16.8 17.3844 16.8 17.2469V6.87385C16.797 6.83776 16.7906 6.80212 16.7809 6.76753C19.4331 7.56351 21.7108 9.45728 23.1467 12.0604H22.8667C22.7429 12.0604 22.6242 12.115 22.5367 12.2123C22.4492 12.3095 22.4 12.4415 22.4 12.579V22.9521C22.4 23.0896 22.4492 23.2215 22.5367 23.3188C22.6242 23.4161 22.7429 23.4707 22.8667 23.4707H23.66C22.7885 25.495 21.4183 27.203 19.7084 28.3965C17.9985 29.5899 16.0191 30.2199 14 30.2132ZM24.7333 22.4334V20.8775C24.7333 20.7399 24.7825 20.608 24.87 20.5107C24.9575 20.4134 25.0762 20.3588 25.2 20.3588C25.3238 20.3588 25.4425 20.4134 25.53 20.5107C25.6175 20.608 25.6667 20.7399 25.6667 20.8775V22.4334H24.7333ZM27.0667 22.4334H26.6V20.8775C26.6 20.4648 26.4525 20.069 26.1899 19.7772C25.9274 19.4854 25.5713 19.3215 25.2 19.3215C25.1678 19.3215 25.1379 19.3298 25.1067 19.3319C24.7531 19.3574 24.4215 19.5312 24.179 19.8181C23.9364 20.1051 23.8009 20.4837 23.8 20.8775V22.4334H23.3333V13.0977H27.0667V22.4334Z" fill="#999999"/>
<path d="M24.7336 14.135H23.8003V15.1723H24.7336V14.135Z" fill="#999999"/>
<path d="M26.5999 14.135H25.6665V15.1723H26.5999V14.135Z" fill="#999999"/>
<path d="M24.7336 16.2096H23.8003V17.2469H24.7336V16.2096Z" fill="#999999"/>
<path d="M26.5999 16.2096H25.6665V17.2469H26.5999V16.2096Z" fill="#999999"/>
<path d="M2.33371 14.135H1.40039V15.1723H2.33371V14.135Z" fill="#999999"/>
<path d="M4.19992 14.135H3.2666V15.1723H4.19992V14.135Z" fill="#999999"/>
<path d="M2.33371 16.2096H1.40039V17.2469H2.33371V16.2096Z" fill="#999999"/>
<path d="M4.19992 16.2096H3.2666V17.2469H4.19992V16.2096Z" fill="#999999"/>
</svg>
