<svg width="28" height="32" viewBox="0 0 28 32" fill="none" xmlns="http://www.w3.org/2000/svg">
<path d="M6.0662 13.2091H2.33288C2.07481 13.2091 1.86621 13.4415 1.86621 13.7278V15.8024C1.86621 16.0887 2.07481 16.321 2.33288 16.321H6.0662C6.32427 16.321 6.53287 16.0887 6.53287 15.8024V13.7278C6.53287 13.4415 6.32427 13.2091 6.0662 13.2091ZM2.79954 14.2464H3.73287V15.2837H2.79954V14.2464ZM5.59954 15.2837H4.6662V14.2464H5.59954V15.2837Z" fill="#999999"/>
<path d="M6.0662 17.3579H2.33288C2.07481 17.3579 1.86621 17.5903 1.86621 17.8766V19.9512C1.86621 20.2375 2.07481 20.4698 2.33288 20.4698H6.0662C6.32427 20.4698 6.53287 20.2375 6.53287 19.9512V17.8766C6.53287 17.5903 6.32427 17.3579 6.0662 17.3579ZM2.79954 18.3952H3.73287V19.4325H2.79954V18.3952ZM5.59954 19.4325H4.6662V18.3952H5.59954V19.4325Z" fill="#999999"/>
<path d="M6.0662 21.5074H2.33288C2.07481 21.5074 1.86621 21.7398 1.86621 22.0261V24.1008C1.86621 24.3871 2.07481 24.6194 2.33288 24.6194H6.0662C6.32427 24.6194 6.53287 24.3871 6.53287 24.1008V22.0261C6.53287 21.7398 6.32427 21.5074 6.0662 21.5074ZM2.79954 22.5448H3.73287V23.5821H2.79954V22.5448ZM5.59954 23.5821H4.6662V22.5448H5.59954V23.5821Z" fill="#999999"/>
<path d="M19.1332 16.321H22.8665C23.1246 16.321 23.3332 16.0887 23.3332 15.8024V13.7278C23.3332 13.4415 23.1246 13.2091 22.8665 13.2091H19.1332C18.8751 13.2091 18.6665 13.4415 18.6665 13.7278V15.8024C18.6665 16.0887 18.8751 16.321 19.1332 16.321ZM22.3999 15.2837H21.4665V14.2464H22.3999V15.2837ZM19.5998 14.2464H20.5332V15.2837H19.5998V14.2464Z" fill="#999999"/>
<path d="M19.1332 12.1716H22.8665C23.1246 12.1716 23.3332 11.9392 23.3332 11.6529V9.57834C23.3332 9.29205 23.1246 9.05969 22.8665 9.05969H19.1332C18.8751 9.05969 18.6665 9.29205 18.6665 9.57834V11.6529C18.6665 11.9392 18.8751 12.1716 19.1332 12.1716ZM22.3999 11.1343H21.4665V10.097H22.3999V11.1343ZM19.5998 10.097H20.5332V11.1343H19.5998V10.097Z" fill="#999999"/>
<path d="M9.80016 18.3958H11.6668C11.9249 18.3958 12.1335 18.1635 12.1335 17.8772V15.8026C12.1335 15.5163 11.9249 15.2839 11.6668 15.2839H9.80016C9.5421 15.2839 9.3335 15.5163 9.3335 15.8026V17.8772C9.3335 18.1635 9.5421 18.3958 9.80016 18.3958ZM10.2668 16.3212H11.2002V17.3585H10.2668V16.3212Z" fill="#999999"/>
<path d="M13.5336 18.3958H15.4002C15.6583 18.3958 15.8669 18.1635 15.8669 17.8772V15.8026C15.8669 15.5163 15.6583 15.2839 15.4002 15.2839H13.5336C13.2755 15.2839 13.0669 15.5163 13.0669 15.8026V17.8772C13.0669 18.1635 13.2755 18.3958 13.5336 18.3958ZM14.0002 16.3212H14.9336V17.3585H14.0002V16.3212Z" fill="#999999"/>
<path d="M9.80016 14.2463H11.6668C11.9249 14.2463 12.1335 14.014 12.1335 13.7277V11.6531C12.1335 11.3668 11.9249 11.1344 11.6668 11.1344H9.80016C9.5421 11.1344 9.3335 11.3668 9.3335 11.6531V13.7277C9.3335 14.014 9.5421 14.2463 9.80016 14.2463ZM10.2668 12.1717H11.2002V13.209H10.2668V12.1717Z" fill="#999999"/>
<path d="M13.5336 14.2463H15.4002C15.6583 14.2463 15.8669 14.014 15.8669 13.7277V11.6531C15.8669 11.3668 15.6583 11.1344 15.4002 11.1344H13.5336C13.2755 11.1344 13.0669 11.3668 13.0669 11.6531V13.7277C13.0669 14.014 13.2755 14.2463 13.5336 14.2463ZM14.0002 12.1717H14.9336V13.209H14.0002V12.1717Z" fill="#999999"/>
<path d="M9.80016 10.0968H11.6668C11.9249 10.0968 12.1335 9.86447 12.1335 9.57817V7.50352C12.1335 7.21722 11.9249 6.98486 11.6668 6.98486H9.80016C9.5421 6.98486 9.3335 7.21722 9.3335 7.50352V9.57817C9.3335 9.86447 9.5421 10.0968 9.80016 10.0968ZM10.2668 8.02219H11.2002V9.05951H10.2668V8.02219Z" fill="#999999"/>
<path d="M13.5336 10.0968H15.4002C15.6583 10.0968 15.8669 9.86447 15.8669 9.57817V7.50352C15.8669 7.21722 15.6583 6.98486 15.4002 6.98486H13.5336C13.2755 6.98486 13.0669 7.21722 13.0669 7.50352V9.57817C13.0669 9.86447 13.2755 10.0968 13.5336 10.0968ZM14.0002 8.02219H14.9336V9.05951H14.0002V8.02219Z" fill="#999999"/>
<path d="M9.80016 24.6194H11.6668C11.9249 24.6194 12.1335 24.3871 12.1335 24.1008V22.0261C12.1335 21.7398 11.9249 21.5074 11.6668 21.5074H9.80016C9.5421 21.5074 9.3335 21.7398 9.3335 22.0261V24.1008C9.3335 24.3871 9.5421 24.6194 9.80016 24.6194ZM10.2668 22.5448H11.2002V23.5821H10.2668V22.5448Z" fill="#999999"/>
<path d="M2.79953 25.657H1.86621V26.6943H2.79953V25.657Z" fill="#999999"/>
<path d="M4.66675 25.657H3.7334V26.6943H4.66675V25.657Z" fill="#999999"/>
<path d="M6.53296 25.657H5.59961V26.6943H6.53296V25.657Z" fill="#999999"/>
<path d="M27.5333 19.4328H25.2V7.50383C25.2 7.21754 24.9914 6.98518 24.7333 6.98518H21.4667V6.1626L21.9571 5.61749C22.3655 5.95462 22.8466 6.13303 23.3333 6.13303C23.926 6.13303 24.5187 5.88253 24.9704 5.38099L25.0637 5.27674C25.2457 5.07395 25.2457 4.74616 25.0633 4.54388L23.9932 3.35461L25.0633 2.16534L24.4034 1.43197L23.3333 2.62124L21.7966 0.913318C21.7093 0.815811 21.5908 0.761353 21.4667 0.761353C21.2795 0.761353 21.1671 0.874937 21.0919 0.951179C20.6309 1.42108 20.3695 2.06576 20.3565 2.76542C20.3429 3.46612 20.5907 4.1523 21.0369 4.64761L21.2735 4.91057L20.6701 5.58119C20.5823 5.67818 20.5333 5.81043 20.5333 5.94788V6.98518H17.7333V5.42922C17.7333 5.14293 17.5247 4.91057 17.2667 4.91057H15.6333L12.9733 0.968814C12.7974 0.707413 12.4026 0.707413 12.2267 0.968814L9.56667 4.91057H7.93333C7.67527 4.91057 7.46667 5.14293 7.46667 5.42922V11.1344H4.66667V6.98518H3.73333V11.1344H0.466667C0.2086 11.1344 0 11.3668 0 11.6531V31.3618C0 31.6481 0.2086 31.8805 0.466667 31.8805H7.93333H11.2H14.9333H15.4H18.2H25.6667C26.9533 31.8805 28 30.7172 28 29.2872V19.9515C28 19.6652 27.7914 19.4328 27.5333 19.4328ZM21.4877 2.03672L24.0445 4.87841C23.5144 5.23265 22.8139 5.15538 22.3571 4.64813L21.6972 3.91424C21.4265 3.6129 21.2814 3.21302 21.2898 2.78773C21.2949 2.51855 21.3612 2.26337 21.4877 2.03672ZM12.6 2.1446L14.4667 4.91057H10.7333L12.6 2.1446ZM0.933333 12.1717H7.46667V30.8432H0.933333V12.1717ZM8.4 11.6531V5.94788H16.8V7.50383V16.8396H17.7333V8.02248H24.2667V19.4328H23.3333V18.9142C23.3333 18.0563 22.7052 17.3582 21.9333 17.3582H19.1333C18.3615 17.3582 17.7333 18.0563 17.7333 18.9142V19.4328H13.5333C13.2753 19.4328 13.0667 19.6652 13.0667 19.9515V25.6567H9.33333V26.694H10.7333V30.8432H8.4V11.6531ZM22.4 19.4328H18.6667V18.9142C18.6667 18.6284 18.8757 18.3955 19.1333 18.3955H21.9333C22.1909 18.3955 22.4 18.6284 22.4 18.9142V19.4328ZM11.6667 26.694H13.0667V29.2872C13.0667 29.8733 13.2491 30.4086 13.5455 30.8432H11.6667V26.694ZM25.6667 30.8432H18.2H15.4C14.6281 30.8432 14 30.1451 14 29.2872V24.0872C14.3911 24.4166 14.8727 24.6194 15.4 24.6194H15.8667V26.1753C15.8667 26.4616 16.0753 26.694 16.3333 26.694H18.2C18.4581 26.694 18.6667 26.4616 18.6667 26.1753V24.6194H19.1333H21.9333H22.4V26.1753C22.4 26.4616 22.6086 26.694 22.8667 26.694H24.7333C24.9914 26.694 25.2 26.4616 25.2 26.1753V24.6194H25.6667C26.194 24.6194 26.6756 24.4166 27.0667 24.0872V29.2872C27.0667 30.1451 26.4385 30.8432 25.6667 30.8432ZM23.3333 24.6194H24.2667V25.6567H23.3333V24.6194ZM21.4667 23.5821H19.6V22.5448H21.4667V23.5821ZM16.8 24.6194H17.7333V25.6567H16.8V24.6194ZM25.6667 23.5821H24.7333H22.8667H22.4V22.0261C22.4 21.7398 22.1914 21.5074 21.9333 21.5074H19.1333C18.8753 21.5074 18.6667 21.7398 18.6667 22.0261V23.5821H18.2H16.3333H15.4C14.6281 23.5821 14 22.8839 14 22.0261V20.4701H27.0667V22.0261C27.0667 22.8839 26.4385 23.5821 25.6667 23.5821Z" fill="#999999"/>
<path d="M26.133 28.7687H25.1997V29.806H26.133V28.7687Z" fill="#999999"/>
<path d="M24.2668 28.7687H23.3335V29.806H24.2668V28.7687Z" fill="#999999"/>
<path d="M22.4006 28.7687H21.4673V29.806H22.4006V28.7687Z" fill="#999999"/>
</svg>
