<svg width="24" height="24" viewBox="0 0 24 24" fill="none" xmlns="http://www.w3.org/2000/svg">
<g clip-path="url(#clip0_1620_7360)">
<path d="M24 12.1334C24 5.46676 18.6667 0.133423 12 0.133423C5.33333 0.133423 0 5.46676 0 12.1334C0 18.1334 4.4 23.0668 10.1333 24.0001V15.6001H7.06667V12.1334H10.1333V9.46676C10.1333 6.40009 11.8667 4.80009 14.6667 4.80009C16 4.80009 17.3333 5.06676 17.3333 5.06676V8.00009H15.8667C14.4 8.00009 13.8667 8.93342 13.8667 9.86676V12.1334H17.2L16.6667 15.6001H13.8667V24.0001C19.6 23.0668 24 18.0001 24 12.1334Z" fill="#3B5998"/>
</g>
<defs>
<clipPath id="clip0_1620_7360">
<rect width="24" height="24" fill="white"/>
</clipPath>
</defs>
</svg>
