<svg width="86" height="90" viewBox="0 0 86 90" fill="none" xmlns="http://www.w3.org/2000/svg">
<g clip-path="url(#clip0)">
<path d="M63.5 48.5V46.5M63.5 48.5V53.5M63.5 48.5H81.5M63.5 85.5H84V80M63.5 85.5H58M63.5 85.5V69M21.5 48.5V46.5M21.5 48.5V53.5M21.5 48.5H3.5M21.5 85.5H1V80M21.5 85.5H27M21.5 85.5V69M21.5 41V46.5M21.5 41H18.5L23 38.9375M21.5 41H30.5M63.5 41V46.5M63.5 41H66.5L62 38.9375M63.5 41H54.5M63.5 46.5H55.125M21.5 46.5H30M30.5 41L42.5 36L54.5 41M30.5 41H54.5M21.5 67.5H63.5M21.5 67.5V53.5M21.5 67.5V69M63.5 67.5V53.5M63.5 67.5V69M42.5 85.5V73.5M42.5 85.5H51M42.5 85.5H34M51 85.5V73.5M51 85.5H58M34 85.5V73.5M34 85.5H27M27 85.5V75M58 85.5V75M30 46.5V71M30 46.5H38.5M38.5 46.5V71M38.5 46.5H46.75M46.75 46.5V71M46.75 46.5H55.125M55.125 46.5V71M26 54V60.5M34 60.5V52.5M42.5 60.5V52.5M51 60.5V52.5M59 60.5V54M1 53.5V48.5H3.5M1 53.5H21.5M1 53.5V69M63.5 53.5H84M84 53.5V48.5H81.5M84 53.5V69M63.5 69H70.5M84 69V80M84 69H77.5M1 69V80M1 69H7.5M21.5 69H14.5M1 80H84M3.5 44V48.5M81.5 44V48.5M70.5 58V60.5M77.5 58V60.5M77.5 63.5V69M77.5 69H70.5M70.5 63.5V69M14.5 58V60.5M7.5 58V60.5M14.5 63.5V69M14.5 69H7.5M7.5 63.5V69M62 34.5V38.9375M62 38.9375L53.5 35.0417M23 34.5V38.9375M23 38.9375L31.5 35.0417M7.5 73.5V75.5M14.5 73.5V75.5M70.5 73.5V75.5M77.5 73.5V75.5M31.5 35.0417V23.5M31.5 35.0417L35.5 33.2083M31.5 17.5V23.5M31.5 17.5H36.5M31.5 17.5C31.5 15.8959 33.1842 12.8883 39.5 12.1612M53.5 17.5V23.5M53.5 17.5H48.5M53.5 17.5C53.5 15.8959 51.8158 12.8883 45.5 12.1612M53.5 35.0417V23.5M53.5 35.0417L49.5 33.2083M31.5 23.5H27.5M31.5 23.5H35.5M53.5 23.5H57.5M53.5 23.5H49.5M35.5 33.2083L42.5 30L49.5 33.2083M35.5 33.2083V23.5M35.5 23.5H49.5M49.5 33.2083V23.5M42.5 12C46.9 12 48.3333 15.6667 48.5 17.5M42.5 12C38 12 37 15.6667 36.5 17.5M42.5 12C41.3997 12 40.4025 12.0573 39.5 12.1612M42.5 12C43.6003 12 44.5975 12.0573 45.5 12.1612M48.5 17.5H36.5M39.5 12.1612V6.5H42.5M45.5 12.1612V6.5H42.5M42.5 6.5V1.5" stroke="#D41028" stroke-width="1.5" stroke-linecap="round"/>
<path d="M84.7135 88.4302H0.791715C0.395857 88.4302 0 88.7314 0 89.2334C0 89.7354 0.296893 90.0366 0.791715 90.0366H84.8124C85.2083 90.0366 85.6041 89.7354 85.6041 89.2334C85.6041 88.7314 85.1093 88.4302 84.7135 88.4302Z" fill="#D41028"/>
</g>
<defs>
<clipPath id="clip0">
<rect width="86" height="90" fill="white"/>
</clipPath>
</defs>
</svg>
