<svg width="28" height="38" viewBox="0 0 28 38" fill="none" xmlns="http://www.w3.org/2000/svg">
<path d="M26.3199 21.3091C25.5863 21.312 24.9396 21.8446 24.7236 22.6237L21.2799 19.7533V10.1063C21.2799 7.82521 19.3018 4.73698 15.2326 0.665951C14.5285 -0.0256947 13.4711 -0.0256947 12.767 0.665951C8.69798 4.73698 6.71992 7.82521 6.71992 10.1063V19.7533L3.27632 22.6237C3.03233 21.742 2.24431 21.1918 1.4238 21.3302C0.603296 21.4686 -0.00242084 22.2539 7.27412e-06 23.1763V35.6239C7.27412e-06 36.6551 0.752133 37.4911 1.68 37.4911C2.60787 37.4911 3.36 36.6552 3.36 35.6239V35.3127L6.71998 32.5119V33.4456C6.71998 33.9685 6.95623 34.4622 9.52 34.764V35.9351C9.52 37.3397 12.6531 37.491 14 37.491C15.347 37.491 18.48 37.3397 18.48 35.9351V34.7642C21.0438 34.4619 21.28 33.9683 21.28 33.4456V32.5119L24.64 35.3127V35.6239C24.64 36.6551 25.3921 37.4911 26.32 37.4911C27.2479 37.4911 28 36.6552 28 35.6239V23.1763C27.9988 22.1456 27.2473 21.3103 26.3199 21.3091ZM2.23991 23.7986V35.6239C2.23991 35.9676 1.98923 36.2462 1.67994 36.2462C1.37065 36.2462 1.11996 35.9676 1.11996 35.6239V23.1763C1.11996 22.8325 1.37065 22.5539 1.67994 22.5539C1.98923 22.5539 2.23991 22.8325 2.23991 23.1763V23.7986ZM6.71992 30.9561L3.35993 33.7568V24.1099L6.71992 21.3091V30.9561ZM13.5159 1.59106C13.7956 1.32974 14.2038 1.32974 14.4836 1.59106C18.5174 5.62709 19.8079 8.05831 20.0913 9.48391H7.90851C8.19188 8.05831 9.48239 5.62716 13.5159 1.59106ZM17.3599 35.7433C16.2784 36.1448 15.1384 36.3155 13.9999 36.2463C12.8613 36.3155 11.7213 36.1449 10.6399 35.7433V34.8717C11.6552 34.9553 12.8035 35.0015 13.9999 35.0015C15.1971 35.0015 16.3462 34.9552 17.3599 34.8719V35.7433ZM20.1599 20.0644V33.1696C19.3298 33.419 18.4772 33.5645 17.618 33.6036C15.2084 33.8045 12.7884 33.8044 10.3788 33.6029C9.52059 33.5638 8.66904 33.4184 7.83987 33.1695V10.7286H20.1598V20.0644H20.1599ZM24.6399 33.7568L21.2799 30.9561V21.3091L24.6399 24.1099V33.7568ZM26.8799 35.6239C26.8799 35.9677 26.6292 36.2463 26.3199 36.2463C26.0106 36.2463 25.7599 35.9677 25.7599 35.6239V23.1763C25.7599 22.8325 26.0106 22.5539 26.3199 22.5539C26.6292 22.5539 26.8799 22.8325 26.8799 23.1763V35.6239Z" fill="#999999"/>
<path d="M9.51994 23.7984C9.21065 23.7984 8.95996 24.0771 8.95996 24.4207C8.95996 24.7645 9.21065 25.0431 9.51994 25.0431H10.0799C10.0806 25.7302 10.5817 26.2871 11.1999 26.2879V26.9102C11.1999 27.254 11.4507 27.5326 11.7599 27.5326C12.0692 27.5326 12.3199 27.254 12.3199 26.9102V26.2879H13.4399V26.9102C13.4399 27.254 13.6906 27.5326 13.9999 27.5326C14.3092 27.5326 14.5599 27.254 14.5599 26.9102V26.2879H15.6799V26.9102C15.6799 27.254 15.9306 27.5326 16.2398 27.5326C16.5491 27.5326 16.7998 27.254 16.7998 26.9102V26.2879C17.4181 26.2871 17.9191 25.7302 17.9198 25.0431H18.4798C18.7891 25.0431 19.0398 24.7644 19.0398 24.4207C19.0398 24.077 18.7891 23.7984 18.4798 23.7984H17.9198V22.5536H18.4798C18.7891 22.5536 19.0398 22.275 19.0398 21.9312C19.0398 21.5875 18.7891 21.3089 18.4798 21.3089H17.9198V20.0641H18.4798C18.7891 20.0641 19.0398 19.7855 19.0398 19.4417C19.0398 19.098 18.7891 18.8194 18.4798 18.8194H17.9198C17.9191 18.1323 17.4181 17.5754 16.7998 17.5746V16.9523C16.7998 16.6085 16.5491 16.3299 16.2398 16.3299C15.9306 16.3299 15.6799 16.6085 15.6799 16.9523V17.5746H14.5599V16.9523C14.5599 16.6085 14.3092 16.3299 13.9999 16.3299C13.6907 16.3299 13.44 16.6085 13.44 16.9523V17.5746H12.3199V16.9523C12.3199 16.6085 12.0692 16.3299 11.76 16.3299C11.4507 16.3299 11.2 16.6085 11.2 16.9523V17.5746C10.5817 17.5754 10.0807 18.1322 10.08 18.8194H9.52C9.21071 18.8194 8.96003 19.098 8.96003 19.4417C8.96003 19.7855 9.21071 20.0641 9.52 20.0641H10.08V21.3089H9.52C9.21071 21.3089 8.96003 21.5875 8.96003 21.9312C8.96003 22.275 9.21071 22.5536 9.52 22.5536H10.08V23.7984H9.51994ZM11.1999 18.8194H16.7999L16.8 19.4413L16.7999 19.4417L16.8 19.4422L16.8003 21.929L16.7999 21.9312L16.8003 21.9335L16.8006 24.4167L16.7999 24.4207L16.8006 24.4248L16.8007 25.0431H11.1999V18.8194Z" fill="#999999"/>
<path d="M13.2775 20.2449C13.1165 20.068 12.8754 20.0164 12.6669 20.1142C12.5991 20.1458 12.5367 20.19 12.4823 20.2449C12.4316 20.3044 12.3915 20.3742 12.3644 20.4504C12.305 20.6011 12.305 20.7726 12.3644 20.9233C12.4156 21.0794 12.5263 21.2025 12.6668 21.2594C12.8025 21.3258 12.9569 21.3258 13.0925 21.2594C13.1604 21.2278 13.2229 21.1836 13.2774 21.1287C13.3267 21.068 13.3664 20.9985 13.395 20.9232C13.4548 20.7726 13.4548 20.6009 13.395 20.4503C13.368 20.3742 13.3281 20.3045 13.2775 20.2449Z" fill="#999999"/>
<path d="M13.3952 22.9396C13.3829 22.8997 13.3658 22.862 13.3446 22.8271C13.3224 22.7961 13.3 22.7651 13.2776 22.7341C13.1163 22.5577 12.8756 22.5062 12.667 22.6034C12.4538 22.6932 12.3147 22.9226 12.32 23.176C12.3208 23.2573 12.3359 23.3376 12.3645 23.4125C12.3931 23.4879 12.4329 23.5573 12.4824 23.6179C12.5892 23.7325 12.7316 23.7971 12.88 23.7985C12.9532 23.7974 13.0254 23.7805 13.0928 23.7486C13.1606 23.7171 13.2232 23.6729 13.2776 23.6179C13.3269 23.5573 13.3667 23.4878 13.3952 23.4125C13.4266 23.3387 13.442 23.2577 13.4401 23.1761C13.439 23.1363 13.4353 23.0967 13.4288 23.0576C13.4234 23.0164 13.412 22.9766 13.3952 22.9396Z" fill="#999999"/>
<path d="M15.5177 20.2447C15.4641 20.1884 15.4014 20.1441 15.3328 20.114C15.2327 20.0644 15.121 20.0512 15.0138 20.0763C14.9766 20.0823 14.9406 20.095 14.9071 20.114C14.8727 20.1263 14.8405 20.1452 14.812 20.1699C14.7799 20.1913 14.7499 20.2164 14.7225 20.2447C14.6718 20.3041 14.6318 20.3739 14.6047 20.4501C14.5452 20.6008 14.5452 20.7723 14.6047 20.923C14.6558 21.0792 14.7665 21.2022 14.907 21.2591C15.0426 21.3256 15.1972 21.3256 15.3328 21.2591C15.4006 21.2275 15.4632 21.1833 15.5176 21.1284C15.5669 21.0677 15.6067 20.9983 15.6352 20.9229C15.6666 20.8491 15.682 20.7682 15.6801 20.6865C15.6792 20.6052 15.664 20.5249 15.6353 20.4501C15.6081 20.374 15.5682 20.3043 15.5177 20.2447Z" fill="#999999"/>
<path d="M15.4339 22.6598C15.4027 22.6361 15.3688 22.6173 15.3329 22.6039C15.2995 22.585 15.2636 22.5723 15.2266 22.5661C15.0439 22.5255 14.8549 22.5885 14.7226 22.7345L14.6553 22.8275C14.634 22.8623 14.617 22.9001 14.6047 22.9399C14.5878 22.9769 14.5765 23.0167 14.5714 23.0579C14.5648 23.097 14.5611 23.1366 14.5602 23.1764C14.5583 23.258 14.5736 23.339 14.6048 23.4128C14.656 23.569 14.7667 23.692 14.9072 23.7489C15.0428 23.8154 15.1973 23.8154 15.3329 23.7489C15.4007 23.7174 15.4633 23.6732 15.5177 23.6182C15.567 23.5576 15.6068 23.4881 15.6353 23.4128C15.664 23.338 15.6793 23.2577 15.6802 23.1764C15.6791 23.0114 15.621 22.8531 15.5177 22.7345C15.4912 22.7079 15.4631 22.6829 15.4339 22.6598Z" fill="#999999"/>
</svg>
