<svg width="86" height="90" viewBox="0 0 86 90" fill="none" xmlns="http://www.w3.org/2000/svg">
<g clip-path="url(#clip0)">
<path d="M83.7238 88.4849H1.48446C1.08861 88.4849 0.692749 88.7879 0.692749 89.2929C0.692749 89.798 0.989642 90.101 1.48446 90.101H83.8228C84.2186 90.101 84.6145 89.798 84.6145 89.2929C84.6145 88.7879 84.2186 88.4849 83.7238 88.4849Z" fill="#D41028"/>
<path d="M82.9321 84.2423V41.212L65.4155 38.1817H57.4983V31.212H60.3683V29.5959H57.4983V25.2524C57.4983 16.3635 51.9563 8.48474 43.7423 5.55545L43.3464 5.45444V0.605957H41.763V5.15141L41.3671 5.25242C37.9034 6.46454 34.8355 8.68676 32.5593 11.414H32.3614V11.7171C29.3924 15.3534 27.71 19.9999 27.71 24.9494V29.2928H24.8401V30.909H27.71V37.8787H20.0898L2.27621 40.909V83.9393H0.791748V85.5554H84.3176V83.9393H82.9321V84.2423ZM7.91718 84.2423H3.85964V66.9696L7.91718 66.3635V84.2423ZM13.5581 84.2423H9.50061V66.0605L13.5581 65.2524V84.2423ZM19.1991 84.2423H15.1416V65.0504L19.1991 64.4443V84.2423ZM19.1991 62.7272L3.85964 65.3534V51.111L19.1991 48.4847V62.7272ZM19.1991 46.9696L3.85964 49.4948V42.4241L19.1991 39.8989V46.9696ZM55.618 21.515L55.7169 22.2221H50.3729L50.2739 21.6161C50.2739 21.111 50.1749 20.707 50.076 20.2019H55.3211C55.4201 20.707 55.519 21.111 55.618 21.515ZM36.3199 27.5757H41.763V29.4948H36.3199V27.5757ZM41.763 25.8585H36.3199V23.9393H41.763V25.8585ZM43.4454 27.5757H48.8884V29.4948H43.4454V27.5757ZM43.4454 25.8585V23.9393H48.8884V25.8585H43.4454ZM48.6905 21.515L48.7894 22.2221H43.3464V20.3029H48.4926C48.5915 20.707 48.5915 21.111 48.6905 21.515ZM43.4454 18.6868V16.7676H47.6019L47.7008 17.1716C47.8988 17.6767 47.9977 18.1817 48.0967 18.6868H43.4454ZM46.7112 14.2423L47.0081 15.0504H43.4454V13.2322H46.3153C46.4143 13.5352 46.6122 13.9393 46.7112 14.2423ZM41.763 15.0504H38.1013L38.3982 14.2423C38.4972 13.9393 38.6951 13.5352 38.7941 13.2322H41.664V15.0504H41.763ZM37.6065 16.6666H41.763V18.5858H37.1117C37.2106 18.0807 37.4086 17.5757 37.5075 17.0706L37.6065 16.6666ZM41.763 20.3029V22.2221H36.3199L36.4189 21.515C36.5179 21.111 36.6168 20.707 36.6168 20.3029H41.763ZM34.8355 21.7171L34.7365 22.3231H29.3924L29.4914 21.6161C29.5904 21.212 29.6893 20.808 29.7883 20.4039H35.0334C34.9344 20.808 34.9344 21.212 34.8355 21.7171ZM34.7365 23.9393V25.8585H29.2935V23.9393H34.7365ZM34.7365 27.5757V29.4948H29.2935V27.5757H34.7365ZM29.2935 31.111H55.9149V38.0807H29.2935V31.111ZM50.4718 29.4948V27.5757H55.9149V29.4948H50.4718ZM55.9149 25.8585H50.4718V23.9393H55.9149V25.8585ZM54.3315 17.0706C54.5294 17.5757 54.7273 18.0807 54.9252 18.6868H49.8781C49.7791 18.2827 49.6801 17.8787 49.6801 17.4746L49.4822 16.6666H54.1335L54.3315 17.0706ZM53.2428 15.0504H48.7894L48.5915 14.6464C48.3936 14.1413 48.1957 13.6363 47.9977 13.1312H51.8573C52.0553 13.4342 52.3522 13.7373 52.5501 14.0403L53.2428 15.0504ZM47.1071 8.88878C48.2946 9.59586 49.3832 10.5049 50.4718 11.6161H47.305C47.0081 11.01 46.7112 10.4039 46.3153 9.79788L44.9298 7.57565L47.1071 8.88878ZM44.534 9.79788C44.9298 10.4039 45.2267 11.01 45.5236 11.6161H43.3464V8.0807L44.534 9.79788ZM41.763 7.87868V11.6161H39.6847C39.9816 11.01 40.2785 10.4039 40.6744 9.79788L41.763 7.87868ZM38.0023 8.88878L40.1796 7.57565L38.7941 9.79788C38.3982 10.4039 38.1013 11.01 37.8044 11.6161H34.6376C35.7262 10.5049 36.8148 9.59586 38.0023 8.88878ZM32.6583 14.1413C32.8562 13.8383 33.1531 13.5352 33.351 13.2322H37.2106C37.0127 13.7373 36.8148 14.2423 36.6168 14.7474L36.4189 15.1514H31.9655L32.6583 14.1413ZM31.0748 16.6666H35.7262L35.6272 17.3736C35.5282 17.7777 35.4293 18.1817 35.4293 18.5858H30.3821C30.58 18.0807 30.7779 17.5757 30.9759 16.9696L31.0748 16.6666ZM20.7825 84.2423V64.3433H21.9701V84.3433H20.7825V84.2423ZM24.8401 84.2423H23.6525V64.3433H24.8401V84.2423ZM26.4235 84.2423V64.3433H27.5121V84.3433H26.4235V84.2423ZM30.481 84.2423H29.0955V64.3433H30.481V84.2423ZM32.0645 84.2423V64.3433H33.252V84.3433H32.0645V84.2423ZM36.122 84.2423H34.9344V64.3433H36.122V84.2423ZM47.4039 84.2423H37.7054V64.9494C37.7054 62.2221 39.8827 59.9999 42.5547 59.9999C45.2267 59.9999 47.4039 62.2221 47.4039 64.9494V84.2423ZM50.2739 84.2423H49.0863V64.3433H50.2739V84.2423ZM53.1439 84.2423H51.9563V64.3433H53.1439V84.2423ZM54.7273 84.2423V64.3433H55.8159V84.3433H54.7273V84.2423ZM58.7848 84.2423H57.3993V64.3433H58.7848V84.2423ZM61.5558 84.2423H60.3683V64.3433H61.5558V84.2423ZM64.4258 84.2423H63.2382V64.3433H64.4258V84.2423ZM64.4258 62.6262H48.6905L48.4926 62.2221C47.0081 58.8888 43.3464 57.3736 39.9816 58.7878C38.3982 59.4948 37.3096 60.606 36.6168 62.2221L36.5179 62.6262H20.7825V48.4847H64.4258V62.6262ZM64.4258 46.7676H20.7825V39.7979H64.4258V46.7676ZM70.0668 84.2423H66.0092V64.4443L70.0668 65.0504V84.2423ZM75.7077 84.2423H71.6502V65.3534L75.7077 65.9595V84.2423ZM81.3487 84.2423H77.2912V66.3635L81.3487 66.9696V84.2423ZM81.3487 65.3534L66.0092 62.7272V48.4847L81.3487 51.111V65.3534ZM81.3487 49.4948L66.0092 46.8686V39.7979L81.3487 42.4241V49.4948Z" fill="#D41028"/>
<path d="M15.1415 54.0405H13.5581V58.586H15.1415V54.0405Z" fill="#D41028"/>
<path d="M15.1415 42.7271H13.5581V45.4543H15.1415V42.7271Z" fill="#D41028"/>
<path d="M9.50054 43.7373H7.91711V46.4646H9.50054V43.7373Z" fill="#D41028"/>
<path d="M9.50054 55.4546H7.91711V60H9.50054V55.4546Z" fill="#D41028"/>
<path d="M71.6502 54.0405H70.0668V58.586H71.6502V54.0405Z" fill="#D41028"/>
<path d="M77.2912 55.4546H75.7078V60H77.2912V55.4546Z" fill="#D41028"/>
<path d="M71.6502 43.5352H70.0668V45.8584H71.6502V43.5352Z" fill="#D41028"/>
<path d="M77.2912 44.2422H75.7078V46.5654H77.2912V44.2422Z" fill="#D41028"/>
<path d="M48.9873 52.5254H36.1219V54.1416H48.9873V52.5254Z" fill="#D41028"/>
<path d="M47.008 33.8384H38.2002V35.4545H47.008V33.8384Z" fill="#D41028"/>
<path d="M62.4464 42.4243H22.8607V44.0405H62.4464V42.4243Z" fill="#D41028"/>
<path d="M57.4982 52.5254H55.9148V58.485H57.4982V52.5254Z" fill="#D41028"/>
<path d="M29.2934 52.5254H27.71V58.485H29.2934V52.5254Z" fill="#D41028"/>
</g>
<defs>
<clipPath id="clip0">
<rect width="86" height="90" fill="white"/>
</clipPath>
</defs>
</svg>
