<svg width="28" height="34" viewBox="0 0 28 34" fill="none" xmlns="http://www.w3.org/2000/svg">
<path d="M28 8.2158V7.14272H27.0345V1.77734H26.069V7.14272H25.1034V3.38696H24.1379V7.14272H23.1724V4.99657H22.2069V7.14272H21.2414V6.06965H20.2759V7.14272H19.3103V10.3619H23.6552V17.8735H20.2855L19.8785 15.6114C19.7786 15.0567 19.3369 14.6542 18.8276 14.6542C18.3183 14.6542 17.8766 15.0567 17.7766 15.6114L17.3697 17.8735H14V10.3619H18.3448V9.28887H14C13.4675 9.28887 13.0345 9.77015 13.0345 10.3619V17.8735C13.0345 18.4653 13.4675 18.9466 14 18.9466H17.1766L16.9834 20.0196H10.1379V11.435H9.17241V16.8004H3.37931V11.435H2.41379V20.0196H0V23.2389H0.965517V33.9696H25.1034V23.2389H26.069V20.0196H20.6717L20.4786 18.9466H23.6552C24.1877 18.9466 24.6207 18.4653 24.6207 17.8735V10.3619C24.6207 9.77015 24.1877 9.28887 23.6552 9.28887H20.2759V8.2158H28ZM3.37931 17.8735H9.17241V20.0196H3.37931V17.8735ZM24.1379 24.3119H22.2069V25.385H24.1379V32.8965H1.93103V25.385H21.2414V24.3119H1.93103V23.2389H24.1379V24.3119ZM25.1034 22.1658H0.965517V21.0927H25.1034V22.1658ZM17.9683 20.0196L18.7233 15.8223C18.7431 15.7123 18.9121 15.7123 18.9319 15.8223L19.6869 20.0196H17.9683Z" fill="#999999"/>
<path d="M1.44843 11.5011C1.44843 10.7612 1.89981 10.119 2.54526 9.93922L4.67953 9.34688L5.27574 10.0095L4.79298 13.2287L6.27602 14.8764L7.75857 13.2287L7.27581 10.0095L7.87202 9.34688L10.0063 9.93922C10.6522 10.119 11.1036 10.7612 11.1036 11.5011V18.9466H12.0691V11.5011C12.0691 10.2676 11.317 9.19772 10.2404 8.89833L8.20705 8.33336V7.38959C8.79795 6.79994 9.17257 5.94738 9.17257 4.99664V3.92357C9.17257 2.14817 7.87347 0.704346 6.27602 0.704346C4.67857 0.704346 3.37946 2.14817 3.37946 3.92357V4.99664C3.37946 5.94685 3.75408 6.7994 4.34498 7.38959V8.33336L2.3116 8.89887C1.23505 9.19772 0.48291 10.2676 0.48291 11.5011V18.9466H1.44843V11.5011ZM6.27602 13.3591L5.82753 12.8607L6.27602 9.87L6.7245 12.8607L6.27602 13.3591ZM4.34498 3.92357C4.34498 2.73997 5.21105 1.77742 6.27602 1.77742C7.34098 1.77742 8.20705 2.73997 8.20705 3.92357V4.99664C8.20705 6.18024 7.34098 7.14279 6.27602 7.14279C5.21105 7.14279 4.34498 6.18024 4.34498 4.99664V3.92357ZM6.27602 8.21586C6.61491 8.21586 6.93884 8.14718 7.24153 8.02807V8.53027L6.27602 9.60334L5.3105 8.53027V8.02807C5.61319 8.14718 5.93712 8.21586 6.27602 8.21586Z" fill="#999999"/>
</svg>
