<svg width="41" height="41" viewBox="0 0 41 41" fill="none" xmlns="http://www.w3.org/2000/svg">
<path d="M0.5 0.5H40.5V40.5H0.5V0.5Z" stroke="#F0F0F0"/>
<path d="M7.59271 34.0586L11.1183 31.9543C11.7985 33.1437 12.4173 34.1501 13.9015 34.1501C15.3241 34.1501 16.2212 33.6012 16.2212 31.4664V16.9479H20.5507V31.5267C20.5507 35.9493 17.9221 37.9624 14.087 37.9624C10.6235 37.9624 8.61312 36.1933 7.59253 34.0583L7.59271 34.0586ZM22.9023 33.6011L26.4275 31.5881C27.3556 33.0828 28.5618 34.1808 30.6955 34.1808C32.4896 34.1808 33.6334 33.2961 33.6334 32.0761C33.6334 30.6121 32.4582 30.0935 30.479 29.2397L29.3968 28.7818C26.2731 27.4707 24.2012 25.8236 24.2012 22.3465C24.2012 19.1438 26.6752 16.7037 30.541 16.7037C33.2935 16.7037 35.2727 17.6493 36.6952 20.1199L33.3241 22.2551C32.5817 20.9436 31.778 20.4251 30.5409 20.4251C29.2728 20.4251 28.4687 21.2182 28.4687 22.2551C28.4687 23.536 29.2728 24.0549 31.1283 24.8479L32.2106 25.3053C35.8909 26.861 37.9629 28.4469 37.9629 32.0152C37.9629 35.8586 34.9013 37.9629 30.7881 37.9629C26.7679 37.9629 24.17 36.0719 22.9022 33.6012" fill="#F0F0F0"/>
</svg>
