<svg width="107" height="48" viewBox="0 0 107 48" fill="none" xmlns="http://www.w3.org/2000/svg">
<path d="M15.4724 24.4586C15.4724 24.4586 12.9928 19.6959 13.0844 16.2157C13.1512 13.7287 18.7766 11.2704 20.9852 7.70073C23.1899 4.12914 20.7103 0.650879 20.7103 0.650879C20.7103 0.650879 21.262 3.2158 19.7921 5.86831C18.3223 8.52462 12.8972 10.083 10.7879 14.6611C8.6787 19.2393 15.4724 24.4586 15.4724 24.4586Z" fill="#F0F0F0"/>
<path d="M24.7531 9.98969C24.7531 9.98969 16.3025 13.1959 16.3025 16.8569C16.3025 20.5216 18.597 21.7109 18.9673 22.9001C19.3338 24.0932 18.324 26.1063 18.324 26.1063C18.324 26.1063 21.6302 23.8173 21.0766 21.161C20.525 18.5047 17.9537 17.6789 19.4254 15.0265C20.4085 13.2473 24.7531 9.98969 24.7531 9.98969Z" fill="#F0F0F0"/>
<path d="M14.5561 29.2973C22.3653 29.0195 25.2134 26.563 25.2134 26.563C20.1625 27.935 6.74885 27.8455 6.65531 26.8389C6.56558 25.8324 10.7881 25.0065 10.7881 25.0065C10.7881 25.0065 4.17572 25.0065 3.62405 26.6543C3.07229 28.3022 6.75257 29.5694 14.5561 29.2973Z" fill="#F0F0F0"/>
<path d="M25.855 33.1562C25.855 33.1562 33.4981 31.5312 32.7422 27.3926C31.8259 22.3541 26.4963 25.193 26.4963 25.193C26.4963 25.193 30.2663 25.193 30.6309 27.4801C30.9994 29.7692 25.855 33.1562 25.855 33.1562Z" fill="#F0F0F0"/>
<path d="M22.0886 30.9603C22.0886 30.9603 20.1625 31.4645 17.3088 31.7842C13.4834 32.2123 8.85815 31.8736 8.48975 31.2323C8.12711 30.5911 9.13301 30.2258 9.13301 30.2258C4.53834 31.3256 7.05235 33.2455 12.4373 33.6147C17.0529 33.9286 23.923 32.2409 23.923 32.2409L22.0886 30.9603Z" fill="#F0F0F0"/>
<path d="M10.24 34.96C10.24 34.96 8.15557 35.019 8.03336 36.1188C7.91309 37.211 9.31616 38.1928 14.4624 38.4973C19.6068 38.8017 23.2222 37.0949 23.2222 37.0949L20.8953 35.6869C20.8953 35.6869 19.4235 35.9951 17.1577 36.2996C14.8899 36.606 10.2399 36.0541 10.0567 35.6298C9.86969 35.2016 10.24 34.96 10.24 34.96Z" fill="#F0F0F0"/>
<path d="M30.2623 39.9053C31.0583 39.049 30.016 38.3774 30.016 38.3774C30.016 38.3774 30.3825 38.8055 29.8977 39.2927C29.4071 39.7798 24.9346 40.9995 17.7687 41.3667C10.6046 41.7339 2.82597 40.695 2.57969 39.7798C2.34111 38.8645 6.5635 38.1339 6.5635 38.1339C6.07484 38.1947 0.195495 38.3165 0.00841936 39.9053C-0.174851 41.4903 2.57969 42.7728 13.6072 42.7728C24.6292 42.7709 29.4701 40.7558 30.2623 39.9053Z" fill="#F0F0F0"/>
<path d="M25.9772 43.5054C21.1382 44.4796 6.4436 43.865 6.4436 43.865C6.4436 43.865 15.9937 46.1256 26.8953 44.2342C32.1065 43.3285 32.41 40.8149 32.41 40.8149C32.41 40.8149 30.8162 42.5255 25.9772 43.5054Z" fill="#F0F0F0"/>
<path d="M102.329 27.168C102.608 23.685 101.619 22.5194 98.0416 22.672C96.2318 22.7553 94.45 23.1993 92.4732 23.5046C92.2922 22.7553 92.0973 21.9227 91.8746 21.0069C95.3687 19.7441 98.7515 18.8699 102.357 19.7302C104.877 20.3269 106.519 21.8811 106.603 24.4343C106.77 29.4715 106.645 34.5225 106.645 39.754C105.253 39.5042 103.345 40.9196 103.039 38.5189C100.923 39.0601 98.8072 39.9344 96.6216 40.1009C93.5451 40.3506 91.5823 38.7132 91.0115 36.1044C90.3572 33.1488 91.5544 30.1376 94.2551 29.1523C96.7748 28.2226 99.4893 27.8341 102.329 27.168ZM102.413 30.3318C100.478 30.6094 98.8072 30.7204 97.1924 31.1228C95.5776 31.5252 94.7284 33.3153 95.2017 34.8694C95.7028 36.5207 97.1506 37.2839 98.9186 36.8677C101.87 36.1461 102.427 35.4384 102.399 32.3439C102.413 31.8444 102.413 31.3448 102.413 30.3318ZM69.3089 39.7262C68.2648 39.7262 67.3182 39.7262 66.2741 39.7262C66.0931 39.2405 65.9122 38.7271 65.6894 38.1582C65.4806 38.1859 65.2718 38.1443 65.1604 38.2275C63.3647 39.5458 61.4157 40.2951 59.1466 40.1841C56.2929 40.0454 54.4971 38.8381 53.7871 36.4791C52.9936 33.7871 53.8567 30.7759 56.2929 29.5548C58.1582 28.6112 60.3438 28.2781 62.418 27.7647C63.2533 27.5565 64.1581 27.612 65.0212 27.5565C65.4806 23.8932 64.367 22.5749 60.9007 22.6443C59.954 22.6582 59.0074 22.8108 58.0747 22.9773C57.1559 23.1438 56.265 23.4075 55.3602 23.6295C54.3718 21.0624 54.3161 20.8126 56.7662 20.2992C59.258 19.7718 61.889 19.4666 64.4087 19.647C67.5409 19.869 69.0722 21.3954 69.2671 24.4898C69.5594 29.0275 69.4202 33.5928 69.462 38.1582C69.462 38.6716 69.3646 39.1573 69.3089 39.7262ZM65.0212 30.3735C63.2533 30.6232 61.541 30.7204 59.9262 31.1228C58.2835 31.5252 57.5318 33.2043 57.9912 34.8833C58.3949 36.4097 59.7174 37.3117 61.3322 36.9232C65.3414 35.924 65.6059 35.258 65.0212 30.3735ZM71.7311 19.9939C71.9678 19.869 72.0234 19.8135 72.0791 19.8135C76.4224 19.6747 76.3807 19.6886 77.5779 23.8515C78.6219 27.4455 79.7634 31.0257 80.8632 34.6058C81.0302 34.6335 81.2112 34.6613 81.3783 34.689C82.5894 29.7768 83.8005 24.8645 85.0395 19.869C86.2506 19.869 87.6148 19.869 89.4245 19.869C88.3944 23.7544 87.5174 27.4594 86.4176 31.1089C85.6937 33.5234 84.6079 35.8269 83.8005 38.2137C83.355 39.5458 82.5615 40.0315 81.2391 39.8233C81.0581 39.7956 80.8493 39.7817 80.6683 39.8233C78.5245 40.2674 77.55 39.3377 76.9654 37.2562C75.3644 31.4975 73.513 25.7942 71.7311 19.9939ZM44.0564 47.0113C43.3743 46.1788 42.7339 45.4017 41.9265 44.4303C46.0053 42.5293 46.3394 38.9907 46.2837 35.1608C46.1863 28.4446 46.2559 21.7423 46.2698 15.0261C46.2698 14.3323 46.2698 13.6523 46.2698 12.792C47.829 12.792 49.235 12.792 50.7663 12.792C50.7941 13.2915 50.8498 13.7772 50.8498 14.2629C50.8498 21.7284 50.8776 29.2078 50.822 36.6734C50.7802 42.1546 49.2628 44.4442 44.0564 47.0113Z" fill="#F0F0F0"/>
</svg>
