<svg width="24" height="24" viewBox="0 0 24 24" fill="none" xmlns="http://www.w3.org/2000/svg">
<g clip-path="url(#clip0_1620_7358)">
<path d="M12 0C5.33333 0 0 5.33333 0 12C0 18.6667 5.33333 24 12 24C18.6667 24 24 18.6667 24 12C24 5.33333 18.6667 0 12 0ZM8.53333 18.1333H5.6V9.33333H8.53333V18.1333ZM7.06667 8.13333C6 8.13333 5.46667 7.46667 5.46667 6.66667C5.46667 5.86667 6.13333 5.2 7.06667 5.2C8 5.2 8.66667 5.86667 8.66667 6.66667C8.66667 7.46667 8.13333 8.13333 7.06667 8.13333ZM19.0667 18.1333H16.1333V13.4667C16.1333 12.2667 15.7333 11.4667 14.6667 11.4667C13.8667 11.4667 13.3333 12 13.2 12.5333C13.0667 12.6667 13.0667 12.9333 13.0667 13.2V18.1333H10.1333C10.1333 18.1333 10.1333 10.1333 10.1333 9.33333H13.0667V10.5333C13.4667 10 14.1333 9.06667 15.7333 9.06667C17.6 9.06667 19.0667 10.2667 19.0667 13.0667V18.1333Z" fill="#0E76A8"/>
</g>
<defs>
<clipPath id="clip0_1620_7358">
<rect width="24" height="24" fill="white"/>
</clipPath>
</defs>
</svg>
