<svg width="91" height="32" viewBox="0 0 91 32" fill="none" xmlns="http://www.w3.org/2000/svg">
<path d="M33.8403 24.4004C34.5907 24.7883 35.7444 25.1772 36.9336 25.1772C38.2154 25.1772 38.8941 24.6407 38.8941 23.8272C38.8941 23.0514 38.3081 22.6075 36.8246 22.0719C34.7742 21.3502 33.4369 20.2047 33.4369 18.3926C33.4369 16.2677 35.1948 14.6408 38.1065 14.6408C39.4982 14.6408 40.5229 14.937 41.2561 15.269L40.6329 17.5424C40.1396 17.3031 39.2602 16.9509 38.051 16.9509C36.8428 16.9509 36.2568 17.5058 36.2568 18.1523C36.2568 18.9474 36.9527 19.2996 38.5462 19.9095C40.7246 20.722 41.7503 21.8683 41.7503 23.6246C41.7503 25.7118 40.1568 27.4873 36.7692 27.4873C35.3592 27.4873 33.9684 27.1177 33.2715 26.7308L33.8403 24.4004Z" fill="#EFEFEF"/>
<path d="M54.0746 22.5342C54.0192 21.0365 53.9647 19.2263 53.9647 17.4131H53.9102C53.5259 19.0024 53.0136 20.7779 52.5376 22.2369L51.0349 27.0994H48.8564L47.5373 22.2755C47.1348 20.8146 46.7143 19.041 46.4208 17.4131H46.3845C46.3109 19.096 46.2554 21.0172 46.1646 22.5718L45.9438 27.304H43.3619L44.1496 14.8434H47.868L49.0763 19.0024C49.4605 20.445 49.8448 21.9967 50.1191 23.4576H50.1755C50.5225 22.0169 50.9431 20.3707 51.3465 18.985L52.6647 14.8434H56.3086L56.9872 27.304H54.2582L54.0746 22.5342Z" fill="#EFEFEF"/>
<path d="M65.082 21.9969L64.3116 19.3549C64.0927 18.6157 63.8728 17.6903 63.6893 16.9511H63.6539C63.4694 17.6903 63.2869 18.6331 63.0861 19.3549L62.3539 21.9969H65.082ZM61.9505 24.1054L61.0721 27.3042H58.1776L61.9505 14.8437H65.6135L69.4399 27.3042H66.4365L65.4854 24.1054H61.9505Z" fill="#EFEFEF"/>
<path d="M73.8541 20.3709H74.9524C76.3442 20.3709 77.1692 19.6694 77.1692 18.578C77.1692 17.4317 76.3997 16.8585 75.1169 16.8402C74.4391 16.8402 74.0558 16.8952 73.8541 16.9328V20.3709ZM71.0878 15.0106C71.9863 14.863 73.3226 14.751 74.8062 14.751C76.6377 14.751 77.9195 15.0289 78.798 15.7305C79.5302 16.3229 79.9326 17.1914 79.9326 18.3378C79.9326 19.928 78.8171 21.0184 77.7551 21.4063V21.4614C78.6145 21.8136 79.0915 22.6454 79.4031 23.7908C79.7874 25.1957 80.1716 26.8227 80.4096 27.3032H77.5534C77.3517 26.952 77.0592 25.9359 76.6922 24.4006C76.3624 22.849 75.8309 22.4225 74.6963 22.4041H73.8541V27.3032H71.0878V15.0106Z" fill="#EFEFEF"/>
<path d="M84.3289 17.2105H81.0148V14.8434H90.5002V17.2105H87.1316V27.303H84.3289V17.2105Z" fill="#EFEFEF"/>
<path d="M38.6587 10.8834L38.2333 9.35783C38.1292 8.9815 38.0403 8.55884 37.9609 8.19988H37.9447C37.8644 8.55884 37.7831 8.99018 37.6866 9.35783L37.2708 10.8834H38.6587ZM37.1102 11.7384L36.6447 13.4937H35.6257L37.3587 7.30053H38.6176L40.3755 13.4937H39.3164L38.826 11.7384H37.1102Z" fill="#CDCDCD"/>
<path d="M47.6407 13.309C47.4085 13.4479 46.8951 13.585 46.2461 13.585C44.5293 13.585 43.4855 12.3546 43.4855 10.4701C43.4855 8.43014 44.7214 7.19885 46.3742 7.19885C47.0232 7.19885 47.4888 7.35517 47.6895 7.47386L47.4725 8.37514C47.2163 8.2468 46.8636 8.13583 46.4143 8.13583C45.3151 8.13583 44.5207 8.92613 44.5207 10.4141C44.5207 11.7747 45.2195 12.647 46.4057 12.647C46.8072 12.647 47.223 12.5553 47.4802 12.4183L47.6407 13.309Z" fill="#CDCDCD"/>
<path d="M53.9784 10.8834L53.552 9.35783C53.4478 8.9815 53.3609 8.55884 53.2806 8.19988H53.2634C53.184 8.55884 53.1037 8.99018 53.0062 9.35783L52.5904 10.8834H53.9784ZM52.4298 11.7384L51.9643 13.4937H50.9453L52.6783 7.30053H53.9373L55.6942 13.4937H54.636L54.1456 11.7384H52.4298Z" fill="#CDCDCD"/>
<path d="M60.2411 12.6297C60.3788 12.6567 60.5862 12.6567 60.787 12.6567C62.0707 12.6663 62.8326 11.8577 62.8326 10.2868C62.8402 8.91748 62.151 8.13586 60.915 8.13586C60.6034 8.13586 60.3788 8.16384 60.2411 8.20051V12.6297ZM59.2556 7.38222C59.6886 7.30117 60.2411 7.25388 60.8271 7.25388C61.8384 7.25388 62.5353 7.49319 63.0333 7.97085C63.5543 8.45815 63.8754 9.19249 63.8754 10.2491C63.8754 11.3521 63.5457 12.179 63.0333 12.7117C62.4951 13.2723 61.6377 13.557 60.5862 13.557C60.0089 13.557 59.5768 13.5203 59.2556 13.475V7.38222Z" fill="#CDCDCD"/>
<path d="M70.5645 10.7459H68.5275V12.5658H70.8045V13.4932H67.5401V7.29908H70.685V8.22834H68.5275V9.82631H70.5645V10.7459Z" fill="#CDCDCD"/>
<path d="M79.0427 10.9669C79.0111 10.1669 78.971 9.20102 78.9786 8.36633H78.9538C78.7788 9.119 78.5532 9.95465 78.3124 10.7363L77.5266 13.4198H76.7638L76.0431 10.7729C75.8347 9.98264 75.6416 9.13733 75.4982 8.36633H75.481C75.4571 9.174 75.4256 10.1583 75.3845 11.0036L75.265 13.4932H74.3425L74.7039 7.30101H76.002L76.7084 9.79061C76.9015 10.5163 77.0706 11.2516 77.2054 11.9396H77.2303C77.3746 11.2689 77.5591 10.5066 77.7675 9.78096L78.5131 7.30101H79.7969L80.1094 13.4932H79.1468L79.0427 10.9669Z" fill="#CDCDCD"/>
<path d="M85.1463 13.4934V10.9112L83.4371 7.30126H84.5603L85.2094 8.88958C85.3948 9.3489 85.5296 9.69822 85.6749 10.1209H85.6911C85.8278 9.72524 85.9798 9.34022 86.1643 8.88958L86.8143 7.30126H87.9289L86.1318 10.8832V13.4934H85.1463Z" fill="#CDCDCD"/>
<path d="M1.12504 8.72616C9.02263 9.00213 21.9807 17.2969 21.9807 17.2969C21.9807 17.2969 28.9406 6.52991 35.2848 4.95606C34.4025 4.71192 16.7348 1.75613e-05 16.7348 1.75613e-05C16.7348 1.75613e-05 -3.2453 10.1311 1.12504 8.72616Z" fill="#CDCDCD"/>
<path d="M30.4665 10.0312C28.9228 10.9759 22.3309 19.398 22.3309 19.398C22.3309 19.398 9.68255 11.8009 8.69989 12.2371C8.97519 13.2261 9.68542 17.086 9.68542 17.086C9.68542 17.086 17.3278 20.1883 22.5489 23.7297C27.4727 17.36 29.6081 15.6405 29.6081 15.6405L30.4665 10.0312Z" fill="#EFEFEF"/>
<path d="M27.332 22.5581C27.332 22.5581 35.7524 12.4289 33.3914 7.47676C33.8062 7.24131 33.9372 7.12358 33.9372 7.12358C35.9379 13.4267 27.8348 22.5803 27.8348 22.5803L27.332 22.5581Z" fill="#EFEFEF"/>
<path d="M27.27 22.4729C27.27 22.4729 25.624 22.1217 25.1929 25.2781C24.8 28.1652 28.0156 32 28.0156 32C28.0156 32 30.457 25.4556 29.4571 23.6676C29.1943 23.1967 28.9247 22.968 28.5548 22.7509C28.1839 22.5328 27.27 22.4729 27.27 22.4729Z" fill="#EFEFEF"/>
</svg>
