<svg width="28" height="28" viewBox="0 0 28 28" fill="none" xmlns="http://www.w3.org/2000/svg">
<g clip-path="url(#clip0_1446_53)">
<path d="M0.00149536 10.0123C0.0177307 9.8177 0.150604 9.61005 0.343292 9.54575L13.0237 4.469C13.1541 4.41666 13.2995 4.41666 13.4301 4.469L26.1101 9.54575C26.3167 9.61454 26.4534 9.84141 26.4534 10.0537V17.4705C27.3431 17.7089 28 18.5226 28 19.4863V22.5099C28 23.0946 27.5243 23.5703 26.9396 23.5703H24.8734C24.2894 23.5703 23.8136 23.0946 23.8136 22.5099V19.4863C23.8136 18.5226 24.4705 17.7096 25.3596 17.4705V10.8615L21.2991 12.4873V17.1894C21.2991 17.4137 21.1624 17.6149 20.9547 17.6974L13.429 20.6932C13.364 20.7189 13.2957 20.7321 13.2267 20.7321C13.1583 20.7321 13.0895 20.7189 13.0244 20.6932L5.49887 17.6974C5.29102 17.6149 5.1543 17.4137 5.1543 17.1894V12.4873L0.358673 10.5673C0.130737 10.4912 -0.0173035 10.2473 0.00149536 10.0123C0.000427246 10.026 0.00320435 9.99244 0.00149536 10.0123C0.000427246 10.026 0.0177307 9.8177 0.00149536 10.0123ZM24.9074 19.4863V22.4766H26.9062V19.4863C26.9062 18.9388 26.4606 18.4931 25.9131 18.4931H25.9005C25.3532 18.4931 24.9074 18.9388 24.9074 19.4863ZM6.24805 16.8185L13.2267 19.5963L20.2053 16.8185V12.9304L13.4301 15.6434C13.2995 15.6953 13.1541 15.6953 13.0237 15.6434L6.24805 12.9304V16.8185ZM13.2267 14.5413L23.0694 10.6006H14.9773C14.7421 11.3357 14.0466 11.87 13.2267 11.87C12.215 11.87 11.3914 11.055 11.3914 10.0537C11.3914 9.05186 12.215 8.23753 13.2267 8.23753C14.0466 8.23753 14.7421 8.7718 14.9773 9.50687H23.07L13.2267 5.56553L3.38358 9.50687H7.83997C8.14246 9.50687 8.38684 9.75126 8.38684 10.0537C8.38684 10.3556 8.14246 10.6006 7.83997 10.6006H3.384L13.2267 14.5413ZM13.9684 10.0537C13.9684 9.65513 13.6358 9.33128 13.2267 9.33128C12.8176 9.33128 12.4852 9.65513 12.4852 10.0537C12.4852 10.4519 12.8176 10.7762 13.2267 10.7762C13.6358 10.7762 13.9684 10.4519 13.9684 10.0537Z" fill="white"/>
<path d="M9.74368 10.6004C10.0455 10.6004 10.2908 10.3556 10.2908 10.0535C10.2908 9.75168 10.0462 9.50665 9.74411 9.50665H9.74368C9.44162 9.50665 9.19681 9.75168 9.19681 10.0535C9.19681 10.3556 9.44162 10.6004 9.74368 10.6004Z" fill="white"/>
</g>
<defs>
<clipPath id="clip0_1446_53">
<rect width="28" height="28" fill="white" transform="matrix(-1 0 0 1 28 0)"/>
</clipPath>
</defs>
</svg>
