<svg width="98" height="63" viewBox="0 0 98 63" fill="none" xmlns="http://www.w3.org/2000/svg">
<path d="M48.1229 63.0001C47.8015 63.0001 47.482 62.9115 47.2007 62.7394L44.2651 60.9042C43.8269 60.6452 44.0408 60.5533 44.1854 60.5001C44.7702 60.2857 44.8886 60.2362 45.5128 59.8622C45.5777 59.8234 45.664 59.8383 45.7311 59.8799L47.9864 61.2944C48.0681 61.3423 48.1834 61.3423 48.2587 61.2944L57.0514 55.9326C57.1333 55.8833 57.1857 55.7838 57.1857 55.6813V44.9605C57.1857 44.8556 57.1333 44.7577 57.0492 44.7045L48.2602 39.3473C48.179 39.2971 48.0712 39.2971 47.9893 39.3473L39.2025 44.7061C39.1171 44.7577 39.0629 44.8589 39.0629 44.9605V55.6813C39.0629 55.7838 39.1171 55.881 39.2016 55.9296L41.6103 57.3999C42.9172 58.0903 43.7175 57.2772 43.7175 56.4603V45.8755C43.7175 45.7258 43.8313 45.6079 43.973 45.6079H45.0878C45.2273 45.6079 45.3427 45.7258 45.3427 45.8755V56.4603C45.3427 58.3031 44.3927 59.36 42.7392 59.36C42.231 59.36 41.8308 59.36 40.7139 58.7784L38.4082 57.376C37.8386 57.0281 37.486 56.3777 37.486 55.6813V44.9605C37.486 44.2641 37.8386 43.6137 38.4082 43.2674L47.2007 37.8994C47.7571 37.5671 48.4966 37.5671 49.0486 37.8994L57.8407 43.2674C58.4101 43.6153 58.7642 44.2641 58.7642 44.9605V55.6813C58.7642 56.3777 58.4101 57.0258 57.8407 57.376L49.0486 62.7394C48.7675 62.9115 48.4486 63.0001 48.1229 63.0001Z" fill="#F0F0F0"/>
<path d="M50.8391 55.6144C46.9914 55.6144 46.1854 53.7485 46.1854 52.1833C46.1854 52.0345 46.2986 51.9157 46.4394 51.9157H47.5762C47.7032 51.9157 47.8091 52.0122 47.8289 52.1431C48.0005 53.3658 48.5123 53.9829 50.8391 53.9829C52.6914 53.9829 53.48 53.5402 53.48 52.5019C53.48 51.9034 53.2564 51.459 50.3778 51.1611C47.9719 50.9098 46.4839 50.3482 46.4839 48.3149C46.4839 46.4405 47.9792 45.3227 50.4865 45.3227C53.3033 45.3227 54.6971 46.3556 54.8736 48.5716C54.8803 48.6481 54.8547 48.7214 54.8065 48.7784C54.7583 48.8316 54.6912 48.8642 54.6203 48.8642H53.4791C53.3609 48.8642 53.2564 48.7753 53.2324 48.6542C52.9586 47.3676 52.2928 46.9565 50.4865 46.9565C48.4641 46.9565 48.229 47.7008 48.229 48.2586C48.229 48.9344 48.5063 49.1309 51.237 49.5127C53.9391 49.8901 55.2227 50.4245 55.2227 52.431C55.2227 54.455 53.6253 55.6144 50.8391 55.6144Z" fill="#F0F0F0"/>
<path d="M61.546 44.248H61.8416C62.0832 44.248 62.1286 44.0683 62.1286 43.9641C62.1286 43.6891 61.949 43.6891 61.8504 43.6891H61.546V44.248ZM61.1868 43.3671H61.8416C62.0658 43.3671 62.5054 43.3671 62.5054 43.8979C62.5054 44.2673 62.2811 44.3428 62.1462 44.3903C62.4068 44.4091 62.4244 44.5893 62.46 44.8448C62.4783 45.0056 62.5054 45.2807 62.5586 45.3751H62.1556C62.1462 45.2807 62.0832 44.769 62.0832 44.7409C62.057 44.6269 62.0205 44.5704 61.8862 44.5704H61.5548V45.3751H61.1868V43.3671ZM60.4026 44.3663C60.4026 45.2 61.0393 45.8726 61.8191 45.8726C62.6084 45.8726 63.2449 45.1858 63.2449 44.3663C63.2449 43.5331 62.5996 42.8701 61.8191 42.8701C61.0481 42.8701 60.4026 43.5233 60.4026 44.3663ZM63.518 44.3714C63.518 45.3562 62.7556 46.1613 61.8235 46.1613C60.8998 46.1613 60.1288 45.3658 60.1288 44.3714C60.1288 43.3581 60.918 42.5811 61.8235 42.5811C62.7382 42.5811 63.518 43.3581 63.518 44.3714Z" fill="#F0F0F0"/>
<path fill-rule="evenodd" clip-rule="evenodd" d="M20.895 21.0563C20.895 20.6282 20.6817 20.2347 20.332 20.0226L11.01 14.3546C10.8524 14.2565 10.6756 14.2056 10.4969 14.1979H10.4005C10.2222 14.2056 10.0457 14.2565 9.88572 14.3546L0.563659 20.0226C0.216131 20.2347 0 20.6282 0 21.0563L0.0204675 36.3187C0.0204675 36.531 0.124792 36.7284 0.301527 36.8326C0.47452 36.9421 0.688451 36.9421 0.860784 36.8326L6.40098 33.4808C6.75137 33.2611 6.96464 32.873 6.96464 32.4486V25.3182C6.96464 24.8931 7.17769 24.4996 7.52676 24.2883L9.88572 22.8528C10.0616 22.7456 10.2537 22.6931 10.45 22.6931C10.6422 22.6931 10.8392 22.7456 11.01 22.8528L13.3683 24.2883C13.7173 24.4996 13.9313 24.8931 13.9313 25.3182V32.4486C13.9313 32.873 14.1474 33.2634 14.4956 33.4808L20.0342 36.8326C20.2079 36.9421 20.4249 36.9421 20.597 36.8326C20.7687 36.7284 20.8767 36.531 20.8767 36.3187L20.895 21.0563Z" fill="#F0F0F0"/>
<path fill-rule="evenodd" clip-rule="evenodd" d="M64.8847 29.0032C64.8847 29.1092 64.831 29.2076 64.7438 29.2604L61.5419 31.2104C61.4549 31.2632 61.3478 31.2632 61.2608 31.2104L58.0589 29.2604C57.9715 29.2076 57.918 29.1092 57.918 29.0032V25.0968C57.918 24.9908 57.9715 24.8924 58.0587 24.8392L61.2604 22.8854C61.3478 22.8322 61.4549 22.8322 61.5423 22.8854L64.744 24.8392C64.831 24.8924 64.8847 24.9908 64.8847 25.0968V29.0032ZM65.7499 0.0751417C65.5753 -0.0271761 65.3625 -0.0250831 65.1902 0.081881C65.0183 0.188616 64.9124 0.383947 64.9124 0.594856V15.7096C64.9124 15.8582 64.8371 15.9959 64.7156 16.0703C64.5937 16.1447 64.4434 16.1447 64.3214 16.0703L61.9865 14.649C61.6383 14.4367 61.2098 14.4372 60.8613 14.6493L51.5358 20.3354C51.1871 20.548 50.9725 20.9407 50.9725 21.3658V32.7405C50.9725 33.1656 51.1871 33.5581 51.5353 33.7711L60.8607 39.4614C61.2093 39.674 61.6385 39.674 61.9871 39.4614L71.314 33.7711C71.6622 33.5581 71.877 33.1656 71.877 32.7405V4.38611C71.877 3.95499 71.6561 3.55735 71.2995 3.34714L65.7499 0.0751417Z" fill="#F0F0F0"/>
<path fill-rule="evenodd" clip-rule="evenodd" d="M96.8033 24.9948C97.1501 24.782 97.3636 24.3899 97.3636 23.966V21.2096C97.3636 20.7857 97.1501 20.3934 96.8028 20.1806L87.5371 14.4968C87.1884 14.2826 86.7581 14.2824 86.4086 14.4952L77.0863 20.1813C76.7379 20.3938 76.5233 20.7864 76.5233 21.2114V32.5831C76.5233 33.0109 76.7405 33.4055 77.092 33.6169L86.3565 39.1942C86.6981 39.4003 87.1169 39.4026 87.4607 39.2008L93.0643 35.9102C93.2421 35.8055 93.3528 35.6086 93.3539 35.3942C93.3553 35.1795 93.2472 34.981 93.0713 34.8742L83.6898 29.1853C83.5146 29.0792 83.4068 28.882 83.4068 28.6693V25.1055C83.4068 24.8929 83.5142 24.6962 83.6887 24.5902L86.6085 22.8117C86.7821 22.7057 86.9967 22.7057 87.1706 22.8117L90.0917 24.5902C90.2662 24.6962 90.3734 24.8929 90.3734 25.1055V27.9094C90.3734 28.1224 90.4813 28.3191 90.6558 28.4251C90.8303 28.5316 91.0454 28.5307 91.2195 28.424L96.8033 24.9948Z" fill="#F0F0F0"/>
<path fill-rule="evenodd" clip-rule="evenodd" d="M86.835 24.4631C86.9019 24.4222 86.9842 24.4222 87.0511 24.4631L88.8405 25.5535C88.9074 25.5944 88.9486 25.6697 88.9486 25.7513V27.9339C88.9486 28.0157 88.9074 28.0908 88.8405 28.1317L87.0511 29.2223C86.9842 29.2632 86.9019 29.2632 86.835 29.2223L85.0469 28.1317C84.98 28.0908 84.9388 28.0157 84.9388 27.9339V25.7513C84.9388 25.6697 84.98 25.5944 85.0469 25.5535L86.835 24.4631Z" fill="#F0F0F0"/>
<path d="M35.3134 14.6154L26.065 20.2552C25.7191 20.4659 25.5062 20.8557 25.5062 21.2772V32.5663C25.5062 32.9881 25.7191 33.3776 26.0646 33.5888L35.3129 39.2333C35.6587 39.4442 36.0848 39.4442 36.4308 39.2333L45.6811 33.5888C46.0269 33.3776 46.2397 32.9881 46.2397 32.5663V21.2777C46.2397 20.8556 46.0269 20.4659 45.6809 20.2552L36.4303 14.6154C36.2576 14.5098 36.0648 14.4572 35.8718 14.4572C35.6789 14.4572 35.4859 14.5098 35.3134 14.6154Z" fill="#F0F0F0"/>
<path opacity="0.660004" d="M45.6354 20.255L36.426 14.6149C36.3338 14.5586 36.2352 14.5186 36.1339 14.4923L25.7244 33.3063C25.812 33.4177 25.9176 33.5146 26.0387 33.5886L35.3031 39.2331C35.5793 39.4015 35.8989 39.4331 36.1929 39.3327L45.9184 20.5173C45.8423 20.4145 45.7492 20.3243 45.6354 20.255Z" fill="#F0F0F0"/>
<path d="M35.8056 14.4594C35.6359 14.4705 35.4682 14.5226 35.3161 14.6154L26.1538 20.2013L36.1071 39.3585C36.2112 39.3325 36.3129 39.292 36.4093 39.2332L45.6378 33.5887C45.9832 33.3775 46.1522 32.9881 46.1522 32.5662V32.5221L36.1687 14.5024C36.0686 14.4728 35.9654 14.458 35.8624 14.458C35.8434 14.458 35.8245 14.4584 35.8056 14.4594Z" fill="#F0F0F0"/>
</svg>
