<svg width="16" height="18" viewBox="0 0 16 18" fill="none" xmlns="http://www.w3.org/2000/svg">
<path d="M0.111436 8.87312L8.49224 0.492286C8.6408 0.343717 8.88234 0.343717 9.0309 0.492286C9.17947 0.640855 9.17947 0.882387 9.0309 1.03096L0.919781 9.14283L9.03165 17.2539C9.18022 17.4025 9.18022 17.644 9.03165 17.7926C8.95698 17.8673 8.85948 17.9046 8.76194 17.9046C8.66441 17.9046 8.56691 17.8673 8.49224 17.7933L0.111401 9.41251C-0.0371323 9.26319 -0.0371332 9.02244 0.111436 8.87312Z" fill="#D41028"/>
<path d="M6.96829 8.87312L15.3491 0.492286C15.4977 0.343717 15.7392 0.343717 15.8878 0.492286C16.0363 0.640855 16.0363 0.882387 15.8878 1.03096L7.77664 9.14283L15.8885 17.2539C16.0371 17.4025 16.0371 17.644 15.8885 17.7926C15.8138 17.8673 15.7163 17.9046 15.6188 17.9046C15.5213 17.9046 15.4238 17.8673 15.3491 17.7933L6.96826 9.41251C6.81972 9.26319 6.81972 9.02244 6.96829 8.87312Z" fill="#D41028"/>
</svg>
