<svg width="16" height="18" viewBox="0 0 16 18" fill="none" xmlns="http://www.w3.org/2000/svg">
<path d="M15.8886 8.87312L7.50778 0.492286C7.35921 0.343717 7.11768 0.343717 6.96911 0.492286C6.82054 0.640855 6.82054 0.882387 6.96911 1.03096L15.0802 9.14283L6.96836 17.2539C6.81979 17.4025 6.81979 17.644 6.96836 17.7926C7.04304 17.8673 7.14054 17.9046 7.23807 17.9046C7.3356 17.9046 7.4331 17.8673 7.50778 17.7933L15.8886 9.41251C16.0371 9.26319 16.0371 9.02244 15.8886 8.87312Z" fill="#D41028"/>
<path d="M9.03171 8.87312L0.650908 0.492286C0.502339 0.343717 0.260807 0.343717 0.112238 0.492286C-0.0363313 0.640855 -0.0363313 0.882387 0.112238 1.03096L8.22336 9.14283L0.111488 17.2539C-0.0370812 17.4025 -0.0370812 17.644 0.111488 17.7926C0.186165 17.8673 0.283664 17.9046 0.381198 17.9046C0.478732 17.9046 0.576231 17.8673 0.650908 17.7933L9.03174 9.41251C9.18028 9.26319 9.18028 9.02244 9.03171 8.87312Z" fill="#D41028"/>
</svg>
