<svg width="87" height="44" viewBox="0 0 87 44" fill="none" xmlns="http://www.w3.org/2000/svg">
<path d="M6.88223 9.4751H19.7804C23.5664 9.50698 26.3096 10.589 28.0102 12.7214C29.7106 14.8538 30.2722 17.7658 29.6946 21.4576C29.47 23.1444 28.9727 24.7993 28.2027 26.4224C27.4647 28.0456 26.4379 29.5095 25.1225 30.8144C23.5182 32.4693 21.8017 33.5196 19.9729 33.9652C18.144 34.4108 16.251 34.6335 14.2939 34.6335H8.51856L6.68972 43.704H0L6.88223 9.4751ZM12.5131 14.9173L9.62549 29.239C9.81798 29.2708 10.0105 29.2868 10.203 29.2868H10.8768C13.957 29.3186 16.5237 29.0162 18.5772 28.3797C20.6306 27.7114 22.0102 25.3881 22.7162 21.4098C23.2937 18.0681 22.7161 16.1427 20.9836 15.6334C19.283 15.1242 17.1494 14.8855 14.5826 14.9173C14.1976 14.9491 13.8286 14.9651 13.4757 14.9651C13.1548 14.9651 12.8179 14.9651 12.465 14.9651L12.5131 14.9173Z" fill="#F0F0F0"/>
<path d="M37.3171 0.359924H43.9587L42.0817 9.47808H48.0495C51.3222 9.54177 53.7606 10.2101 55.3649 11.4831C57.0012 12.7562 57.4825 15.175 56.8087 18.7395L53.5841 34.6365H46.8463L49.9265 19.4555C50.2473 17.8643 50.151 16.7344 49.6377 16.0661C49.1243 15.3977 48.0173 15.0635 46.3169 15.0635L40.9748 15.0158L37.0283 34.6365H30.3867L37.3171 0.359924Z" fill="#F0F0F0"/>
<path d="M63.9418 9.4751H76.84C80.6259 9.50698 83.3692 10.589 85.0697 12.7214C86.7702 14.8538 87.3317 17.7658 86.7542 21.4576C86.5296 23.1444 86.0323 24.7993 85.2622 26.4224C84.5243 28.0456 83.4975 29.5095 82.1821 30.8144C80.5778 32.4693 78.8613 33.5196 77.0325 33.9652C75.2036 34.4108 73.3106 34.6335 71.3534 34.6335H65.5781L63.7493 43.704H57.0596L63.9418 9.4751ZM69.5727 14.9173L66.685 29.239C66.8775 29.2708 67.0701 29.2868 67.2626 29.2868H67.9364C71.0165 29.3186 73.5833 29.0162 75.6368 28.3797C77.6902 27.7114 79.0698 25.3881 79.7757 21.4098C80.3532 18.0681 79.7757 16.1427 78.0431 15.6334C76.3426 15.1242 74.2089 14.8855 71.6422 14.9173C71.2571 14.9491 70.8882 14.9651 70.5352 14.9651C70.2144 14.9651 69.8775 14.9651 69.5246 14.9651L69.5727 14.9173Z" fill="#F0F0F0"/>
</svg>
