<svg width="161" height="48" viewBox="0 0 161 48" fill="none" xmlns="http://www.w3.org/2000/svg">
<path d="M60.0923 23.0336C60.0923 17.4673 58.5 14.6091 55.3157 14.4528C54.0483 14.3933 52.8104 14.5942 51.607 15.0602C50.6466 15.4032 49.9998 15.7423 49.6596 16.0849V29.3723C51.6968 30.6462 53.5059 31.2394 55.0837 31.1459C58.4214 30.9255 60.0923 28.2242 60.0923 23.0336ZM64.0212 23.2646C64.0212 26.0931 63.3558 28.4404 62.0178 30.3072C60.5263 32.4205 58.4592 33.508 55.8163 33.5679C53.8239 33.631 51.7721 33.009 49.66 31.7037V43.7805L46.2433 42.5657V15.7604C46.8039 15.075 47.5256 14.4865 48.4002 13.9872C50.4337 12.8061 52.9046 12.1987 55.8123 12.1689L55.8608 12.2172C58.5189 12.1838 60.567 13.2714 62.0062 15.4776C63.3485 17.5007 64.0212 20.0938 64.0212 23.2646Z" fill="#F0F0F0"/>
<path d="M84.9016 31.1908C84.9016 34.9835 84.521 37.6104 83.7581 39.0717C82.9917 40.5317 81.534 41.6979 79.3804 42.566C77.6346 43.2514 75.7476 43.6245 73.7216 43.6873L73.1574 41.5419C75.2171 41.2624 76.6665 40.9831 77.5079 40.7029C79.1642 40.1447 80.3007 39.2875 80.9243 38.1391C81.4262 37.2046 81.6729 35.4194 81.6729 32.778V31.8904C79.336 32.9489 76.8883 33.4743 74.3273 33.4743C72.6452 33.4743 71.1613 32.9489 69.8826 31.8904C68.4478 30.739 67.7303 29.2784 67.7303 27.5091V13.3348L71.1467 12.1686V26.4354C71.1467 27.9592 71.64 29.1327 72.6266 29.9562C73.6139 30.7797 74.8922 31.1753 76.4584 31.1452C78.0245 31.1108 79.703 30.5081 81.4862 29.3263V12.6825H84.9026V31.1908H84.9016Z" fill="#F0F0F0"/>
<path d="M98.2386 33.3815C97.8308 33.4152 97.4572 33.4294 97.1131 33.4294C95.1809 33.4294 93.6742 32.9717 92.5974 32.0513C91.5252 31.131 90.9872 29.86 90.9872 28.2394V14.8252H88.647V12.6828H90.9872V6.9932L94.3995 5.78204V12.6828H98.2386V14.8252H94.3995V28.1456C94.3995 29.4241 94.7433 30.329 95.4309 30.859C96.0214 31.2946 96.9596 31.5437 98.2386 31.6079V33.3815Z" fill="#F0F0F0"/>
<path d="M118.924 33.1015H115.508V19.9557C115.508 18.6183 115.193 17.4669 114.57 16.5056C113.848 15.4174 112.846 14.8734 111.561 14.8734C109.994 14.8734 108.036 15.697 105.684 17.3437V33.1015H102.268V1.67965L105.684 0.606628V14.9184C107.867 13.3348 110.253 12.5414 112.842 12.5414C114.652 12.5414 116.117 13.1487 117.239 14.3596C118.364 15.5704 118.924 17.0796 118.924 18.883V33.1015Z" fill="#F0F0F0"/>
<path d="M137.084 22.4973C137.084 20.3585 136.676 18.5925 135.865 17.1953C134.901 15.4927 133.402 14.5942 131.375 14.5013C127.63 14.7178 125.761 17.3926 125.761 22.5194C125.761 24.8706 126.15 26.8349 126.935 28.4109C127.937 30.4195 129.439 31.4102 131.443 31.3768C135.204 31.3468 137.084 28.3881 137.084 22.4973ZM140.825 22.5191C140.825 25.5643 140.044 28.0976 138.485 30.1204C136.769 32.3864 134.4 33.5225 131.375 33.5225C128.378 33.5225 126.042 32.3864 124.356 30.1204C122.827 28.0976 122.064 25.5643 122.064 22.5191C122.064 19.6579 122.89 17.2508 124.543 15.2908C126.289 13.2115 128.583 12.1686 131.421 12.1686C134.258 12.1686 136.567 13.2115 138.347 15.2908C139.999 17.2511 140.825 19.6582 140.825 22.5191Z" fill="#F0F0F0"/>
<path d="M160.413 33.1019H156.997V19.2111C156.997 17.687 156.536 16.4987 155.617 15.6411C154.698 14.7878 153.472 14.3744 151.943 14.4078C150.32 14.4375 148.777 14.967 147.311 15.9914V33.1015H143.894V15.5701C145.861 14.1431 147.671 13.2115 149.322 12.776C150.881 12.3695 152.256 12.1686 153.441 12.1686C154.252 12.1686 155.015 12.2466 155.733 12.4032C157.075 12.7125 158.166 13.2859 159.007 14.1282C159.945 15.0595 160.413 16.1774 160.413 17.4854V33.1019H160.413Z" fill="#F0F0F0"/>
<path d="M19.7822 6.81168C18.1312 6.81944 16.5543 6.95974 15.1667 7.20434C11.08 7.92415 10.3379 9.43052 10.3379 12.2089V15.8782H19.9964V17.1011H10.3379H6.7133C3.90639 17.1011 1.44857 18.7829 0.680047 21.9822C-0.206801 25.6492 -0.246348 27.9381 0.680047 31.7669C1.36667 34.617 3.00585 36.6479 5.81306 36.6479H9.13376V32.249C9.13376 29.0717 11.8918 26.2682 15.167 26.2682H24.814C27.4994 26.2682 29.6431 24.0643 29.6431 21.376V12.2089C29.6431 9.60031 27.435 7.63983 24.814 7.20434C23.1549 6.92901 21.4332 6.80392 19.7822 6.81168ZM14.5592 9.76265C15.5569 9.76265 16.3715 10.588 16.3715 11.6027C16.3715 12.614 15.5566 13.4319 14.5592 13.4319C13.5577 13.4319 12.7469 12.614 12.7469 11.6027C12.7469 10.588 13.5577 9.76265 14.5592 9.76265Z" fill="#F0F0F0"/>
<path d="M30.8468 17.1015V21.3763C30.8468 24.6911 28.0281 27.4803 24.8136 27.4803H15.1666C12.5241 27.4803 10.3375 29.7351 10.3375 32.3729V41.5405C10.3375 44.1491 12.6135 45.6844 15.1666 46.4324C18.2239 47.3285 21.1553 47.4909 24.8136 46.4324C27.2449 45.7309 29.6427 44.3183 29.6427 41.5405V37.871H19.9957V36.6483H29.6424H34.4711C37.2784 36.6483 38.3246 34.6968 39.3006 31.7673C40.3088 28.7511 40.2662 25.8507 39.3006 21.9825C38.6068 19.1973 37.2821 17.1015 34.4711 17.1015H30.8468ZM25.4214 40.3172C26.4226 40.3172 27.2337 41.1345 27.2337 42.1458C27.2337 43.1608 26.4226 43.9865 25.4214 43.9865C24.4237 43.9865 23.6091 43.1608 23.6091 42.1458C23.6091 41.1345 24.424 40.3172 25.4214 40.3172Z" fill="#F0F0F0"/>
</svg>
