<svg width="28" height="32" viewBox="0 0 28 32" fill="none" xmlns="http://www.w3.org/2000/svg">
<path d="M27.5484 10.3522H24.8387C24.5894 10.3522 24.3871 10.5766 24.3871 10.8541V11.3561H18.9677V6.83877C18.9677 6.56121 18.7654 6.33685 18.5161 6.33685H16.7097C16.4604 6.33685 16.2581 6.56121 16.2581 6.83877V11.3561H16.0255C15.797 11.3561 15.573 11.3852 15.3548 11.4374V7.84262C15.3548 7.56505 15.1525 7.34069 14.9032 7.34069H13.0968C12.8475 7.34069 12.6452 7.56505 12.6452 7.84262V11.6502L12.5128 11.5031C12.4284 11.4088 12.3132 11.3561 12.1935 11.3561H11.7419V8.84646C11.7419 8.56889 11.5396 8.34454 11.2903 8.34454H9.48387C9.23458 8.34454 9.03226 8.56889 9.03226 8.84646V11.3561H3.6129V10.8541C3.6129 10.5766 3.41058 10.3522 3.16129 10.3522H0.451613C0.202323 10.3522 0 10.5766 0 10.8541V22.9002C0 23.1778 0.202323 23.4022 0.451613 23.4022H3.16129C3.41058 23.4022 3.6129 23.1778 3.6129 22.9002V21.3945L4.69677 22.2979C4.7749 22.3632 4.87019 22.3983 4.96774 22.3983H5.68445L5.47445 22.6317C5.14748 22.9946 4.96774 23.4764 4.96774 23.9904C4.96774 25.0791 5.80594 25.962 6.776 25.9098C6.77464 25.9394 6.77419 25.9685 6.77419 25.9981C6.77419 27.0868 7.61058 27.9676 8.58245 27.9174C8.5811 27.9471 8.58064 27.9762 8.58064 28.0058C8.58064 29.0944 9.41523 29.9823 10.3889 29.9251C10.3875 29.9547 10.3871 29.9838 10.3871 30.0135C10.3871 31.0725 11.1625 31.9348 12.1163 31.9348C12.5779 31.9348 13.0119 31.7351 13.3388 31.3722L14 30.6368L14.6616 31.3722C14.9881 31.7351 15.4221 31.9348 15.8837 31.9348C16.8375 31.9348 17.6129 31.0725 17.6129 30.0135C17.6129 29.9808 17.6061 29.9502 17.6043 29.9181C17.6332 29.9196 17.6612 29.9271 17.6901 29.9271C18.6439 29.9271 19.4194 29.0648 19.4194 28.0058C19.4194 27.9732 19.4126 27.9425 19.4108 27.9104C19.4397 27.9119 19.4677 27.9194 19.4966 27.9194C20.4504 27.9194 21.2258 27.0571 21.2258 25.9981C21.2258 25.9655 21.219 25.9349 21.2172 25.9027C21.2461 25.9042 21.2741 25.9118 21.303 25.9118C22.2568 25.9118 23.0323 25.0495 23.0323 23.9904C23.0323 23.4769 22.8525 22.9946 22.5255 22.6317L22.316 22.3983H23.0323C23.1298 22.3983 23.2251 22.3632 23.3032 22.2979L24.3871 21.3945V22.9002C24.3871 23.1778 24.5894 23.4022 24.8387 23.4022H27.5484C27.7977 23.4022 28 23.1778 28 22.9002V10.8541C28 10.5766 27.7977 10.3522 27.5484 10.3522ZM17.1613 7.34069H18.0645V11.3561H17.1613V7.34069ZM13.5484 8.34454H14.4516V11.8249C14.2132 11.9774 13.9901 12.1631 13.7905 12.385L13.5484 12.654V8.34454ZM9.93548 9.34838H10.8387V11.3561H9.93548V9.34838ZM2.70968 22.3983H0.903226V11.3561H2.70968V22.3983ZM5.11813 21.3945L3.6129 20.1397V12.3599H9.48387H11.2903H12.0066L15.9225 16.7126C16.1388 16.953 16.2581 17.2727 16.2581 17.6125C16.2581 18.3137 15.7441 18.8849 15.1128 18.8849C14.8066 18.8849 14.5194 18.7524 14.303 18.5124L12.0612 16.0204C11.8919 15.8322 11.592 15.8322 11.4226 16.0204L6.58768 21.3945H5.11813ZM12.7003 30.6624C12.544 30.8356 12.3367 30.931 12.1163 30.931C11.6606 30.931 11.2903 30.5194 11.2903 30.0135C11.2903 29.772 11.3784 29.5356 11.5324 29.3645L12.1994 28.6231C12.217 28.6447 12.2301 28.6693 12.2486 28.6899L13.3614 29.9271L12.7003 30.6624ZM16.7097 30.0135C16.7097 30.5194 16.3394 30.931 15.8837 30.931C15.6633 30.931 15.4555 30.8356 15.2997 30.6624L12.8868 27.9802C12.7332 27.809 12.6452 27.5731 12.6452 27.3312C12.6452 26.8253 13.0155 26.4137 13.4712 26.4137C13.6915 26.4137 13.8993 26.5091 14.0551 26.6822L16.4681 29.3645C16.6216 29.5356 16.7097 29.7715 16.7097 30.0135ZM18.5161 28.0058C18.5161 28.5117 18.1458 28.9233 17.6901 28.9233C17.4697 28.9233 17.262 28.8279 17.1062 28.6548L14.6932 25.9725C14.5397 25.8013 14.4516 25.5654 14.4516 25.3235C14.4516 24.8176 14.8219 24.406 15.2776 24.406C15.498 24.406 15.7057 24.5014 15.8615 24.6745L18.2745 27.3568C18.4281 27.528 18.5161 27.7639 18.5161 28.0058ZM20.3226 25.9981C20.3226 26.504 19.9523 26.9156 19.4966 26.9156C19.2762 26.9156 19.0685 26.8202 18.9126 26.6471L16.4997 23.9648C16.3461 23.7937 16.2581 23.5578 16.2581 23.3158C16.2581 22.8099 16.6284 22.3983 17.0841 22.3983C17.3045 22.3983 17.5122 22.4937 17.668 22.6668L20.081 25.3491C20.2345 25.5203 20.3226 25.7562 20.3226 25.9981ZM21.303 24.9079C21.0826 24.9079 20.8749 24.8126 20.7191 24.6394L18.3061 21.9571C18.1526 21.786 18.0645 21.5501 18.0645 21.3081C18.0645 20.8022 18.4348 20.3906 18.8905 20.3906C19.1109 20.3906 19.3186 20.486 19.4745 20.6592L21.8874 23.3414C22.041 23.5126 22.129 23.7485 22.129 23.9904C22.129 24.4963 21.7587 24.9079 21.303 24.9079ZM22.8819 21.3945H21.4128L20.1126 19.9494C19.7861 19.5866 19.3521 19.3868 18.8905 19.3868C17.9367 19.3868 17.1613 20.2491 17.1613 21.3081C17.1613 21.3408 17.1681 21.3714 17.1699 21.4035C17.141 21.402 17.113 21.3945 17.0841 21.3945C16.1303 21.3945 15.3548 22.2568 15.3548 23.3158C15.3548 23.3485 15.3616 23.3791 15.3634 23.4112C15.3345 23.4097 15.3065 23.4022 15.2776 23.4022C14.3238 23.4022 13.5484 24.2645 13.5484 25.3235C13.5484 25.3561 13.5552 25.3868 13.557 25.4189C13.5281 25.4174 13.5001 25.4098 13.4712 25.4098C12.5174 25.4098 11.7419 26.2721 11.7419 27.3312C11.7419 27.4491 11.7537 27.5646 11.7722 27.6775L10.8938 28.6543C10.7375 28.8279 10.5303 28.9233 10.3099 28.9233C9.85419 28.9233 9.48387 28.5117 9.48387 28.0058C9.48387 27.7644 9.57193 27.528 9.72593 27.3568L10.7064 26.2666C10.7945 26.1687 10.8387 26.0403 10.8387 25.9118C10.8387 25.7833 10.7945 25.6548 10.7064 25.5569C10.5298 25.3607 10.2444 25.3607 10.0678 25.5569L9.08735 26.6471C8.9311 26.8202 8.72381 26.9156 8.50342 26.9156C8.04774 26.9156 7.67742 26.504 7.67742 25.9981C7.67742 25.7567 7.76548 25.5203 7.91948 25.3491L8.89994 24.2589C8.988 24.1611 9.03226 24.0326 9.03226 23.9041C9.03226 23.7756 8.988 23.6471 8.89994 23.5492C8.72336 23.353 8.43793 23.353 8.26135 23.5492L7.2809 24.6394C7.12464 24.8126 6.91736 24.9079 6.69697 24.9079C6.24129 24.9079 5.87097 24.4963 5.87097 23.9904C5.87097 23.749 5.95903 23.5126 6.11303 23.3414L11.7419 17.085L13.6645 19.2222C14.0515 19.6518 14.5654 19.8887 15.1128 19.8887C16.2423 19.8887 17.1613 18.8678 17.1613 17.6125C17.1613 17.0047 16.9481 16.4325 16.5611 16.0028L14.187 13.3637L14.429 13.0947C14.8554 12.6214 15.4221 12.3599 16.0255 12.3599H16.7097H18.5161H24.3871V20.1397L22.8819 21.3945ZM27.0968 22.3983H25.2903V11.3561H27.0968V22.3983Z" fill="#999999"/>
<path d="M8.76774 7.34069H11.2904C11.4101 7.34069 11.5253 7.28799 11.6097 7.19363L13.2839 5.33299H18.5162C18.6359 5.33299 18.7511 5.28029 18.8355 5.18593L21.2259 2.52924V4.32914H22.1292V1.3176C22.1292 1.04003 21.9268 0.815674 21.6775 0.815674H18.9679V1.81952H20.5873L18.3293 4.32914H13.0969C12.9772 4.32914 12.8621 4.38185 12.7776 4.47621L11.1035 6.33684H8.58077C8.46109 6.33684 8.34593 6.38954 8.26148 6.4839L6.00342 8.99353L6.642 9.70325L8.76774 7.34069Z" fill="#999999"/>
</svg>
