<svg width="28" height="32" viewBox="0 0 28 32" fill="none" xmlns="http://www.w3.org/2000/svg">
<path d="M28 1.16868C28 0.88238 27.7914 0.650024 27.5333 0.650024H0.466667C0.2086 0.650024 0 0.88238 0 1.16868V20.3588C0 20.6451 0.2086 20.8774 0.466667 20.8774H2.842C2.81633 21.0465 2.8 21.2192 2.8 21.3961C2.8 22.2145 3.08793 22.9578 3.55413 23.5143C3.1472 23.6009 2.7734 23.8177 2.47427 24.1475C2.08273 24.5796 1.86667 25.1527 1.86667 25.7616V31.2505C1.86667 31.5368 2.07527 31.7691 2.33333 31.7691H8.86667C9.12473 31.7691 9.33333 31.5368 9.33333 31.2505V26.0417C9.30253 24.745 8.60253 23.7622 7.61833 23.5475C8.10133 22.9878 8.4 22.2306 8.4 21.3961C8.4 21.2192 8.38367 21.0465 8.358 20.8774H11.2425C11.2163 21.0465 11.2 21.2192 11.2 21.3961C11.2 22.2145 11.4879 22.9578 11.9541 23.5143C11.5472 23.6009 11.1734 23.8177 10.8743 24.1475C10.4827 24.5796 10.2667 25.1527 10.2667 25.7616V31.2505C10.2667 31.5368 10.4753 31.7691 10.7333 31.7691H17.2667C17.5247 31.7691 17.7333 31.5368 17.7333 31.2505V26.0417C17.7025 24.745 17.0025 23.7622 16.0183 23.5475C16.5013 22.9878 16.8 22.2306 16.8 21.3961C16.8 21.2192 16.7837 21.0465 16.758 20.8774H19.6425C19.6163 21.0465 19.6 21.2192 19.6 21.3961C19.6 22.2145 19.8879 22.9578 20.3541 23.5143C19.9472 23.6009 19.5734 23.8177 19.2743 24.1475C18.8827 24.5796 18.6667 25.1527 18.6667 25.7616V31.2505C18.6667 31.5368 18.8753 31.7691 19.1333 31.7691H25.6667C25.9247 31.7691 26.1333 31.5368 26.1333 31.2505V26.0417C26.1025 24.745 25.4025 23.7622 24.4183 23.5475C24.9013 22.9878 25.2 22.2306 25.2 21.3961C25.2 21.2192 25.1837 21.0465 25.158 20.8774H27.5333C27.7914 20.8774 28 20.6451 28 20.3588V1.16868ZM8.4 26.0551V30.7318H2.8V25.7616C2.8 25.4312 2.9176 25.1195 3.1318 24.8835C3.35207 24.6413 3.6456 24.508 3.95873 24.508C3.962 24.508 3.96527 24.508 3.96853 24.508L4.58127 24.5137L4.20607 27.0162C4.18647 27.1464 4.2126 27.2797 4.27793 27.3891L5.21127 28.9451C5.29853 29.0893 5.44413 29.1759 5.6 29.1759C5.75587 29.1759 5.90147 29.0893 5.98827 28.9451L6.9216 27.3891C6.9874 27.2797 7.01307 27.1464 6.99347 27.0162L6.62107 24.5319L7.2212 24.5371C7.9044 24.5433 8.37853 25.1584 8.4 26.0551ZM5.60467 21.0735C6.11987 21.546 6.7508 21.8229 7.40833 21.8873C7.20813 22.7939 6.4764 23.4707 5.6 23.4707C4.7236 23.4707 3.99233 22.7939 3.79213 21.8883C4.45247 21.8255 5.08713 21.5486 5.60467 21.0735ZM3.80567 20.8557C4.02127 19.9745 4.73993 19.3215 5.6 19.3215C6.4596 19.3215 7.1778 19.974 7.39387 20.8541C6.84833 20.7748 6.3336 20.4781 5.94953 20.0097C5.77267 19.794 5.4362 19.794 5.25933 20.0097C4.8734 20.4807 4.35493 20.7784 3.80567 20.8557ZM6.0424 26.9841L5.6 27.7221L5.1576 26.9841L5.52673 24.522L5.67373 24.5236L6.0424 26.9841ZM16.8 26.0551V30.7318H11.2V25.7616C11.2 25.4312 11.3176 25.1195 11.5318 24.8835C11.7521 24.6413 12.0456 24.508 12.3587 24.508C12.362 24.508 12.3653 24.508 12.3685 24.508L12.9813 24.5137L12.6061 27.0162C12.5865 27.1464 12.6126 27.2797 12.6779 27.3891L13.6113 28.9451C13.6985 29.0893 13.8441 29.1759 14 29.1759C14.1559 29.1759 14.3015 29.0893 14.3883 28.9451L15.3216 27.3891C15.3874 27.2797 15.4131 27.1464 15.3935 27.0162L15.0211 24.5319L15.6212 24.5371C16.3044 24.5433 16.7785 25.1584 16.8 26.0551ZM14.0047 21.0735C14.5199 21.546 15.1508 21.8229 15.8083 21.8873C15.6081 22.7939 14.8764 23.4707 14 23.4707C13.1236 23.4707 12.3923 22.7939 12.1921 21.8883C12.8525 21.8255 13.4871 21.5486 14.0047 21.0735ZM12.2057 20.8557C12.4213 19.9745 13.1399 19.3215 14 19.3215C14.8596 19.3215 15.5778 19.974 15.7939 20.8541C15.2483 20.7748 14.7336 20.4781 14.3495 20.0097C14.1727 19.794 13.8362 19.794 13.6593 20.0097C13.2734 20.4807 12.7549 20.7784 12.2057 20.8557ZM14.4424 26.9841L14 27.7221L13.5576 26.9841L13.9267 24.522L14.0737 24.5236L14.4424 26.9841ZM25.2 26.0551V30.7318H19.6V25.7616C19.6 25.4312 19.7176 25.1195 19.9318 24.8835C20.1521 24.6413 20.4456 24.508 20.7587 24.508C20.762 24.508 20.7653 24.508 20.7685 24.508L21.3813 24.5137L21.0061 27.0162C20.9865 27.1464 21.0126 27.2797 21.0779 27.3891L22.0113 28.9451C22.0985 29.0893 22.2441 29.1759 22.4 29.1759C22.5559 29.1759 22.7015 29.0893 22.7883 28.9451L23.7216 27.3891C23.7874 27.2797 23.8131 27.1464 23.7935 27.0162L23.4211 24.5319L24.0212 24.5371C24.7044 24.5433 25.1785 25.1584 25.2 26.0551ZM22.4047 21.0735C22.9199 21.546 23.5508 21.8229 24.2083 21.8873C24.0081 22.7939 23.2764 23.4707 22.4 23.4707C21.5236 23.4707 20.7923 22.7939 20.5921 21.8883C21.2525 21.8255 21.8871 21.5486 22.4047 21.0735ZM20.6057 20.8557C20.8213 19.9745 21.5399 19.3215 22.4 19.3215C23.2596 19.3215 23.9778 19.974 24.1939 20.8541C23.6483 20.7748 23.1336 20.4781 22.7495 20.0097C22.5727 19.794 22.2362 19.794 22.0593 20.0097C21.6734 20.4807 21.1549 20.7784 20.6057 20.8557ZM22.8424 26.9841L22.4 27.7221L21.9576 26.9841L22.3267 24.522L22.4737 24.5236L22.8424 26.9841ZM27.0667 19.8401H24.8211C24.3362 18.9118 23.4337 18.2842 22.4 18.2842C21.3663 18.2842 20.4638 18.9118 19.9789 19.8401H16.4211C15.9362 18.9118 15.0337 18.2842 14 18.2842C12.9663 18.2842 12.0638 18.9118 11.5789 19.8401H8.02107C7.5362 18.9118 6.63367 18.2842 5.6 18.2842C4.56633 18.2842 3.6638 18.9118 3.17893 19.8401H0.933333V1.68733H27.0667V19.8401Z" fill="#999999"/>
<path d="M12.5997 7.39249C12.3421 7.39249 12.133 7.15962 12.133 6.87384H11.1997C11.1997 7.54913 11.5912 8.11965 12.133 8.33437V8.94846H13.0664V8.33437C13.6082 8.11965 13.9997 7.54913 13.9997 6.87384C13.9997 6.01599 13.3716 5.31788 12.5997 5.31788C12.3421 5.31788 12.133 5.085 12.133 4.79922C12.133 4.51345 12.3421 4.28057 12.5997 4.28057C12.8573 4.28057 13.0664 4.51345 13.0664 4.79922H13.9997C13.9997 4.12394 13.6082 3.55342 13.0664 3.3387V2.72461H12.133V3.3387C11.5912 3.55342 11.1997 4.12394 11.1997 4.79922C11.1997 5.65708 11.8278 6.35519 12.5997 6.35519C12.8573 6.35519 13.0664 6.58806 13.0664 6.87384C13.0664 7.15962 12.8573 7.39249 12.5997 7.39249Z" fill="#999999"/>
<path d="M11.9462 12.9935L17.3012 8.5305L20.3019 10.436C20.4783 10.5475 20.6981 10.5206 20.8474 10.3696L25.1996 5.97096V7.39206H26.1329V4.7988C26.1329 4.51251 25.9243 4.28015 25.6662 4.28015H23.3329V5.31745H24.459L20.4699 9.3479L17.4977 7.46052C17.3362 7.35783 17.1351 7.37132 16.9862 7.49579L11.3862 12.1637L11.9462 12.9935Z" fill="#999999"/>
<path d="M14.466 13.0979H13.5327V17.2471H14.466V13.0979Z" fill="#999999"/>
<path d="M17.7336 9.98584H16.8003V17.247H17.7336V9.98584Z" fill="#999999"/>
<path d="M21.0002 11.5415H20.0669V17.2467H21.0002V11.5415Z" fill="#999999"/>
<path d="M24.2668 8.94836H23.3335V17.2468H24.2668V8.94836Z" fill="#999999"/>
<path d="M2.33288 17.2469H8.86622C9.12429 17.2469 9.33289 17.0145 9.33289 16.7282V3.24326C9.33289 2.95697 9.12429 2.72461 8.86622 2.72461H2.33288C2.07481 2.72461 1.86621 2.95697 1.86621 3.24326V16.7282C1.86621 17.0145 2.07481 17.2469 2.33288 17.2469ZM6.53288 16.2096H4.66621V15.1722C4.66621 14.8865 4.87528 14.6536 5.13288 14.6536H6.06622C6.32382 14.6536 6.53288 14.8865 6.53288 15.1722V16.2096ZM2.79955 3.76191H8.39955V16.2096H7.46622V15.1722C7.46622 14.3144 6.83808 13.6163 6.06622 13.6163H5.13288C4.36101 13.6163 3.73288 14.3144 3.73288 15.1722V16.2096H2.79955V3.76191Z" fill="#999999"/>
<path d="M5.13304 4.79956H4.19971V5.83688H5.13304V4.79956Z" fill="#999999"/>
<path d="M7.00023 4.79956H6.06689V5.83688H7.00023V4.79956Z" fill="#999999"/>
<path d="M5.13304 6.87378H4.19971V7.9111H5.13304V6.87378Z" fill="#999999"/>
<path d="M7.00023 6.87378H6.06689V7.9111H7.00023V6.87378Z" fill="#999999"/>
<path d="M5.13304 8.94836H4.19971V9.98563H5.13304V8.94836Z" fill="#999999"/>
<path d="M7.00023 8.94836H6.06689V9.98563H7.00023V8.94836Z" fill="#999999"/>
<path d="M5.13304 11.0229H4.19971V12.0602H5.13304V11.0229Z" fill="#999999"/>
<path d="M7.00023 11.0229H6.06689V12.0602H7.00023V11.0229Z" fill="#999999"/>
</svg>
