<svg width="24" height="24" viewBox="0 0 24 24" fill="none" xmlns="http://www.w3.org/2000/svg">
<g clip-path="url(#clip0_1620_7362)">
<path d="M24 12C24 18.6667 18.6667 24 12 24C5.33333 24 0 18.6667 0 12C0 5.33333 5.33333 0 12 0C18.6667 0 24 5.33333 24 12ZM9.86667 18.2667C15.2 18.2667 18.1333 13.8667 18.1333 10C18.1333 9.86667 18.1333 9.73333 18.1333 9.6C18.6667 9.2 19.2 8.66667 19.6 8.13333C19.0667 8.4 18.5333 8.53333 18 8.53333C18.5333 8.13333 19.0667 7.6 19.3333 6.93333C18.8 7.2 18.1333 7.46667 17.4667 7.6C16.9333 7.06667 16.1333 6.66667 15.3333 6.66667C13.7333 6.66667 12.4 8 12.4 9.6C12.4 9.86667 12.4 10 12.5333 10.2667C10.1333 10.1333 8 8.93333 6.53333 7.2C6.13333 7.86667 6 8.26667 6 8.8C6 9.86667 6.53333 10.6667 7.33333 11.2C6.8 11.2 6.4 11.0667 6 10.8C6 12.2667 6.93333 13.3333 8.26667 13.6C8 13.6 7.73333 13.7333 7.46667 13.7333C7.33333 13.7333 7.06667 13.7333 6.93333 13.7333C7.33333 14.9333 8.4 15.7333 9.6 15.7333C8.66667 16.5333 7.33333 16.9333 6 16.9333C5.73333 16.9333 5.6 16.9333 5.33333 16.9333C6.66667 17.8667 8.13333 18.2667 9.86667 18.2667Z" fill="#00ACEE"/>
</g>
<defs>
<clipPath id="clip0_1620_7362">
<rect width="24" height="24" fill="white"/>
</clipPath>
</defs>
</svg>
