<svg width="86" height="100" viewBox="0 0 86 100" fill="none" xmlns="http://www.w3.org/2000/svg">
<path d="M82.1404 98.1929H2.17721C1.78136 98.1929 1.3855 98.4941 1.3855 98.9961C1.3855 99.4981 1.68239 99.7993 2.17721 99.7993H82.1404C82.5362 99.7993 82.9321 99.4981 82.9321 98.9961C82.9321 98.4941 82.5362 98.1929 82.1404 98.1929Z" fill="#D41028"/>
<path d="M41.0702 7.22874C40.6744 7.83115 40.5754 8.43356 40.6744 9.03597C40.7733 9.63838 41.0702 10.2408 41.664 10.6424C42.1588 11.044 42.7526 11.1444 43.4454 11.044C44.0392 10.9436 44.6329 10.6424 45.0288 10.04C45.8205 8.93557 45.5236 7.42954 44.534 6.72673C43.3464 5.92352 41.8619 6.22472 41.0702 7.22874ZM43.7423 9.23677C43.6433 9.43758 43.4454 9.53798 43.1485 9.63838H43.0495C42.8516 9.63838 42.6537 9.53798 42.5547 9.43758C42.3568 9.33717 42.2578 9.13637 42.1588 8.83517C42.1588 8.63436 42.1588 8.33316 42.3568 8.13236C42.5547 7.73075 43.1485 7.63035 43.5443 7.93155C43.9402 8.23276 43.9402 8.83517 43.7423 9.23677Z" fill="#D41028"/>
<path d="M35.2312 6.02392C35.5281 6.22473 36.0229 6.12432 36.2209 5.82312C36.3198 5.72272 38.2002 2.91147 41.268 2.40946C43.2473 2.10826 45.3256 2.71067 47.4038 4.4175C47.6018 4.5179 47.7997 4.6183 47.9976 4.5179C48.1955 4.5179 48.3935 4.4175 48.4924 4.21669C48.5914 4.01589 48.6904 3.81509 48.5914 3.61428C48.5914 3.41348 48.4924 3.21268 48.2945 3.11228C46.3152 1.50585 44.237 0.702637 42.2577 0.702637C41.8618 0.702637 41.367 0.702637 40.9712 0.803038C37.2105 1.40545 35.0333 4.7187 34.9343 4.9195C34.8354 5.32111 34.9343 5.72272 35.2312 6.02392Z" fill="#D41028"/>
<path d="M4.65133 94.6787H39.6847C40.0806 94.6787 40.4764 94.3775 40.4764 93.8755V85.5422C40.4764 85.5422 40.4764 84.8394 40.8723 84.3374C41.1692 84.0362 41.565 83.8354 42.2578 83.8354C43.4453 83.8354 43.9402 84.3374 43.9402 85.5422V93.7751C43.9402 94.1767 44.2371 94.5783 44.7319 94.5783H44.8308H44.9298H79.7653C80.1611 94.5783 80.557 94.2771 80.557 93.7751C80.557 93.2731 80.2601 92.9719 79.7653 92.9719H76.4994L78.0829 75.6024C78.0829 75.502 78.0829 75.502 78.0829 75.4016V75.3012C78.0829 75.2008 77.9839 75.2008 77.9839 75.1004L77.8849 75L77.786 74.8996C77.687 74.8996 77.687 74.7992 77.687 74.7992L77.588 74.6988H77.4891H77.3901H64.1289V54.1165H65.0196C65.4154 54.1165 65.8113 53.8153 65.8113 53.3133C65.8113 52.8113 65.5144 52.5101 65.0196 52.5101H56.0138V41.6667H56.9045C57.3004 41.6667 57.6962 41.3655 57.6962 40.8635C57.6962 40.3615 57.3004 40.1607 56.8055 40.1607H46.2163V35.241L48.5915 30.5221C48.6905 30.3213 48.6905 30.1205 48.5915 29.9197C48.4925 29.7189 48.2946 29.5181 48.0967 29.5181L47.0081 29.2169L45.4246 18.0723L48.3936 15.0602C48.4925 14.9598 48.4925 14.8594 48.5915 14.759L49.2842 12.5502L51.5604 11.0442C51.7583 10.9438 51.8573 10.6426 51.8573 10.4418V4.51808C51.8573 4.21687 51.6594 3.91567 51.3625 3.81527C51.0656 3.71487 50.7687 3.81527 50.5708 4.01607L44.336 11.9478L41.565 11.4458L36.023 7.32932C35.7261 7.12852 35.4292 7.12852 35.1323 7.32932L31.8665 9.83936C31.6686 10.0402 31.5696 10.241 31.5696 10.4418C31.5696 10.743 31.7676 10.9438 31.9655 11.0442L37.5075 14.257L39.7837 18.7751V18.8755L38.2992 28.8153L36.3199 29.5181C36.122 29.6185 35.9241 29.7189 35.8251 29.9197C35.7261 30.1205 35.7261 30.3213 35.8251 30.5221L38.2002 35.3414V40.1607H27.5121C27.1162 40.1607 26.7204 40.4619 26.7204 40.9639C26.7204 41.4659 27.0173 41.7671 27.5121 41.7671H28.4028V52.7109H19.397C19.0012 52.7109 18.6053 53.0121 18.6053 53.5141C18.6053 54.0161 18.9022 54.3173 19.397 54.3173H20.2877V75.2008H7.12544C7.02648 75.2008 7.02648 75.2008 7.02648 75.2008H6.92751H6.82855H6.72958C6.72958 75.2008 6.63062 75.2008 6.63062 75.3012C6.53166 75.3012 6.53166 75.4016 6.53166 75.4016C6.53166 75.4016 6.53166 75.4016 6.43269 75.502C6.43269 75.6024 6.33373 75.6024 6.33373 75.6024V75.7028C6.33373 75.7028 6.33373 75.7028 6.33373 75.8032V76.004V76.1044L7.91716 93.1727H4.65133C4.25548 93.1727 3.85962 93.4739 3.85962 93.9759C3.85962 94.4779 4.25548 94.6787 4.65133 94.6787ZM9.40162 93.1727L8.31301 80.6225L13.3602 93.1727H9.40162ZM23.0587 86.5462H20.3867L18.7043 82.2289H21.2773L23.0587 86.5462ZM22.8608 82.2289H25.3349L27.1162 86.5462H24.7411L22.8608 82.2289ZM18.8032 86.5462H16.3291L14.6467 82.2289H17.1208L18.8032 86.5462ZM14.7457 86.5462H12.2716L10.5892 82.2289H13.0633L14.7457 86.5462ZM14.9436 93.1727L12.8654 88.0522H15.3395L17.4177 93.1727H14.9436ZM19.0012 93.1727L16.9229 88.0522H19.397L21.4753 93.1727H19.0012ZM33.252 93.1727H31.4707V83.9358H33.252V93.1727ZM36.5178 93.1727H34.7365V80.6225H36.5178V93.1727ZM35.5282 79.1165L36.5178 78.6145C39.2888 77.2088 43.4453 76.1044 48.0967 78.6145L48.9873 79.1165H35.5282ZM46.3153 93.1727H45.3257V85.6426C45.3257 83.5341 44.2371 82.4297 42.1588 82.4297C40.8723 82.4297 40.0806 82.9317 39.6847 83.4337C38.794 84.4378 38.893 85.6426 38.893 85.6426V93.1727H37.9033V80.6225H46.2163V93.1727H46.3153ZM49.5811 93.1727H47.7998V80.6225H49.5811V93.1727ZM52.847 93.1727H51.0656V83.9358H52.847V93.1727ZM62.8424 93.1727L64.9206 88.0522H67.3947L65.3165 93.1727H62.8424ZM63.0403 82.2289H65.6134L63.931 86.5462H61.2589L63.0403 82.2289ZM59.5765 86.5462H57.1024L58.9827 82.2289H59.2796H61.4569L59.5765 86.5462ZM67.9885 86.5462H65.5144L67.1968 82.2289H69.6709L67.9885 86.5462ZM71.3533 82.2289H73.8274L72.145 86.5462H69.6709L71.3533 82.2289ZM66.8999 93.1727L68.9781 88.0522H71.4522L69.374 93.1727H66.8999ZM74.916 93.1727H70.9574L76.0046 80.6225L74.916 93.1727ZM76.1036 76.506L74.4212 80.8233H71.9471L73.6295 76.506H76.1036ZM72.046 76.506L70.3636 80.8233H67.8895L69.5719 76.506H72.046ZM65.5144 76.506H67.9885L66.3061 80.8233H63.733L65.5144 76.506ZM62.0506 80.7229H59.5765L61.3579 76.4056H63.832L62.0506 80.7229ZM55.9149 54.1165H62.5455V75H55.9149V54.1165ZM55.2221 76.506H59.7745L55.3211 87.0482V87.1486V87.249V87.3494V87.4498C55.3211 87.5502 55.3211 87.6506 55.3211 87.6506C55.3211 87.6506 55.3211 87.751 55.42 87.751L55.519 87.8514C55.618 87.9518 55.7169 88.0522 55.8159 88.0522C55.9149 88.0522 56.0138 88.0522 56.1128 88.0522H63.3372L61.2589 93.1727H54.3314V83.9358H54.5294C54.9252 83.8354 55.1231 83.5341 55.1231 83.2329C55.1231 82.8313 54.8262 82.4297 54.3314 82.4297H50.9666V80.6225H51.8573C52.2532 80.6225 52.649 80.3213 52.649 79.8193C52.649 79.4177 52.3521 79.1165 52.0552 79.1165H51.8573V72.3896C51.8573 71.988 51.5604 71.5864 51.0656 71.5864C50.5708 71.5864 50.2739 71.8876 50.2739 72.3896V73.2932H49.2842V69.8795C49.2842 69.4779 48.9873 69.0763 48.4925 69.0763C47.9977 69.0763 47.7008 69.3775 47.7008 69.8795V72.8916L45.9195 72.1888V46.6868H54.4304V75.7028C54.4304 76.1044 54.8262 76.506 55.2221 76.506ZM52.649 41.6667H54.4304V45.1807H52.649V41.6667ZM49.4822 41.6667H51.1646V45.1807H49.4822V41.6667ZM47.9977 41.6667V45.1807H46.2163V41.7671H47.9977V41.6667ZM45.1277 34.1366L44.9298 34.0362C44.0391 33.6345 43.2474 33.4337 42.3567 33.4337H42.1588V29.5181L46.9091 30.7229L45.1277 34.1366ZM42.9505 65.5623V63.253C42.9505 62.8514 42.6536 62.4498 42.1588 62.4498C41.664 62.4498 41.3671 62.751 41.3671 63.253V65.6627L39.5857 70.4819V35.5422L39.6847 35.4418C40.3774 35.0402 42.1588 34.3374 44.435 35.4418L44.534 35.5422V70.3815L42.9505 65.5623ZM43.5443 71.6868H40.7733L42.1588 67.9719L43.5443 71.6868ZM45.4246 28.8153L41.565 27.8113C41.4661 27.8113 41.2681 27.8113 41.1692 27.8113L39.8826 28.2129L41.3671 18.4739H44.0391L45.4246 28.8153ZM38.794 13.3534C38.6951 13.253 38.5961 13.1526 38.4971 13.0522L33.7468 10.3414L35.6272 8.83535L40.8723 12.751C40.9712 12.8514 41.0702 12.8514 41.1692 12.8514L44.435 13.5542C44.7319 13.6546 45.0288 13.5542 45.1277 13.253L50.3728 6.62651V9.83936L48.2946 11.245C48.1956 11.3454 48.0967 11.4458 47.9977 11.6466L47.206 13.9558L44.336 17.0683H40.5754L38.794 13.3534ZM37.5075 30.6225L40.5754 29.6185V33.6345L40.3775 33.7349C40.0806 33.8354 39.6847 33.9358 39.3878 34.1366H39.1899L37.5075 30.6225ZM39.8826 73.1928H44.534L48.3936 74.7992C48.4925 74.7992 48.5915 74.8996 48.6905 74.8996H50.3728V78.3133L49.977 78.0121C43.4453 73.6948 37.3096 76.2048 34.2417 78.1125L33.8458 78.3133V74.7992H35.6272C35.7261 74.7992 35.8251 74.7992 35.9241 74.7992L39.8826 73.1928ZM36.4189 41.6667H38.2002V45.1807H36.4189V41.6667ZM33.1531 41.6667H34.8355V45.1807H33.1531V41.6667ZM29.8872 41.6667H31.6686V45.1807H29.8872V41.6667ZM29.0955 76.506C29.4914 76.506 29.8872 76.2048 29.8872 75.7028V46.6868H38.2002V72.2892L36.4189 72.992V69.9799C36.4189 69.5783 36.122 69.1767 35.6272 69.1767C35.1323 69.1767 34.8355 69.4779 34.8355 69.9799V73.2932H33.8458V72.3896C33.8458 71.988 33.5489 71.5864 33.0541 71.5864C32.5593 71.5864 32.2624 71.8876 32.2624 72.3896V79.1165H32.0645C31.6686 79.2169 31.4707 79.5181 31.4707 79.8193C31.4707 80.2209 31.7676 80.6225 32.2624 80.6225H33.1531V82.4297H29.7883C29.3924 82.4297 28.9966 82.7309 28.9966 83.2329C28.9966 83.6346 29.2934 83.9358 29.5903 83.9358H29.7883V93.1727H22.8608L20.7825 88.0522H28.1059C28.2048 88.0522 28.3038 88.0522 28.4028 87.9518C28.5017 87.9518 28.6007 87.8514 28.6007 87.751L28.6997 87.6506C28.7986 87.5502 28.7986 87.5502 28.7986 87.5502C28.7986 87.4498 28.7986 87.4498 28.7986 87.3494V87.249V87.0482V86.9478L24.3452 76.4056H29.0955V76.506ZM21.6732 54.1165H28.3038V75H21.6732V54.1165ZM22.9597 76.506L24.7411 80.8233H22.267L20.4856 76.506H22.9597ZM18.8032 76.506L20.5846 80.8233H18.0115L16.3291 76.506H18.8032ZM14.7457 76.506L16.4281 80.8233H13.954L12.2716 76.506H14.7457ZM10.6882 76.506L12.3706 80.8233H9.89644L8.21405 76.506H10.6882Z" fill="#D41028"/>
<path d="M32.3615 53.3132C32.7573 53.3132 33.1532 53.012 33.1532 52.51V49.1968C33.1532 48.7952 32.8563 48.3936 32.3615 48.3936C31.8666 48.3936 31.6687 48.7952 31.6687 49.1968V52.51C31.6687 52.9116 31.9656 53.3132 32.3615 53.3132Z" fill="#D41028"/>
<path d="M25.0381 56.7271C24.6422 56.7271 24.2463 57.0283 24.2463 57.5303V60.0403C24.2463 60.4419 24.5432 60.8435 25.0381 60.8435C25.5329 60.8435 25.8298 60.5423 25.8298 60.0403V57.5303C25.7308 57.1287 25.4339 56.7271 25.0381 56.7271Z" fill="#D41028"/>
<path d="M25.0381 62.5503C24.6422 62.5503 24.2463 62.8515 24.2463 63.3535V65.8635C24.2463 66.2652 24.5432 66.6668 25.0381 66.6668C25.5329 66.6668 25.8298 66.3656 25.8298 65.8635V63.3535C25.7308 62.8515 25.4339 62.5503 25.0381 62.5503Z" fill="#D41028"/>
<path d="M25.0381 68.3735C24.6422 68.3735 24.2463 68.6747 24.2463 69.1768V71.6868C24.2463 72.0884 24.5432 72.49 25.0381 72.49C25.5329 72.49 25.8298 72.1888 25.8298 71.6868V69.1768C25.7308 68.6747 25.4339 68.3735 25.0381 68.3735Z" fill="#D41028"/>
<path d="M59.2795 56.7271C58.8837 56.7271 58.4878 57.0283 58.4878 57.5303V60.0403C58.4878 60.4419 58.7847 60.8435 59.2795 60.8435C59.7743 60.8435 60.0712 60.5423 60.0712 60.0403V57.5303C60.0712 57.1287 59.6754 56.7271 59.2795 56.7271Z" fill="#D41028"/>
<path d="M59.2795 62.5503C58.8837 62.5503 58.4878 62.8515 58.4878 63.3535V65.8635C58.4878 66.2652 58.7847 66.6668 59.2795 66.6668C59.7743 66.6668 60.0712 66.3656 60.0712 65.8635V63.3535C60.0712 62.8515 59.6754 62.5503 59.2795 62.5503Z" fill="#D41028"/>
<path d="M59.2795 68.3735C58.8837 68.3735 58.4878 68.6747 58.4878 69.1768V71.6868C58.4878 72.0884 58.7847 72.49 59.2795 72.49C59.7743 72.49 60.0712 72.1888 60.0712 71.6868V69.1768C60.0712 68.6747 59.6754 68.3735 59.2795 68.3735Z" fill="#D41028"/>
<path d="M35.6272 53.3132C36.023 53.3132 36.4189 53.012 36.4189 52.51V49.1968C36.4189 48.7952 36.122 48.3936 35.6272 48.3936C35.1323 48.3936 34.8354 48.6948 34.8354 49.1968V52.51C34.9344 52.9116 35.2313 53.3132 35.6272 53.3132Z" fill="#D41028"/>
<path d="M32.3615 59.9397C32.7573 59.9397 33.1532 59.6385 33.1532 59.1365V55.8232C33.1532 55.4216 32.8563 55.02 32.3615 55.02C31.8666 55.02 31.6687 55.4216 31.6687 55.8232V59.1365C31.6687 59.5381 31.9656 59.9397 32.3615 59.9397Z" fill="#D41028"/>
<path d="M35.6272 59.9397C36.023 59.9397 36.4189 59.6385 36.4189 59.1365V55.8232C36.4189 55.4216 36.122 55.02 35.6272 55.02C35.1323 55.02 34.8354 55.3212 34.8354 55.8232V59.1365C34.9344 59.5381 35.2313 59.9397 35.6272 59.9397Z" fill="#D41028"/>
<path d="M32.3615 66.5662C32.7573 66.5662 33.1532 66.265 33.1532 65.7629V62.4497C33.1532 62.0481 32.8563 61.6465 32.3615 61.6465C31.8666 61.6465 31.6687 62.0481 31.6687 62.4497V65.7629C31.6687 66.1646 31.9656 66.5662 32.3615 66.5662Z" fill="#D41028"/>
<path d="M35.6272 66.5662C36.023 66.5662 36.4189 66.265 36.4189 65.7629V62.4497C36.4189 62.0481 36.122 61.6465 35.6272 61.6465C35.1323 61.6465 34.8354 61.9477 34.8354 62.4497V65.7629C34.9344 66.1646 35.2313 66.5662 35.6272 66.5662Z" fill="#D41028"/>
<path d="M48.6904 48.4941C48.2945 48.4941 47.8987 48.7953 47.8987 49.2974V52.6106C47.8987 53.0122 48.1956 53.4138 48.6904 53.4138C49.1852 53.4138 49.4821 53.1126 49.4821 52.6106V49.197C49.4821 48.7953 49.0863 48.4941 48.6904 48.4941Z" fill="#D41028"/>
<path d="M51.9563 48.4941C51.5604 48.4941 51.1646 48.7953 51.1646 49.2974V52.6106C51.1646 53.0122 51.4614 53.4138 51.9563 53.4138C52.4511 53.4138 52.748 53.1126 52.748 52.6106V49.197C52.649 48.7953 52.3521 48.4941 51.9563 48.4941Z" fill="#D41028"/>
<path d="M48.6904 55.1206C48.2945 55.1206 47.8987 55.4218 47.8987 55.9238V59.2371C47.8987 59.6387 48.1956 60.0403 48.6904 60.0403C49.1852 60.0403 49.4821 59.7391 49.4821 59.2371V55.9238C49.4821 55.4218 49.0863 55.1206 48.6904 55.1206Z" fill="#D41028"/>
<path d="M51.9563 55.1206C51.5604 55.1206 51.1646 55.4218 51.1646 55.9238V59.2371C51.1646 59.6387 51.4614 60.0403 51.9563 60.0403C52.4511 60.0403 52.748 59.7391 52.748 59.2371V55.9238C52.649 55.4218 52.3521 55.1206 51.9563 55.1206Z" fill="#D41028"/>
<path d="M48.6904 61.7471C48.2945 61.7471 47.8987 62.0483 47.8987 62.5503V65.8635C47.8987 66.2651 48.1956 66.6668 48.6904 66.6668C49.1852 66.6668 49.4821 66.3655 49.4821 65.8635V62.5503C49.4821 62.0483 49.0863 61.7471 48.6904 61.7471Z" fill="#D41028"/>
<path d="M51.9563 61.7471C51.5604 61.7471 51.1646 62.0483 51.1646 62.5503V65.8635C51.1646 66.2651 51.4614 66.6668 51.9563 66.6668C52.4511 66.6668 52.748 66.3655 52.748 65.8635V62.5503C52.649 62.0483 52.3521 61.7471 51.9563 61.7471Z" fill="#D41028"/>
</svg>
