<svg width="86" height="100" viewBox="0 0 86 100" fill="none" xmlns="http://www.w3.org/2000/svg">
<g clip-path="url(#clip0)">
<path d="M67.1969 91.3656C67.5927 91.3656 67.9886 91.0644 67.9886 90.5624V87.0483C67.9886 86.6467 67.6917 86.2451 67.1969 86.2451C66.702 86.2451 66.4052 86.5463 66.4052 87.0483V90.5624C66.5041 90.964 66.801 91.3656 67.1969 91.3656Z" fill="#D41028"/>
<path d="M70.6606 91.3656C71.0565 91.3656 71.4523 91.0644 71.4523 90.5624V87.0483C71.4523 86.6467 71.1554 86.2451 70.6606 86.2451C70.1658 86.2451 69.8689 86.5463 69.8689 87.0483V90.5624C69.9679 90.964 70.2648 91.3656 70.6606 91.3656Z" fill="#D41028"/>
<path d="M74.1244 91.3656C74.5202 91.3656 74.9161 91.0644 74.9161 90.5624V87.0483C74.9161 86.6467 74.6192 86.2451 74.1244 86.2451C73.6295 86.2451 73.3326 86.5463 73.3326 87.0483V90.5624C73.3326 90.964 73.7285 91.3656 74.1244 91.3656Z" fill="#D41028"/>
<path d="M67.1969 82.6307C67.5927 82.6307 67.9886 82.3295 67.9886 81.8275V78.3135C67.9886 77.9119 67.6917 77.5103 67.1969 77.5103C66.702 77.5103 66.4052 77.8115 66.4052 78.3135V81.8275C66.5041 82.3295 66.801 82.6307 67.1969 82.6307Z" fill="#D41028"/>
<path d="M59.4776 77.6108C59.0818 77.6108 58.6859 77.912 58.6859 78.414V81.9281C58.6859 82.3297 58.9828 82.7313 59.4776 82.7313C59.9724 82.7313 60.2693 82.4301 60.2693 81.9281V78.414C60.2693 78.0124 59.9724 77.6108 59.4776 77.6108Z" fill="#D41028"/>
<path d="M59.4776 86.3457C59.0818 86.3457 58.6859 86.6469 58.6859 87.1489V90.663C58.6859 91.0646 58.9828 91.4662 59.4776 91.4662C59.9724 91.4662 60.2693 91.165 60.2693 90.663V87.1489C60.2693 86.6469 59.9724 86.3457 59.4776 86.3457Z" fill="#D41028"/>
<path d="M70.6606 82.6307C71.0565 82.6307 71.4523 82.3295 71.4523 81.8275V78.3135C71.4523 77.9119 71.1554 77.5103 70.6606 77.5103C70.1658 77.5103 69.8689 77.8115 69.8689 78.3135V81.8275C69.9679 82.3295 70.2648 82.6307 70.6606 82.6307Z" fill="#D41028"/>
<path d="M74.1244 82.6307C74.5202 82.6307 74.9161 82.3295 74.9161 81.8275V78.3135C74.9161 77.9119 74.6192 77.5103 74.1244 77.5103C73.6295 77.5103 73.3326 77.8115 73.3326 78.3135V81.8275C73.3326 82.3295 73.7285 82.6307 74.1244 82.6307Z" fill="#D41028"/>
<path d="M67.1969 73.8959C67.5927 73.8959 67.9886 73.5947 67.9886 73.0927V69.5786C67.9886 69.177 67.6917 68.7754 67.1969 68.7754C66.702 68.7754 66.4052 69.0766 66.4052 69.5786V73.0927C66.5041 73.5947 66.801 73.8959 67.1969 73.8959Z" fill="#D41028"/>
<path d="M70.6606 73.8959C71.0565 73.8959 71.4523 73.5947 71.4523 73.0927V69.5786C71.4523 69.177 71.1554 68.7754 70.6606 68.7754C70.1658 68.7754 69.8689 69.0766 69.8689 69.5786V73.0927C69.9679 73.5947 70.2648 73.8959 70.6606 73.8959Z" fill="#D41028"/>
<path d="M74.1244 73.8959C74.5202 73.8959 74.9161 73.5947 74.9161 73.0927V69.5786C74.9161 69.177 74.6192 68.7754 74.1244 68.7754C73.6295 68.7754 73.3326 69.0766 73.3326 69.5786V73.0927C73.3326 73.5947 73.7285 73.8959 74.1244 73.8959Z" fill="#D41028"/>
<path d="M67.1969 65.2611C67.5927 65.2611 67.9886 64.9599 67.9886 64.4579V60.9438C67.9886 60.5422 67.6917 60.1406 67.1969 60.1406C66.702 60.1406 66.4052 60.4418 66.4052 60.9438V64.4579C66.5041 64.8595 66.801 65.2611 67.1969 65.2611Z" fill="#D41028"/>
<path d="M70.6606 65.2611C71.0565 65.2611 71.4523 64.9599 71.4523 64.4579V60.9438C71.4523 60.5422 71.1554 60.1406 70.6606 60.1406C70.1658 60.1406 69.8689 60.4418 69.8689 60.9438V64.4579C69.9679 64.8595 70.2648 65.2611 70.6606 65.2611Z" fill="#D41028"/>
<path d="M74.1244 65.2611C74.5202 65.2611 74.9161 64.9599 74.9161 64.4579V60.9438C74.9161 60.5422 74.6192 60.1406 74.1244 60.1406C73.6295 60.1406 73.3326 60.4418 73.3326 60.9438V64.4579C73.3326 64.8595 73.7285 65.2611 74.1244 65.2611Z" fill="#D41028"/>
<path d="M67.1969 56.5262C67.5927 56.5262 67.9886 56.225 67.9886 55.723V52.209C67.9886 51.8074 67.6917 51.4058 67.1969 51.4058C66.702 51.4058 66.4052 51.707 66.4052 52.209V55.723C66.5041 56.225 66.801 56.5262 67.1969 56.5262Z" fill="#D41028"/>
<path d="M24.5432 93.1721C24.5432 93.5737 24.8401 93.9753 25.3349 93.9753H81.9425C82.3384 93.9753 82.7342 93.6741 82.7342 93.1721C82.7342 92.6701 82.4373 92.3689 81.9425 92.3689H78.3798V50.5014H81.0518C81.4477 50.5014 81.8436 50.2002 81.8436 49.6982V29.7183C81.8436 29.3167 81.5467 28.9151 81.0518 28.9151C80.557 28.9151 80.1612 29.3167 80.1612 29.7183V31.5255H78.1819V26.2042C78.1819 26.1038 78.1819 25.903 78.0829 25.8026L74.8171 20.7825V14.9592C74.8171 14.8588 74.8171 14.7584 74.8171 14.7584L71.4523 4.31666V1.00341C71.4523 0.601802 71.1554 0.200195 70.6606 0.200195C70.1658 0.200195 69.9678 0.601802 69.9678 1.00341V4.41706L66.6031 14.658C66.6031 14.7584 66.6031 14.8588 66.6031 14.8588V20.6821L63.3372 25.7022C63.2383 25.8026 63.2383 26.0034 63.2383 26.1038V31.4251H61.259V29.6179C61.259 29.2163 60.9621 28.8147 60.4673 28.8147C59.9724 28.8147 59.6755 29.1159 59.6755 29.6179V49.5978C59.6755 49.9994 59.9724 50.401 60.4673 50.401H63.1393V61.9472H56.0139V59.2363C56.0139 58.8347 55.717 58.4331 55.2222 58.4331C54.7273 58.4331 54.4304 58.7343 54.4304 59.2363V61.9472H47.305V59.2363C47.305 58.8347 47.0081 58.4331 46.5133 58.4331C46.0185 58.4331 45.7216 58.7343 45.7216 59.2363V61.9472H38.5961V59.2363C38.5961 58.8347 38.2993 58.4331 37.8044 58.4331C37.3096 58.4331 37.0127 58.7343 37.0127 59.2363V61.9472H29.8873V59.2363C29.8873 58.8347 29.5904 58.4331 29.0956 58.4331C28.6008 58.4331 28.3039 58.7343 28.3039 59.2363V92.3689H24.7411C24.8401 92.4693 24.5432 92.7705 24.5432 93.1721ZM76.7964 92.4693H64.5248V85.2404H76.7964V92.4693ZM76.7964 83.7343H64.5248V76.5054H76.7964V83.7343ZM76.7964 74.9994H64.5248V67.7705H76.7964V74.9994ZM76.7964 66.3649H64.5248V59.1359H76.7964V66.3649ZM76.7964 57.6299H64.5248V50.401H76.7964V57.6299ZM70.6606 6.8267L73.0357 14.156H68.2854L70.6606 6.8267ZM67.9886 15.662H73.3326V20.2805H67.9886V15.662ZM67.5927 21.7865H73.6295L76.1036 25.5014H65.2176L67.5927 21.7865ZM64.5248 27.0074H76.7964V31.6259H64.5248V27.0074ZM61.16 48.9954V33.0315H80.1612V48.895H61.16V48.9954ZM56.0139 63.4532H63.1393V69.7785H62.0507V68.7745C62.0507 67.3689 60.9621 66.2645 59.5766 66.2645C58.1911 66.2645 57.1025 67.3689 57.1025 68.7745V69.7785H56.0139V63.4532ZM56.0139 71.2845H57.7952C58.1911 71.2845 58.5869 70.9833 58.5869 70.4813V68.7745C58.5869 68.2725 58.9828 67.7705 59.5766 67.7705C60.0714 67.7705 60.5662 68.1721 60.5662 68.7745V70.4813C60.5662 70.8829 60.8631 71.2845 61.3579 71.2845H63.1393V74.9994H56.0139V71.2845ZM56.0139 76.5054H63.1393V92.3689H56.0139V76.5054ZM47.404 63.4532H54.5294V69.7785H53.4408V68.7745C53.4408 67.3689 52.3522 66.2645 50.9667 66.2645C49.5812 66.2645 48.4926 67.3689 48.4926 68.7745V69.7785H47.404V63.4532ZM47.404 71.2845H49.1853C49.5812 71.2845 49.977 70.9833 49.977 70.4813V68.7745C49.977 68.2725 50.3729 67.7705 50.9667 67.7705C51.4615 67.7705 51.9563 68.1721 51.9563 68.7745V70.4813C51.9563 70.8829 52.2532 71.2845 52.748 71.2845H54.5294V74.9994H47.404V71.2845ZM47.404 76.5054H54.5294V92.3689H47.404V76.5054ZM38.7941 63.4532H45.9195V69.7785H44.8309V68.7745C44.8309 67.3689 43.7423 66.2645 42.3568 66.2645C40.9713 66.2645 39.8827 67.3689 39.8827 68.7745V69.7785H38.7941V63.4532ZM38.7941 71.2845H40.5754C40.9713 71.2845 41.3671 70.9833 41.3671 70.4813V68.7745C41.3671 68.2725 41.763 67.7705 42.3568 67.7705C42.9506 67.7705 43.3464 68.1721 43.3464 68.7745V70.4813C43.3464 70.8829 43.6433 71.2845 44.1381 71.2845H45.9195V74.9994H38.7941V71.2845ZM38.7941 76.5054H45.9195V92.3689H38.7941V76.5054ZM30.2831 63.4532H37.4086V69.7785H36.32V68.7745C36.32 67.3689 35.2314 66.2645 33.8459 66.2645C32.4604 66.2645 31.3718 67.3689 31.3718 68.7745V69.7785H30.2831V63.4532ZM30.2831 71.2845H32.0645C32.4604 71.2845 32.8562 70.9833 32.8562 70.4813V68.7745C32.8562 68.2725 33.2521 67.7705 33.8459 67.7705C34.4396 67.7705 34.8355 68.1721 34.8355 68.7745V70.4813C34.8355 70.8829 35.1324 71.2845 35.6272 71.2845H37.4086V74.9994H30.2831V71.2845ZM30.2831 76.5054H37.4086V92.3689H30.2831V76.5054Z" fill="#D41028"/>
<path d="M70.6606 56.5262C71.0565 56.5262 71.4523 56.225 71.4523 55.723V52.209C71.4523 51.8074 71.1554 51.4058 70.6606 51.4058C70.1658 51.4058 69.8689 51.707 69.8689 52.209V55.723C69.9679 56.225 70.2648 56.5262 70.6606 56.5262Z" fill="#D41028"/>
<path d="M74.1244 56.5262C74.5202 56.5262 74.9161 56.225 74.9161 55.723V52.209C74.9161 51.8074 74.6192 51.4058 74.1244 51.4058C73.6295 51.4058 73.3326 51.707 73.3326 52.209V55.723C73.3326 56.225 73.7285 56.5262 74.1244 56.5262Z" fill="#D41028"/>
<path d="M70.6606 35.0405C67.3947 35.0405 64.8217 37.7514 64.8217 40.9642C64.8217 44.1771 67.4937 46.8879 70.6606 46.8879C73.9264 46.8879 76.4995 44.1771 76.4995 40.9642C76.4995 37.7514 73.9264 35.0405 70.6606 35.0405ZM70.6606 45.4823C68.1864 45.4823 66.3061 43.4743 66.3061 41.0646C66.3061 38.655 68.2854 36.647 70.6606 36.647C73.0357 36.647 75.015 38.655 75.015 41.0646C75.015 43.4743 73.1347 45.4823 70.6606 45.4823Z" fill="#D41028"/>
<path d="M67.1969 28.1128C66.801 28.1128 66.4052 28.414 66.4052 28.916V29.8196C66.4052 30.2212 66.702 30.6228 67.1969 30.6228C67.6917 30.6228 67.9886 30.3216 67.9886 29.8196V28.916C67.9886 28.414 67.6917 28.1128 67.1969 28.1128Z" fill="#D41028"/>
<path d="M70.6606 28.1128C70.2648 28.1128 69.8689 28.414 69.8689 28.916V29.8196C69.8689 30.2212 70.1658 30.6228 70.6606 30.6228C71.1554 30.6228 71.4523 30.3216 71.4523 29.8196V28.916C71.4523 28.414 71.0565 28.1128 70.6606 28.1128Z" fill="#D41028"/>
<path d="M74.1244 28.1128C73.7285 28.1128 73.3326 28.414 73.3326 28.916V29.8196C73.3326 30.2212 73.6295 30.6228 74.1244 30.6228C74.6192 30.6228 74.9161 30.3216 74.9161 29.8196V28.916C74.8171 28.414 74.5202 28.1128 74.1244 28.1128Z" fill="#D41028"/>
<path d="M70.6606 16.7671C70.2648 16.7671 69.8689 17.0683 69.8689 17.5703V18.4739C69.8689 18.8755 70.1658 19.2771 70.6606 19.2771C71.1554 19.2771 71.4523 18.9759 71.4523 18.4739V17.5703C71.4523 17.0683 71.0565 16.7671 70.6606 16.7671Z" fill="#D41028"/>
<path d="M62.9414 34.1367C62.5455 34.1367 62.1497 34.4379 62.1497 34.9399V47.0885C62.1497 47.4901 62.4466 47.8917 62.9414 47.8917C63.4362 47.8917 63.7331 47.5905 63.7331 47.0885V34.9399C63.7331 34.5383 63.3372 34.1367 62.9414 34.1367Z" fill="#D41028"/>
<path d="M78.3798 34.1367C77.984 34.1367 77.5881 34.4379 77.5881 34.9399V47.0885C77.5881 47.4901 77.885 47.8917 78.3798 47.8917C78.8747 47.8917 79.1716 47.5905 79.1716 47.0885V34.9399C79.0726 34.5383 78.7757 34.1367 78.3798 34.1367Z" fill="#D41028"/>
<path d="M72.343 40.2613H71.3533V38.4541C71.3533 38.0525 71.0564 37.6509 70.5616 37.6509C70.0668 37.6509 69.7699 37.9521 69.7699 38.4541V41.0645C69.7699 41.4661 70.0668 41.8677 70.5616 41.8677H72.244C72.6399 41.8677 73.0357 41.5665 73.0357 41.0645C73.0357 40.5625 72.7388 40.2613 72.343 40.2613Z" fill="#D41028"/>
<path d="M85.2083 97.6909H1.28659C0.89073 97.6909 0.494873 97.9921 0.494873 98.4941C0.494873 98.9961 0.791766 99.2973 1.28659 99.2973H85.3073C85.7032 99.2973 86.099 98.9961 86.099 98.4941C86.099 97.9921 85.6042 97.6909 85.2083 97.6909Z" fill="#D41028"/>
<path d="M50.9666 77.6108C50.5708 77.6108 50.1749 77.912 50.1749 78.414V81.9281C50.1749 82.3297 50.4718 82.7313 50.9666 82.7313C51.4615 82.7313 51.7584 82.4301 51.7584 81.9281V78.414C51.6594 78.0124 51.3625 77.6108 50.9666 77.6108Z" fill="#D41028"/>
<path d="M50.9666 86.3457C50.5708 86.3457 50.1749 86.6469 50.1749 87.1489V90.663C50.1749 91.0646 50.4718 91.4662 50.9666 91.4662C51.4615 91.4662 51.7584 91.165 51.7584 90.663V87.1489C51.6594 86.6469 51.3625 86.3457 50.9666 86.3457Z" fill="#D41028"/>
<path d="M42.3568 77.6108C41.9609 77.6108 41.5651 77.912 41.5651 78.414V81.9281C41.5651 82.3297 41.862 82.7313 42.3568 82.7313C42.8516 82.7313 43.1485 82.4301 43.1485 81.9281V78.414C43.1485 78.0124 42.7526 77.6108 42.3568 77.6108Z" fill="#D41028"/>
<path d="M42.3568 86.3457C41.9609 86.3457 41.5651 86.6469 41.5651 87.1489V90.663C41.5651 91.0646 41.862 91.4662 42.3568 91.4662C42.8516 91.4662 43.1485 91.165 43.1485 90.663V87.1489C43.1485 86.6469 42.7526 86.3457 42.3568 86.3457Z" fill="#D41028"/>
<path d="M33.8458 77.6108C33.4499 77.6108 33.0541 77.912 33.0541 78.414V81.9281C33.0541 82.3297 33.351 82.7313 33.8458 82.7313C34.3406 82.7313 34.6375 82.4301 34.6375 81.9281V78.414C34.5385 78.0124 34.2417 77.6108 33.8458 77.6108Z" fill="#D41028"/>
<path d="M33.8458 86.3457C33.4499 86.3457 33.0541 86.6469 33.0541 87.1489V90.663C33.0541 91.0646 33.351 91.4662 33.8458 91.4662C34.3406 91.4662 34.6375 91.165 34.6375 90.663V87.1489C34.5385 86.6469 34.2417 86.3457 33.8458 86.3457Z" fill="#D41028"/>
<path d="M26.1266 48.6949C27.5121 48.6949 28.6007 47.5905 28.6007 46.1848C28.6007 44.7792 27.5121 43.6748 26.1266 43.6748C24.7411 43.6748 23.6525 44.7792 23.6525 46.1848C23.6525 47.5905 24.7411 48.6949 26.1266 48.6949ZM26.1266 45.2812C26.6214 45.2812 27.1162 45.6828 27.1162 46.2852C27.1162 46.8877 26.7204 47.2893 26.1266 47.2893C25.5328 47.2893 25.1369 46.8877 25.1369 46.2852C25.1369 45.6828 25.5328 45.2812 26.1266 45.2812Z" fill="#D41028"/>
<path d="M17.8136 49.5984C18.4074 49.8996 19.1002 50 19.694 49.6988C20.9805 49.2972 21.6733 47.8916 21.2774 46.5864C21.0795 45.984 20.6836 45.482 20.0898 45.1808C19.496 44.8796 18.8033 44.7792 18.2095 44.98C17.6157 45.1808 17.1209 45.5824 16.824 46.1848C16.5271 46.7872 16.4281 47.49 16.725 48.0924C16.824 48.7952 17.2199 49.2972 17.8136 49.5984ZM18.1105 46.8876C18.2095 46.6868 18.4074 46.486 18.7043 46.3856C19.1991 46.1848 19.7929 46.486 19.8919 46.988C20.0898 47.49 19.7929 48.0924 19.2981 48.1928C19.1991 48.1928 19.1002 48.1928 19.0012 48.1928C18.8033 48.1928 18.7043 48.1928 18.6054 48.0924C18.4074 47.992 18.2095 47.7912 18.1105 47.49C17.9126 47.3896 17.9126 47.1888 18.1105 46.8876Z" fill="#D41028"/>
<path d="M12.4696 53.213C12.9644 53.213 13.4592 53.0121 13.9541 52.7109C15.0427 51.9077 15.3396 50.3013 14.4489 49.1969C14.053 48.6949 13.4592 48.2933 12.8655 48.1929C12.7665 48.1929 12.5686 48.1929 12.4696 48.1929C11.9748 48.1929 11.48 48.3937 10.9851 48.6949C9.89653 49.4981 9.59963 51.1045 10.4903 52.2089C10.9851 52.8113 11.6779 53.213 12.4696 53.213ZM11.8758 49.8997C12.0737 49.6989 12.3706 49.6989 12.5686 49.6989C12.8655 49.6989 13.0634 49.8997 13.1623 50.1005C13.4592 50.5021 13.3603 51.2049 12.9644 51.5061C12.7665 51.6065 12.5686 51.7069 12.3706 51.7069C12.0737 51.7069 11.7768 51.6065 11.5789 51.3053C11.381 50.8033 11.48 50.2009 11.8758 49.8997Z" fill="#D41028"/>
<path d="M5.93789 57.932C6.33375 58.2332 6.82857 58.434 7.42236 58.434C8.21407 58.434 8.90682 58.0324 9.40164 57.43C9.7975 56.9279 9.89647 56.2251 9.7975 55.6227C9.69854 54.9199 9.30268 54.4179 8.80786 54.0163C7.71925 53.2131 6.23479 53.5143 5.44307 54.6187C4.55239 55.5223 4.84929 57.1287 5.93789 57.932ZM6.63064 55.3215C6.92754 54.9199 7.62029 54.8195 8.01614 55.1207C8.21407 55.3215 8.412 55.5223 8.412 55.7231C8.412 56.0243 8.412 56.2251 8.21407 56.4259C8.01614 56.6267 7.81822 56.8275 7.62029 56.8275C7.52132 56.8275 7.52132 56.8275 7.42236 56.8275C7.22443 56.8275 7.0265 56.7271 6.82857 56.6267C6.63064 56.4259 6.43272 56.2251 6.43272 56.0243C6.33375 55.8235 6.43271 55.5223 6.63064 55.3215Z" fill="#D41028"/>
<path d="M3.36481 64.8594C3.9586 65.0602 4.65135 64.9598 5.24513 64.759C5.83892 64.4578 6.23478 63.9558 6.43271 63.3534C6.82856 62.0482 6.13581 60.6426 4.84928 60.241C4.25549 59.8394 3.56274 59.9398 2.96895 60.241C2.37517 60.5422 1.97931 61.0442 1.78138 61.6466C1.28656 62.9518 2.07828 64.3574 3.36481 64.8594ZM3.16688 62.1486C3.36481 61.6466 3.85963 61.3454 4.35446 61.5462C4.84928 61.747 5.14617 62.249 4.94824 62.751C4.84928 63.0522 4.65135 63.253 4.45342 63.3534C4.35445 63.4538 4.15653 63.4538 4.05756 63.4538C3.9586 63.4538 3.85963 63.4538 3.76067 63.4538C3.26585 63.253 2.96895 62.6506 3.16688 62.1486Z" fill="#D41028"/>
<path d="M2.96898 72.189C4.35448 72.189 5.44309 71.0846 5.44309 69.679C5.44309 68.2734 4.35448 67.1689 2.96898 67.1689C1.58348 67.1689 0.494873 68.2734 0.494873 69.679C0.494873 71.0846 1.58348 72.189 2.96898 72.189ZM2.96898 68.675C3.4638 68.675 3.95862 69.0766 3.95862 69.679C3.95862 70.181 3.56277 70.683 2.96898 70.683C2.3752 70.683 1.97934 70.2814 1.97934 69.679C1.97934 69.177 2.3752 68.675 2.96898 68.675Z" fill="#D41028"/>
<path d="M6.43275 76.2049C6.23482 75.6025 5.83896 75.1005 5.24518 74.7993C4.84932 74.5985 4.55243 74.498 4.15657 74.498C3.85968 74.498 3.66175 74.4981 3.36485 74.5985C2.07832 75.0001 1.38557 76.4057 1.78142 77.7109C1.97935 78.3133 2.37521 78.9157 2.969 79.2169C3.56278 79.5181 4.25553 79.6185 4.84932 79.3173C6.13586 78.9157 6.82861 77.5101 6.43275 76.2049ZM4.3545 77.9117C4.25553 77.9117 4.15657 77.9117 4.0576 77.9117C3.85968 77.9117 3.76071 77.9117 3.66175 77.8113C3.46382 77.7109 3.26589 77.5101 3.16693 77.2089C2.969 76.7069 3.26589 76.1045 3.76071 76.0041C3.95864 75.9037 4.25553 75.9037 4.45346 76.1045C4.65139 76.2049 4.84932 76.4057 4.94828 76.7069C5.14621 77.2089 4.84932 77.7109 4.3545 77.9117Z" fill="#D41028"/>
<path d="M7.02648 85.9438C7.71923 86.0442 8.31301 85.8434 8.80784 85.5422C9.30266 85.1406 9.69852 84.5382 9.79748 83.9358C9.89644 83.2329 9.69852 82.6305 9.40162 82.1285C8.9068 81.4257 8.21405 81.1245 7.42234 81.1245C6.92752 81.1245 6.43269 81.3253 5.93787 81.6265C5.44305 82.0281 5.04719 82.6305 4.94823 83.2329C4.84926 83.9358 5.04719 84.5382 5.34409 85.0402C5.73994 85.5422 6.33373 85.8434 7.02648 85.9438ZM6.82855 82.7309C7.22441 82.4297 7.91716 82.5301 8.21405 82.9317C8.41198 83.1325 8.41198 83.4338 8.41198 83.6346C8.41198 83.9358 8.21405 84.1366 8.01612 84.237C7.81819 84.3374 7.62027 84.4378 7.42234 84.4378C7.32337 84.4378 7.32337 84.4378 7.22441 84.4378C6.92752 84.4378 6.72959 84.237 6.63062 84.0362C6.43269 83.8354 6.43269 83.5342 6.43269 83.3333C6.43269 83.1325 6.63062 82.8313 6.82855 82.7309Z" fill="#D41028"/>
<path d="M38.2993 52.7112C38.7941 53.1129 39.4868 53.3137 40.0806 53.1129C40.7734 53.0125 41.2682 52.6108 41.6641 52.1088C42.4558 51.0044 42.2578 49.398 41.1692 48.5948C40.7734 48.2936 40.2785 48.0928 39.6848 48.0928C38.893 48.0928 38.2003 48.4944 37.7055 49.0968C37.3096 49.5988 37.2107 50.3016 37.3096 50.904C37.4086 51.7072 37.7055 52.3096 38.2993 52.7112ZM38.893 50.1008C39.1899 49.6992 39.7837 49.5988 40.2786 49.9C40.6744 50.2012 40.7734 50.8036 40.4765 51.3056C40.2786 51.5064 40.0806 51.7072 39.8827 51.7072C39.7837 51.7072 39.7837 51.7072 39.6848 51.7072C39.4868 51.7072 39.2889 51.6068 39.091 51.5064C38.893 51.3056 38.6951 51.1048 38.6951 50.904C38.6951 50.6028 38.7941 50.3016 38.893 50.1008Z" fill="#D41028"/>
<path d="M32.4604 49.6989C33.0542 49.8997 33.7469 49.8997 34.3407 49.5985C34.9345 49.2973 35.3304 48.7952 35.5283 48.1928C35.9241 46.8876 35.2314 45.482 33.9448 45.0804C33.648 44.98 33.45 44.98 33.1531 44.98C32.7573 44.98 32.3614 45.0804 32.0645 45.2812C31.4707 45.5824 31.0749 46.0844 30.877 46.6868C30.679 47.2892 30.679 47.992 30.9759 48.5944C31.3718 49.0964 31.8666 49.4981 32.4604 49.6989ZM32.3614 47.0884C32.5594 46.5864 33.0542 46.2852 33.549 46.486C34.0438 46.6868 34.3407 47.1888 34.1428 47.6908C34.0438 47.992 33.8459 48.1928 33.648 48.2932C33.549 48.3936 33.3511 48.3936 33.2521 48.3936C33.1531 48.3936 33.0542 48.3936 32.9552 48.3936C32.7573 48.2932 32.4604 48.0924 32.3614 47.8916C32.2625 47.6908 32.2625 47.2892 32.3614 47.0884Z" fill="#D41028"/>
<path d="M26.1266 68.6748C26.5224 68.6748 26.9183 68.3736 26.9183 67.8716C26.9183 67.3696 26.6214 67.0684 26.1266 67.0684C24.7411 67.0684 23.6525 68.1728 23.6525 69.5784C23.6525 70.984 24.7411 72.0884 26.1266 72.0884C26.5224 72.0884 26.9183 71.7872 26.9183 71.2852C26.9183 70.7832 26.6214 70.482 26.1266 70.482C25.6318 70.482 25.1369 70.0804 25.1369 69.478C25.1369 69.1768 25.5328 68.6748 26.1266 68.6748Z" fill="#D41028"/>
<path d="M16.1312 55.7231C15.9333 55.8235 15.8344 56.0243 15.8344 56.2251C15.8344 56.4259 15.8344 56.6267 15.9333 56.8275L22.6629 66.1649L22.9598 66.2653H23.0587C23.2567 66.2653 23.3556 66.2653 23.5536 66.1649C23.7515 66.0645 23.8505 65.8637 23.8505 65.6629V65.3617L17.1209 56.0243C16.923 55.5223 16.4281 55.5223 16.1312 55.7231Z" fill="#D41028"/>
<path d="M24.1474 65.3618C24.3453 65.4622 24.5432 65.4622 24.7412 65.4622C24.9391 65.3618 25.038 65.2614 25.137 65.0606L25.236 64.7594L21.6733 53.7152C21.5743 53.5144 21.4753 53.414 21.2774 53.3136C21.0795 53.2132 20.8815 53.2132 20.6836 53.3136C20.2878 53.414 20.0898 53.916 20.1888 54.2172L23.7515 65.2614L24.1474 65.3618Z" fill="#D41028"/>
<path d="M26.8194 53.2129C26.8194 52.8113 26.5225 52.4097 26.0277 52.4097C25.5329 52.4097 25.236 52.7109 25.236 53.2129V64.8595L25.4339 65.0603C25.5329 65.1607 25.7308 65.2611 25.9287 65.2611C26.3246 65.2611 26.7204 64.9599 26.7204 64.4579V53.2129H26.8194Z" fill="#D41028"/>
<path d="M12.9643 59.2373C12.7664 59.2373 12.4695 59.3377 12.3705 59.5385C12.2716 59.7393 12.1726 59.9401 12.2716 60.1409C12.2716 60.3417 12.3705 60.5425 12.5685 60.6429L21.7722 67.4702H22.0691C22.267 67.4702 22.4649 67.3698 22.5639 67.169C22.6628 66.9682 22.7618 66.7674 22.6628 66.5666L22.5639 66.2654L13.3602 59.4381C13.2612 59.2373 13.0633 59.2373 12.9643 59.2373Z" fill="#D41028"/>
<path d="M9.10474 69.679C9.10474 70.0806 9.40163 70.4822 9.89645 70.4822H21.3763L21.5742 70.2814C21.6732 70.181 21.7722 69.9802 21.7722 69.7794C21.7722 69.5786 21.6732 69.3778 21.5742 69.2774L21.3763 69.0766H9.79749C9.40163 68.9762 9.10474 69.2774 9.10474 69.679Z" fill="#D41028"/>
<path d="M20.7825 86.1449C21.1784 86.2453 21.5742 86.0445 21.6732 85.6429L25.1369 74.8999C25.2359 74.4983 25.038 74.0967 24.6421 73.9963C24.4442 73.8959 24.2463 73.9963 24.0483 73.9963L23.7514 74.0967L20.1887 85.1409C20.1887 85.5425 20.4856 86.0445 20.7825 86.1449Z" fill="#D41028"/>
<path d="M10.5892 63.8555C10.2923 63.8555 9.9954 64.0563 9.89644 64.3575C9.79747 64.7591 9.9954 65.1607 10.3913 65.2611L21.2773 68.8755L21.5742 68.7751C21.6732 68.6747 21.8711 68.5743 21.9701 68.3735C22.069 68.1727 21.9701 67.9719 21.8711 67.7711L21.7722 67.4699L10.8861 63.8555C10.7871 63.8555 10.6881 63.8555 10.5892 63.8555Z" fill="#D41028"/>
<path d="M17.1209 83.5343L23.8504 74.0966V73.7954C23.8504 73.5946 23.7515 73.3938 23.5535 73.2934C23.3556 73.193 23.1577 73.0926 22.9598 73.193L22.6629 73.2934L15.9333 82.7311C15.8343 82.9319 15.7354 83.1327 15.8343 83.3335C15.8343 83.5343 15.9333 83.7351 16.1312 83.8355C16.4281 83.9359 16.9229 83.8355 17.1209 83.5343Z" fill="#D41028"/>
<path d="M10.7872 75.502L21.6733 71.8876L21.7722 71.5864C21.8712 71.3856 21.8712 71.1847 21.8712 70.9839C21.7722 70.7831 21.6733 70.6827 21.4754 70.5823L21.1785 70.4819L10.2924 74.0964C9.89652 74.1968 9.69859 74.6988 9.79756 75C9.99549 75.4016 10.4903 75.6024 10.7872 75.502Z" fill="#D41028"/>
<path d="M13.3602 80.0204L22.6629 73.1931L22.7618 72.8919C22.7618 72.6911 22.7618 72.4903 22.6629 72.2895C22.5639 72.0887 22.366 71.9883 22.168 71.9883H21.8711L12.5685 78.8156C12.3706 78.916 12.2716 79.1168 12.2716 79.3176C12.2716 79.5184 12.2716 79.7192 12.3706 79.92C12.5685 80.2212 13.0633 80.2212 13.3602 80.0204Z" fill="#D41028"/>
<path d="M19.496 89.8596C19.2981 89.7592 19.1001 89.8596 18.9022 89.8596C18.7043 89.96 18.6053 90.0604 18.5063 90.2612L17.8136 92.47H14.0529C13.6571 92.47 13.2612 92.7712 13.2612 93.2732C13.2612 93.7752 13.5581 94.0764 14.0529 94.0764H18.3084C18.6053 94.0764 18.9022 93.8756 19.0012 93.5744L19.8918 90.964C19.9908 90.7632 19.8918 90.5624 19.8918 90.3616C19.8918 90.1608 19.6939 89.96 19.496 89.8596Z" fill="#D41028"/>
<path d="M26.8194 88.8558C26.8194 88.4542 26.5225 88.0526 26.0277 88.0526C16.0323 88.0526 7.9172 79.8197 7.9172 69.6791C7.9172 59.5386 16.0323 51.3056 26.0277 51.3056C26.4235 51.3056 26.8194 51.0044 26.8194 50.5024C26.8194 50.0004 26.5225 49.6992 26.0277 49.6992C15.2406 49.6992 6.43274 58.635 6.43274 69.5787C6.43274 80.5225 15.2406 89.4583 26.0277 89.4583C26.5225 89.5587 26.8194 89.2575 26.8194 88.8558Z" fill="#D41028"/>
</g>
<defs>
<clipPath id="clip0">
<rect width="86" height="100" fill="white"/>
</clipPath>
</defs>
</svg>
